<svg width="978" height="991" viewBox="0 0 978 991" fill="none" xmlns="http://www.w3.org/2000/svg">
<path d="M911.981 668.33H213.828C178.552 668.33 149.851 639.968 149.851 605.107V188.938C149.851 154.077 178.551 125.715 213.828 125.715H911.981C947.258 125.715 975.958 154.077 975.958 188.938V605.107C975.958 639.968 947.258 668.33 911.981 668.33ZM213.828 128.039C179.848 128.039 152.203 155.358 152.203 188.938V605.107C152.203 638.687 179.847 666.006 213.828 666.006H911.981C945.961 666.006 973.607 638.687 973.607 605.107V188.938C973.607 155.358 945.961 128.039 911.981 128.039H213.828Z" fill="black"/>
<path d="M974.576 570.421H151.233C150.583 570.421 150.057 569.901 150.057 569.259C150.057 568.617 150.584 568.097 151.233 568.097H974.576C975.225 568.097 975.752 568.618 975.752 569.259C975.752 569.901 975.225 570.421 974.576 570.421Z" fill="black"/>
<path d="M701.274 810.839H424.536C424.19 810.839 423.861 810.688 423.638 810.427C423.415 810.166 423.319 809.82 423.377 809.483L447.864 666.973C447.96 666.414 448.45 666.006 449.023 666.006H676.785C677.358 666.006 677.848 666.414 677.944 666.973L702.432 809.483C702.49 809.821 702.394 810.166 702.17 810.427C701.949 810.688 701.621 810.839 701.274 810.839ZM425.929 808.516H699.881L675.793 668.329H450.017L425.929 808.516Z" fill="black"/>
<path d="M738.505 838.532H387.305C378.941 838.532 372.136 831.807 372.136 823.542C372.136 815.24 378.941 808.516 387.305 808.516H738.505C746.869 808.516 753.673 815.24 753.673 823.506C753.673 831.807 746.869 838.532 738.505 838.532ZM387.305 810.839C380.237 810.839 374.487 816.522 374.487 823.506C374.487 830.526 380.237 836.208 387.305 836.208H738.505C745.572 836.208 751.322 830.526 751.322 823.542C751.322 816.522 745.572 810.839 738.505 810.839H387.305Z" fill="black"/>
<path d="M562.904 631.124C556.12 631.124 550.601 625.657 550.601 618.937C550.601 612.216 556.12 606.749 562.904 606.749C569.689 606.749 575.209 612.216 575.209 618.937C575.209 625.657 569.689 631.124 562.904 631.124ZM562.904 609.073C557.416 609.073 552.952 613.497 552.952 618.937C552.952 624.376 557.416 628.8 562.904 628.8C568.393 628.8 572.858 624.376 572.858 618.937C572.858 613.497 568.392 609.073 562.904 609.073Z" fill="black"/>
<path d="M938.69 271.072H509.953C509.396 271.072 508.916 270.686 508.802 270.147C508.687 269.609 508.972 269.065 509.482 268.845L723.85 176.25C724.151 176.12 724.491 176.12 724.792 176.25L939.161 268.845C939.671 269.065 939.956 269.609 939.841 270.147C939.727 270.686 939.247 271.072 938.69 271.072ZM515.579 268.748H933.064L724.32 178.583L515.579 268.748Z" fill="black"/>
<path d="M584.077 255.985C583.624 255.985 583.192 255.724 582.999 255.288C582.738 254.7 583.011 254.015 583.605 253.758L723.85 193.18C724.151 193.05 724.49 193.05 724.792 193.18L775.05 214.889C775.645 215.146 775.917 215.831 775.656 216.418C775.398 217.005 774.706 217.276 774.109 217.018L724.321 195.513L584.548 255.887C584.394 255.953 584.234 255.985 584.077 255.985Z" fill="black"/>
<path d="M610.267 282.099H537.67C537.02 282.099 536.495 281.579 536.495 280.937V269.909C536.495 269.267 537.021 268.747 537.67 268.747H610.267C610.917 268.747 611.443 269.268 611.443 269.909V280.937C611.443 281.579 610.917 282.099 610.267 282.099ZM538.846 279.776H609.092V271.072H538.846V279.776Z" fill="black"/>
<path d="M610.267 460.912H537.67C537.02 460.912 536.495 460.392 536.495 459.75V448.723C536.495 448.081 537.021 447.561 537.67 447.561H610.267C610.917 447.561 611.443 448.081 611.443 448.723V459.75C611.443 460.392 610.917 460.912 610.267 460.912ZM538.846 458.588H609.092V449.884H538.846V458.588Z" fill="black"/>
<path d="M598.542 450.038H549.395C548.745 450.038 548.219 449.518 548.219 448.877V280.948C548.219 280.306 548.745 279.785 549.395 279.785H598.542C599.192 279.785 599.718 280.306 599.718 280.948V448.877C599.718 449.518 599.192 450.038 598.542 450.038ZM550.571 447.715H597.367V282.11H550.571V447.715Z" fill="black"/>
<path d="M558.728 424.146C558.078 424.146 557.553 423.625 557.553 422.984V288.373C557.553 287.731 558.079 287.211 558.728 287.211C559.378 287.211 559.904 287.731 559.904 288.373V422.984C559.904 423.625 559.378 424.146 558.728 424.146Z" fill="black"/>
<path d="M573.528 421.726C572.878 421.726 572.352 421.205 572.352 420.564V288.373C572.352 287.731 572.878 287.211 573.528 287.211C574.178 287.211 574.704 287.731 574.704 288.373V420.564C574.704 421.205 574.178 421.726 573.528 421.726Z" fill="black"/>
<path d="M588.329 419.217C587.679 419.217 587.154 418.697 587.154 418.055V288.373C587.154 287.731 587.68 287.211 588.329 287.211C588.979 287.211 589.505 287.731 589.505 288.373V418.055C589.505 418.697 588.979 419.217 588.329 419.217Z" fill="black"/>
<path d="M710.793 282.099H638.195C637.545 282.099 637.02 281.579 637.02 280.937V269.909C637.02 269.267 637.546 268.747 638.195 268.747H710.793C711.443 268.747 711.969 269.268 711.969 269.909V280.937C711.969 281.579 711.443 282.099 710.793 282.099ZM639.371 279.776H709.618V271.072H639.371V279.776Z" fill="black"/>
<path d="M710.793 460.912H638.195C637.545 460.912 637.02 460.392 637.02 459.75V448.723C637.02 448.081 637.546 447.561 638.195 447.561H710.793C711.443 447.561 711.969 448.081 711.969 448.723V459.75C711.969 460.392 711.443 460.912 710.793 460.912ZM639.371 458.588H709.618V449.884H639.371V458.588Z" fill="black"/>
<path d="M699.067 450.038H649.92C649.27 450.038 648.745 449.518 648.745 448.877V280.948C648.745 280.306 649.271 279.785 649.92 279.785H699.067C699.717 279.785 700.242 280.306 700.242 280.948V448.877C700.242 449.518 699.717 450.038 699.067 450.038ZM651.095 447.715H697.891V282.11H651.095V447.715Z" fill="black"/>
<path d="M659.254 430.314C658.604 430.314 658.079 429.794 658.079 429.153V288.373C658.079 287.731 658.605 287.211 659.254 287.211C659.904 287.211 660.429 287.731 660.429 288.373V429.153C660.43 429.795 659.904 430.314 659.254 430.314Z" fill="black"/>
<path d="M674.054 427.718C673.404 427.718 672.878 427.197 672.878 426.556V288.373C672.878 287.731 673.404 287.211 674.054 287.211C674.703 287.211 675.229 287.731 675.229 288.373V426.556C675.229 427.197 674.704 427.718 674.054 427.718Z" fill="black"/>
<path d="M688.854 427.953C688.204 427.953 687.678 427.433 687.678 426.792V288.373C687.678 287.731 688.204 287.211 688.854 287.211C689.503 287.211 690.029 287.731 690.029 288.373V426.792C690.029 427.433 689.503 427.953 688.854 427.953Z" fill="black"/>
<path d="M811.318 282.099H738.72C738.07 282.099 737.545 281.579 737.545 280.937V269.909C737.545 269.267 738.071 268.747 738.72 268.747H811.318C811.968 268.747 812.494 269.268 812.494 269.909V280.937C812.494 281.579 811.968 282.099 811.318 282.099ZM739.896 279.776H810.142V271.072H739.896V279.776Z" fill="black"/>
<path d="M811.318 460.912H738.72C738.07 460.912 737.545 460.392 737.545 459.75V448.723C737.545 448.081 738.071 447.561 738.72 447.561H811.318C811.968 447.561 812.494 448.081 812.494 448.723V459.75C812.494 460.392 811.968 460.912 811.318 460.912ZM739.896 458.588H810.142V449.884H739.896V458.588Z" fill="black"/>
<path d="M799.592 450.038H750.446C749.796 450.038 749.27 449.518 749.27 448.877V280.948C749.27 280.306 749.796 279.785 750.446 279.785H799.592C800.242 279.785 800.768 280.306 800.768 280.948V448.877C800.768 449.518 800.242 450.038 799.592 450.038ZM751.622 447.715H798.416V282.11H751.622V447.715Z" fill="black"/>
<path d="M759.78 388.992C759.13 388.992 758.604 388.471 758.604 387.83V288.373C758.604 287.731 759.13 287.211 759.78 287.211C760.43 287.211 760.956 287.731 760.956 288.373V387.83C760.956 388.471 760.43 388.992 759.78 388.992Z" fill="black"/>
<path d="M774.58 373.407C773.93 373.407 773.404 372.887 773.404 372.245V288.373C773.404 287.731 773.93 287.211 774.58 287.211C775.23 287.211 775.755 287.731 775.755 288.373V372.245C775.755 372.887 775.229 373.407 774.58 373.407Z" fill="black"/>
<path d="M789.379 353.1C788.729 353.1 788.203 352.579 788.203 351.938V288.373C788.203 287.731 788.729 287.211 789.379 287.211C790.029 287.211 790.554 287.731 790.554 288.373V351.938C790.555 352.579 790.029 353.1 789.379 353.1Z" fill="black"/>
<path d="M911.842 282.099H839.245C838.595 282.099 838.07 281.579 838.07 280.937V269.909C838.07 269.267 838.596 268.747 839.245 268.747H911.842C912.492 268.747 913.018 269.268 913.018 269.909V280.937C913.018 281.579 912.492 282.099 911.842 282.099ZM840.421 279.776H910.667V271.072H840.421V279.776Z" fill="black"/>
<path d="M911.842 460.912H839.245C838.595 460.912 838.07 460.392 838.07 459.75V448.723C838.07 448.081 838.596 447.561 839.245 447.561H911.842C912.492 447.561 913.018 448.081 913.018 448.723V459.75C913.018 460.392 912.492 460.912 911.842 460.912ZM840.421 458.588H910.667V449.884H840.421V458.588Z" fill="black"/>
<path d="M900.117 450.038H850.97C850.32 450.038 849.795 449.518 849.795 448.877V280.948C849.795 280.306 850.321 279.785 850.97 279.785H900.117C900.767 279.785 901.293 280.306 901.293 280.948V448.877C901.293 449.518 900.767 450.038 900.117 450.038ZM852.146 447.715H898.942V282.11H852.146V447.715Z" fill="black"/>
<path d="M860.304 378.602C859.654 378.602 859.128 378.082 859.128 377.44V288.373C859.128 287.731 859.654 287.211 860.304 287.211C860.953 287.211 861.479 287.731 861.479 288.373V377.44C861.479 378.082 860.953 378.602 860.304 378.602Z" fill="black"/>
<path d="M875.105 388.992C874.455 388.992 873.929 388.471 873.929 387.83V288.373C873.929 287.731 874.455 287.211 875.105 287.211C875.754 287.211 876.28 287.731 876.28 288.373V387.83C876.281 388.471 875.755 388.992 875.105 388.992Z" fill="black"/>
<path d="M889.905 403.16C889.255 403.16 888.729 402.64 888.729 401.998V288.373C888.729 287.731 889.255 287.211 889.905 287.211C890.554 287.211 891.08 287.731 891.08 288.373V401.998C891.081 402.64 890.555 403.16 889.905 403.16Z" fill="black"/>
<path d="M166.066 640.527H1.30044C0.65097 640.527 0.125 640.006 0.125 639.365C0.125 638.723 0.651502 638.203 1.30044 638.203H166.066C166.716 638.203 167.242 638.723 167.242 639.365C167.242 640.006 166.715 640.527 166.066 640.527Z" fill="black"/>
<path d="M162.515 342.082C184.368 294.173 161.45 268.562 130.282 268.562C99.1147 268.562 73.8481 302.971 73.8481 345.416C73.8481 387.861 99.1147 422.27 130.282 422.27C161.45 422.27 144.865 380.778 162.515 342.082Z" fill="black"/>
<path d="M160.726 270.968V299.579C160.726 310.062 152.122 318.561 141.509 318.561H132.844L106.186 327.914C106.186 327.914 104.758 323.441 104.821 315.596C104.898 305.886 111.214 296.949 119.598 292.55L160.726 270.968Z" fill="#9D8961"/>
<path d="M134.779 331.528H109.802V362.606H134.779V331.528Z" fill="#3E3E3E"/>
<path d="M106.917 324.975C106.917 326.05 106.046 326.882 106.184 327.914C107.586 338.367 115.833 346.392 125.796 346.392C136.743 346.392 145.618 336.703 145.618 324.751C145.618 312.798 136.743 303.109 125.796 303.109C114.848 303.109 106.917 313.023 106.917 324.975Z" fill="#3E3E3E"/>
<path d="M125.796 347.555C117.984 347.555 112.101 344.509 107.814 338.242C107.449 337.711 107.591 336.988 108.129 336.629C108.665 336.269 109.397 336.408 109.761 336.94C113.578 342.519 118.824 345.23 125.796 345.23C136.078 345.23 144.442 336.043 144.442 324.751C144.442 313.458 136.078 304.27 125.796 304.27C119.204 304.27 113.232 307.977 109.821 314.185C109.511 314.748 108.797 314.957 108.226 314.651C107.655 314.345 107.444 313.639 107.753 313.075C111.526 306.211 118.44 301.946 125.795 301.946C137.374 301.946 146.793 312.176 146.793 324.75C146.794 337.325 137.374 347.555 125.796 347.555Z" fill="black"/>
<path d="M125.796 298.947C114.849 298.947 104.318 306.069 105.974 324.751C106.068 325.821 106.048 326.881 106.187 327.914L119.021 318.561L145.891 318.071C143.451 309.136 134.772 298.947 125.796 298.947Z" fill="#9D8961"/>
<path d="M119.521 334.505C121.153 335.982 123.254 336.98 125.626 337.218C130.913 337.749 135.677 334.358 136.989 329.436L119.521 334.505Z" fill="white"/>
<path d="M221.864 662.354L118.887 733.369L154.283 783.493L257.259 712.478L221.864 662.354Z" fill="#C8BF95"/>
<path d="M212.089 743.591L157.558 706.656L221.829 662.371L257.221 712.493L212.089 743.591Z" fill="#020202"/>
<path d="M152.352 710.273L118.879 733.357L154.275 783.481L187.748 760.397L152.352 710.273Z" fill="#020202"/>
<path d="M135.628 717.39L134.103 717.298C116.63 716.238 107.143 723.271 87.834 729.704L107.746 803.491L168.81 892.314L188.381 901.193L197.429 887.401L179.335 827.476L177.137 779.214L182.703 765.109L176.146 755.823L163.279 753.103L154.088 759.436C142.525 754.302 138.852 754.459 135.761 750.083C135.723 749.968 129.81 743.154 135.252 735.934L140.852 728.503C144.199 724.064 141.221 717.73 135.628 717.39Z" fill="#F2C66D"/>
<path d="M188.381 901.193L163.655 877.391L113.737 803.571L87.8343 729.704L73.4219 726.444L50.3279 736.836L56.5452 767.828C56.5452 767.828 68.6765 784.848 83.9002 806.567L92.8384 808.197L98.5756 816.321L97.0776 825.228C120.896 859.155 146.886 895.764 146.886 895.764L171.027 908.424L179.486 907.321L188.381 901.193Z" fill="#020202"/>
<path d="M118.047 720.658L118.446 718.152C118.803 715.91 122.015 696.126 124.891 691.839C128.063 687.113 134.533 685.815 139.32 688.948C141.638 690.466 143.219 692.784 143.773 695.476C144.326 698.169 143.784 700.913 142.248 703.204C139.372 707.491 122.179 718.122 120.228 719.319L118.047 720.658ZM133.582 689.562C130.967 689.562 128.4 690.813 126.85 693.124C124.918 696.003 122.41 708.87 121.19 715.972C127.336 712.095 138.356 704.798 140.288 701.919C141.476 700.146 141.896 698.022 141.468 695.938C141.039 693.854 139.815 692.059 138.021 690.885C136.655 689.99 135.11 689.562 133.582 689.562Z" fill="black"/>
<path d="M177.912 791.827C177.775 791.827 177.637 791.804 177.501 791.754L163.851 786.727C163.243 786.503 162.934 785.834 163.16 785.233C163.387 784.631 164.065 784.327 164.672 784.55L178.322 789.577C178.931 789.801 179.24 790.47 179.013 791.071C178.838 791.538 178.389 791.827 177.912 791.827Z" fill="black"/>
<path d="M178.135 804.146C177.998 804.146 177.86 804.122 177.725 804.072L164.074 799.046C163.466 798.822 163.157 798.153 163.383 797.552C163.61 796.95 164.287 796.646 164.896 796.869L178.546 801.895C179.154 802.119 179.464 802.788 179.237 803.389C179.06 803.856 178.611 804.146 178.135 804.146Z" fill="black"/>
<path d="M178.356 816.465C178.219 816.465 178.081 816.441 177.946 816.391L164.296 811.365C163.687 811.141 163.378 810.472 163.605 809.87C163.831 809.269 164.509 808.964 165.117 809.187L178.767 814.213C179.375 814.438 179.684 815.106 179.458 815.708C179.281 816.175 178.833 816.465 178.356 816.465Z" fill="black"/>
<path d="M452.596 474.675L197.709 532.906L217.07 621.092L291.811 600.975L181.509 676.978L233.482 750.58L496.313 569.479C519.474 553.52 525.152 522.035 508.997 499.156L506.054 494.988C494.106 478.068 472.942 470.026 452.596 474.675Z" fill="#9D904A"/>
<path d="M235.223 662.649C245.655 655.535 253.642 647.278 275.046 646.142C301.747 644.725 339.136 647.482 357.675 630.954H248.304L194.028 668.352C219.344 669.756 231.034 665.505 235.223 662.649Z" fill="black"/>
<path d="M460.975 790.709L407.751 810.464L449.937 921.455L503.161 901.7L460.975 790.709Z" fill="#C8BF95"/>
<path d="M484.618 852.819L434.784 881.493L407.78 810.5L461.006 790.744L484.618 852.819Z" fill="#020202"/>
<path d="M490.33 867.914L437.106 887.669L449.946 921.452L503.17 901.697L490.33 867.914Z" fill="#020202"/>
<path d="M435.261 951.139C433.746 931.407 429.268 920.773 434.534 904.59L434.994 903.177C436.679 897.998 443.51 896.735 446.979 900.96L452.784 908.035C458.424 914.909 466.431 911 466.551 910.992C471.522 909.146 472.262 905.652 480.02 896.019L476.146 885.833L481.894 874.386L492.441 870.471L504.69 879.134L552.316 886.424L593.361 868.496L609.124 872.802L606.144 893.249L560.501 942.944L511.246 950.323L435.261 951.139Z" fill="#F2C66D"/>
<path d="M434.172 952.312L434.089 951.226C433.658 945.61 432.971 940.631 432.364 936.237C430.806 924.95 429.576 916.034 433.415 904.234L433.875 902.822C434.8 899.978 437.127 897.951 440.1 897.401C443.076 896.854 445.987 897.908 447.892 900.229L453.697 907.303C457.968 912.509 463.714 910.898 465.986 909.964C466.047 909.939 466.105 909.915 466.166 909.895C469.159 908.775 470.467 906.95 473.322 902.967C474.682 901.07 476.355 898.735 478.685 895.813L474.866 885.769L481.047 873.46L492.616 869.165L505.147 878.029L552.156 885.224L593.27 867.266L610.436 871.956L607.257 893.767L607.015 894.03L561.092 944.032L511.26 951.485L434.172 952.312ZM441.63 899.583C441.268 899.583 440.901 899.616 440.532 899.684C438.422 900.075 436.77 901.514 436.113 903.533L435.654 904.945C431.978 916.243 433.177 924.928 434.694 935.923C435.266 940.065 435.909 944.725 436.346 949.965L511.151 949.163L559.911 941.858L605.031 892.732L607.812 873.649L593.453 869.727L552.477 887.625L504.232 880.241L492.266 871.777L482.741 875.313L477.425 885.897L481.355 896.227L480.939 896.742C478.432 899.856 476.661 902.325 475.24 904.309C472.281 908.437 470.652 910.71 466.964 912.08L466.921 912.096C464.667 913.016 457.265 915.34 451.869 908.767L446.065 901.692C444.949 900.331 443.344 899.583 441.63 899.583Z" fill="black"/>
<path d="M428.617 963.908L435.261 951.139L512.779 944.705L564.63 928.675L591.244 901.226L609.135 872.738L616.975 879.874L619.839 887.662L612.529 913.123C612.529 913.123 603.281 923.513 584.574 943.559C584.574 943.559 540.862 961.5 529.617 965.64L521.393 962.067L512.164 965.492L508.422 973.507C483.783 982.557 464.425 989.837 464.425 989.837H433.335L428.617 963.908Z" fill="#020202"/>
<path d="M433.908 920.549L431.548 919.548C429.473 918.667 411.172 910.84 407.734 907.09C405.896 905.084 404.958 902.491 405.093 899.788C405.228 897.086 406.421 894.597 408.452 892.781C412.642 889.031 419.138 889.35 422.936 893.49C426.374 897.24 432.451 916.002 433.133 918.13L433.908 920.549ZM415.33 892.486C413.438 892.486 411.539 893.152 410.029 894.503C408.464 895.902 407.545 897.82 407.441 899.903C407.337 901.986 408.059 903.984 409.476 905.529C411.777 908.039 423.529 913.505 430.087 916.381C427.837 909.649 423.493 897.559 421.192 895.049C419.635 893.35 417.486 892.486 415.33 892.486Z" fill="black"/>
<path d="M507.756 893.971C507.525 893.971 507.29 893.904 507.087 893.764C506.554 893.398 506.421 892.674 506.792 892.147L514.953 880.524C515.324 879.996 516.056 879.865 516.589 880.232C517.121 880.597 517.254 881.322 516.883 881.849L508.722 893.472C508.494 893.797 508.128 893.971 507.756 893.971Z" fill="black"/>
<path d="M520.376 895.769C520.145 895.769 519.912 895.703 519.707 895.562C519.174 895.196 519.041 894.472 519.412 893.944L527.573 882.321C527.944 881.794 528.676 881.663 529.209 882.029C529.742 882.395 529.875 883.119 529.504 883.647L521.343 895.27C521.115 895.595 520.748 895.769 520.376 895.769Z" fill="black"/>
<path d="M532.498 897.963C532.267 897.963 532.033 897.896 531.829 897.755C531.296 897.39 531.163 896.666 531.534 896.138L539.696 884.515C540.067 883.988 540.797 883.857 541.332 884.223C541.865 884.589 541.998 885.313 541.627 885.84L533.465 897.463C533.237 897.788 532.87 897.963 532.498 897.963Z" fill="black"/>
<path d="M502.993 840.786L429.281 639.259L429.274 639.239L408.107 581.704C399.195 557.48 375.892 541.354 349.801 541.354H86.8503V570.122C86.8503 608.305 118.185 639.259 156.839 639.259H315.964L402.762 876.56L502.993 840.786Z" fill="#9D904A"/>
<path d="M349.801 541.354H338.753C341.086 575.364 369.734 602.244 404.756 602.244C408.364 602.244 411.901 601.948 415.352 601.399L408.106 581.704C399.194 557.48 375.892 541.354 349.801 541.354Z" fill="#444444"/>
<path d="M229.626 551.008H86.8503V570.122C86.8503 576.406 87.7144 582.487 89.3045 588.273C95.7029 587.322 102.866 585.639 107.173 582.702C117.605 575.589 125.592 567.331 146.997 566.195C173.697 564.778 211.086 567.536 229.626 551.008Z" fill="#2D2D2D"/>
<path d="M402.055 878.049L315.139 640.421H156.839C117.598 640.421 85.6741 608.885 85.6741 570.122V540.192H349.8C376.288 540.192 400.163 556.715 409.211 581.307L430.378 638.842L504.497 841.485L402.055 878.049ZM88.0255 542.516V570.122C88.0255 607.604 118.895 638.097 156.839 638.097H316.789L403.467 875.073L501.487 840.089L428.175 639.654L407.001 582.1C398.29 558.423 375.303 542.515 349.8 542.515L88.0255 542.516Z" fill="black"/>
<path d="M307.785 343.114L258.005 411.319L232.536 391.628L199.591 435.539L246.4 469.81C256.393 477.126 270.509 474.985 277.819 465.043L346.154 372.1L307.785 343.114Z" fill="#B39A68"/>
<path d="M259.666 475.322C254.658 475.322 249.802 473.747 245.701 470.744L197.946 435.782L232.311 389.979L257.766 409.66L306.831 342.434C307.211 341.914 307.947 341.797 308.472 342.172C308.999 342.547 309.118 343.273 308.738 343.793L258.242 412.978L232.762 393.278L201.235 435.298L247.1 468.877C251.68 472.229 257.308 473.604 262.938 472.75C268.571 471.895 273.518 468.915 276.867 464.36L345.202 371.416C345.585 370.898 346.318 370.783 346.845 371.159C347.37 371.537 347.487 372.263 347.105 372.782L278.77 465.726C275.049 470.787 269.553 474.097 263.295 475.047C262.082 475.231 260.87 475.322 259.666 475.322Z" fill="black"/>
<path d="M347.103 295.898L369.899 280.094L399.314 288.557L408.948 324.48L378.089 345.875C368.664 352.409 357.158 355.336 345.712 354.112L325.972 352L328.754 326.605C330.109 314.235 336.796 303.044 347.103 295.898Z" fill="#C8BF95"/>
<path d="M295.994 361.238L334.593 385.896L378.12 335.578L337.891 304.505L295.994 361.238Z" fill="#C8BF95"/>
<path d="M385.529 275.413L391.054 276.005L389.559 289.657L386.681 289.349C383.364 288.994 380.029 289.842 377.298 291.736L359.663 303.962L355.88 289.746L371.348 279.021C375.476 276.159 380.516 274.877 385.529 275.413Z" fill="#C8BF95"/>
<path d="M417.49 326.251L442.695 328.947C446.798 329.386 450.484 326.455 450.929 322.401L450.959 322.126C451.403 318.072 448.437 314.429 444.334 313.99L419.129 311.294L417.49 326.251Z" fill="#C8BF95"/>
<path d="M435.232 355.068C426.885 355.068 418.52 353.59 410.467 350.62C392.759 344.092 378.684 331.141 370.834 314.151L369.897 312.125C353.693 277.053 369.382 235.491 404.872 219.477L496.857 168.727C497.158 168.56 497.519 168.534 497.841 168.652L509.003 172.767C509.295 172.875 509.532 173.093 509.662 173.374L523.253 202.865C523.521 203.449 523.261 204.137 522.671 204.404L419.043 251.163C410.378 255.072 403.773 262.082 400.444 270.901C397.116 279.72 397.461 289.292 401.417 297.854L402.39 299.96C406.347 308.523 413.44 315.051 422.364 318.34C431.287 321.629 440.974 321.288 449.638 317.379L542.022 266.455C542.322 266.29 542.681 266.262 543.004 266.381L553.695 270.295C553.984 270.401 554.221 270.615 554.352 270.892L568.404 300.581C568.536 300.862 568.55 301.183 568.442 301.474C568.334 301.765 568.113 302.001 567.827 302.13L464.588 348.714C455.214 352.943 445.236 355.068 435.232 355.068ZM497.529 171.017L405.934 221.548C371.539 237.073 356.37 277.252 372.037 311.159L372.973 313.185C380.563 329.61 394.17 342.132 411.288 348.443C428.408 354.753 446.99 354.098 463.61 346.599L565.771 300.502L552.425 272.308L542.695 268.745L450.7 319.45C441.38 323.66 431.055 324.023 421.542 320.516C412.03 317.009 404.468 310.052 400.251 300.925L399.278 298.818C395.061 289.691 394.693 279.488 398.241 270.088C401.79 260.687 408.831 253.216 418.066 249.048L520.626 202.771L507.725 174.774L497.529 171.017Z" fill="black"/>
<path d="M508.591 175.018C508.455 175.018 508.316 174.994 508.18 174.944L497.019 170.83C496.411 170.605 496.102 169.937 496.329 169.335C496.555 168.734 497.235 168.43 497.841 168.653L509.002 172.768C509.611 172.992 509.92 173.661 509.692 174.262C509.517 174.729 509.068 175.018 508.591 175.018Z" fill="black"/>
<path d="M522.185 204.505C522.048 204.505 521.909 204.482 521.774 204.432L510.362 200.225C509.754 200.001 509.445 199.332 509.672 198.73C509.898 198.129 510.577 197.823 511.184 198.048L522.596 202.254C523.204 202.478 523.513 203.147 523.285 203.749C523.11 204.216 522.661 204.505 522.185 204.505Z" fill="black"/>
<path d="M567.307 302.226C567.171 302.226 567.032 302.202 566.896 302.152L555.608 297.991C554.999 297.767 554.691 297.098 554.918 296.496C555.144 295.895 555.821 295.59 556.43 295.814L567.718 299.975C568.327 300.2 568.636 300.869 568.408 301.47C568.233 301.937 567.784 302.226 567.307 302.226Z" fill="black"/>
<path d="M542.461 267.514L438.833 314.273C420.328 322.623 398.477 314.568 390.027 296.281L389.053 294.174C380.604 275.887 388.755 254.293 407.26 245.943L510.889 199.183L497.307 169.787L394.068 216.371C359.111 232.144 343.713 272.934 359.674 307.479L360.61 309.506C376.572 344.05 417.848 359.267 452.805 343.494L556.044 296.91L542.461 267.514Z" fill="#C8BF95"/>
<path d="M438.833 314.273C420.327 322.623 398.476 314.568 390.026 296.281L389.572 295.297L360.174 308.563L360.61 309.506C376.572 344.05 417.848 359.267 452.805 343.494L556.044 296.91L542.461 267.514L438.833 314.273Z" fill="#F2C66D"/>
<path d="M542.511 267.498L513.047 280.794L526.631 310.192L556.095 296.896L542.511 267.498Z" fill="white"/>
<path d="M526.583 311.367C526.137 311.367 525.71 311.114 525.513 310.687L511.93 281.291C511.8 281.01 511.789 280.69 511.898 280.402C512.007 280.113 512.228 279.879 512.512 279.751L541.973 266.457C542.565 266.189 543.261 266.448 543.53 267.031L557.113 296.427C557.243 296.707 557.254 297.027 557.145 297.316C557.036 297.605 556.815 297.838 556.531 297.967L527.069 311.261C526.911 311.332 526.746 311.367 526.583 311.367ZM514.558 281.382L527.163 308.664L554.486 296.336L541.88 269.054L514.558 281.382Z" fill="black"/>
<path d="M497.349 169.77L467.885 183.065L481.469 212.463L510.933 199.167L497.349 169.77Z" fill="white"/>
<path d="M481.426 213.639C481.287 213.639 481.148 213.615 481.015 213.566C480.723 213.458 480.487 213.241 480.357 212.96L466.775 183.564C466.505 182.98 466.765 182.291 467.356 182.024L496.818 168.73C497.41 168.462 498.107 168.721 498.375 169.304L511.958 198.7C512.228 199.284 511.968 199.973 511.377 200.24L481.916 213.534C481.76 213.604 481.593 213.639 481.426 213.639ZM469.403 183.655L482.008 210.937L509.331 198.609L496.725 171.327L469.403 183.655Z" fill="black"/>
<path d="M424.01 350.865C397.143 350.866 371.41 335.676 359.541 309.989L358.605 307.962C350.754 290.972 350.069 271.979 356.675 254.48C363.281 236.981 376.387 223.072 393.58 215.315L496.819 168.731C497.101 168.602 497.425 168.592 497.718 168.699C498.009 168.807 498.247 169.025 498.376 169.305L511.959 198.701C512.089 198.982 512.1 199.302 511.991 199.59C511.881 199.879 511.661 200.113 511.377 200.241L407.75 247.001C389.864 255.072 381.957 276.017 390.124 293.692L391.097 295.799C399.265 313.474 420.461 321.288 438.345 313.217L541.974 266.458C542.565 266.19 543.262 266.449 543.53 267.032L557.113 296.428C557.243 296.708 557.254 297.028 557.145 297.317C557.036 297.606 556.816 297.839 556.532 297.968L453.294 344.551C443.797 348.836 433.826 350.864 424.01 350.865ZM496.725 171.327L394.557 217.428C377.935 224.928 365.265 238.374 358.878 255.292C352.492 272.209 353.155 290.571 360.744 306.996L361.68 309.023C377.347 342.928 418.004 357.92 452.317 342.437L554.486 296.336L541.881 269.053L439.322 315.33C420.255 323.931 397.663 315.603 388.958 296.763L387.985 294.656C379.28 275.816 387.708 253.49 406.773 244.886L509.331 198.609L496.725 171.327Z" fill="black"/>
<path d="M399.264 280.578L401.013 283.273C403.735 287.465 404.922 292.451 404.38 297.402L402.789 311.928C402.358 315.865 398.778 318.712 394.793 318.286L394.178 318.22C390.194 317.794 387.313 314.256 387.744 310.319L389.392 295.28C389.898 290.661 388.789 286.009 386.251 282.098L385.759 281.34C384.104 278.79 386.175 275.483 389.222 275.808L391.94 276.099C394.942 276.42 397.635 278.067 399.264 280.578Z" fill="#C8BF95"/>
<path d="M409.486 290.636L411.235 293.331C413.956 297.524 415.144 302.509 414.602 307.461L413.011 321.986C412.58 325.923 409 328.77 405.015 328.344L404.4 328.278C400.416 327.852 397.535 324.315 397.966 320.377L399.614 305.338C400.12 300.719 399.011 296.067 396.473 292.156L395.98 291.397C394.325 288.848 396.396 285.541 399.444 285.866L402.161 286.157C405.164 286.479 407.856 288.125 409.486 290.636Z" fill="#C8BF95"/>
<path d="M420.074 303.417L422.564 307.254C424.612 310.409 425.507 314.162 425.098 317.888L424.009 327.831C423.578 331.768 419.998 334.615 416.014 334.188L415.398 334.123C411.414 333.697 408.534 330.159 408.965 326.222L410.054 316.279C410.462 312.552 409.568 308.8 407.52 305.645L405.888 303.131C404.387 300.818 406.266 297.816 409.031 298.112L411.899 298.419C415.25 298.777 418.255 300.615 420.074 303.417Z" fill="#C8BF95"/>
<path d="M443.604 330.164C443.293 330.164 442.981 330.147 442.668 330.114L423.977 328.114C423.332 328.045 422.865 327.472 422.935 326.834C423.005 326.195 423.588 325.731 424.23 325.804L442.921 327.804C446.321 328.156 449.381 325.731 449.75 322.374L449.801 321.904C450.169 318.546 447.704 315.519 444.307 315.156L424.504 313.038C423.858 312.968 423.391 312.395 423.461 311.758C423.532 311.12 424.104 310.659 424.757 310.728L444.56 312.846C449.247 313.347 452.646 317.522 452.139 322.154L452.088 322.624C451.842 324.868 450.727 326.882 448.948 328.297C447.414 329.516 445.545 330.164 443.604 330.164Z" fill="black"/>
<path d="M405.803 329.548C405.501 329.548 405.196 329.532 404.89 329.499L404.274 329.433C399.651 328.939 396.298 324.82 396.798 320.251L397.078 317.7C397.147 317.061 397.727 316.6 398.373 316.67C399.019 316.738 399.486 317.312 399.416 317.95L399.136 320.502C398.775 323.796 401.194 326.767 404.527 327.124L405.142 327.19C408.481 327.545 411.48 325.156 411.842 321.862L413.434 307.336C413.945 302.665 412.813 297.914 410.246 293.959L408.496 291.264C407.136 289.167 404.927 287.747 402.437 287.365C401.795 287.267 401.355 286.673 401.455 286.04C401.555 285.405 402.159 284.976 402.796 285.069C405.952 285.552 408.751 287.353 410.476 290.009L412.226 292.705C415.082 297.105 416.341 302.39 415.772 307.586L414.18 322.112C413.713 326.376 410.049 329.548 405.803 329.548Z" fill="black"/>
<path d="M416.81 335.393C416.504 335.393 416.196 335.376 415.887 335.343L415.272 335.277C411.306 334.853 408.157 331.701 407.783 327.782C407.723 327.144 408.198 326.577 408.844 326.517C409.483 326.458 410.063 326.925 410.125 327.565C410.394 330.389 412.666 332.661 415.526 332.967L416.141 333.033C417.754 333.206 419.341 332.746 420.607 331.74C421.873 330.734 422.666 329.301 422.841 327.705L423.93 317.763C424.308 314.311 423.472 310.801 421.575 307.88L419.085 304.044C417.779 302.032 415.781 300.561 413.458 299.9C412.834 299.722 412.473 299.079 412.653 298.462C412.832 297.845 413.486 297.487 414.108 297.666C416.98 298.483 419.45 300.302 421.064 302.789L423.555 306.625C425.74 309.991 426.704 314.035 426.268 318.012L425.179 327.954C424.936 330.168 423.836 332.155 422.081 333.55C420.568 334.754 418.725 335.393 416.81 335.393Z" fill="black"/>
<path d="M335.481 387.058C335.21 387.058 334.939 386.966 334.717 386.778C334.224 386.361 334.166 385.628 334.588 385.141L363.588 351.645C363.734 351.475 363.927 351.352 364.143 351.288C368.891 349.878 373.356 347.736 377.414 344.923L402.969 327.206C403.5 326.837 404.234 326.965 404.607 327.49C404.98 328.015 404.851 328.74 404.32 329.109L378.765 346.826C374.595 349.716 370.017 351.931 365.153 353.413L336.375 386.651C336.142 386.92 335.813 387.058 335.481 387.058Z" fill="black"/>
<path d="M293.123 364.362C292.876 364.362 292.628 364.286 292.416 364.128C291.897 363.743 291.794 363.014 292.185 362.501L336.951 303.806C339.67 300.399 342.853 297.426 346.428 294.947L370.671 278.072C375.036 275.046 380.357 273.692 385.655 274.259L392.066 274.945C395.438 275.306 398.423 277.131 400.255 279.952L402.003 282.647C404.859 287.047 406.118 292.332 405.549 297.529L403.958 312.054C403.458 316.622 399.283 319.94 394.667 319.441L394.052 319.376C391.812 319.136 389.802 318.049 388.389 316.316C386.977 314.581 386.333 312.408 386.575 310.195L388.223 295.156C388.333 294.156 388.359 293.127 388.301 292.098C388.255 291.278 387.614 290.617 386.777 290.527L386.554 290.503C383.52 290.182 380.473 290.954 377.973 292.687L360.337 304.914C359.806 305.283 359.072 305.154 358.699 304.63C358.327 304.104 358.456 303.38 358.987 303.011L376.622 290.784C379.588 288.728 383.204 287.81 386.806 288.193L387.029 288.217C389.015 288.43 390.537 290.007 390.648 291.968C390.713 293.123 390.684 294.279 390.56 295.405L388.913 310.444C388.552 313.738 390.971 316.709 394.304 317.065L394.919 317.131C398.26 317.488 401.258 315.098 401.619 311.804L403.21 297.279C403.722 292.607 402.59 287.856 400.023 283.901L398.275 281.207C396.829 278.98 394.473 277.539 391.813 277.255L385.401 276.569C380.668 276.063 375.919 277.271 372.023 279.972L347.779 296.848C344.39 299.198 341.374 302.016 338.813 305.225L294.062 363.9C293.832 364.202 293.48 364.362 293.123 364.362Z" fill="black"/>
<path d="M378.077 310.004L382.226 308.663C387.244 307.041 392.282 311.078 391.714 316.264L391.629 317.04C391.321 319.848 389.377 322.218 386.661 323.095L378.919 325.598C373.406 327.38 367.572 327.982 361.804 327.365L341.374 325.18L343.176 308.732L366.373 311.213C370.316 311.635 374.306 311.223 378.077 310.004Z" fill="#C8BF95"/>
<path d="M366.25 328.766C364.731 328.766 363.207 328.685 361.678 328.521L341.248 326.335C340.603 326.266 340.136 325.693 340.206 325.055C340.276 324.417 340.867 323.959 341.501 324.025L361.931 326.211C367.57 326.813 373.163 326.236 378.555 324.494L386.297 321.991C388.569 321.256 390.203 319.265 390.461 316.916L390.546 316.14C390.771 314.098 389.94 312.107 388.326 310.814C386.712 309.52 384.569 309.128 382.594 309.767L378.443 311.108C374.487 312.387 370.384 312.812 366.248 312.368L346.034 310.206C345.388 310.136 344.921 309.563 344.991 308.926C345.061 308.287 345.638 307.824 346.287 307.896L366.501 310.058C370.306 310.465 374.078 310.075 377.712 308.9L381.863 307.559C384.599 306.672 387.57 307.216 389.808 309.008C392.044 310.801 393.194 313.56 392.885 316.389L392.799 317.166C392.443 320.422 390.177 323.182 387.028 324.2L379.287 326.702C375.036 328.075 370.668 328.766 366.25 328.766Z" fill="black"/>
<path d="M350.878 355.551C349.12 355.551 347.356 355.456 345.587 355.267L343.868 355.083C343.223 355.014 342.756 354.441 342.826 353.803C342.897 353.166 343.468 352.707 344.121 352.773L345.84 352.957C352.549 353.673 359.19 352.96 365.586 350.835C366.205 350.631 366.868 350.958 367.075 351.566C367.282 352.174 366.951 352.833 366.335 353.037C361.301 354.71 356.121 355.551 350.878 355.551Z" fill="black"/>
<path d="M78.004 362.607H68.4094C41.5266 362.607 18.2186 380.975 12.2461 406.867L0.285156 458.724H78.004V362.607Z" fill="#F2C66D"/>
<path d="M185.3 362.606H140.886V438.023H203.898L245.85 392.394L221.105 374.282C210.745 366.7 198.194 362.606 185.3 362.606Z" fill="#F2C66D"/>
<path d="M188.456 362.606H66.2065V555.277H241.342L188.456 362.606Z" fill="#B39A68"/>
<path d="M442.573 543.078H283.231L373.092 425.532H532.435L442.573 543.078ZM287.955 540.755H441.402L527.711 427.856H374.264L287.955 540.755Z" fill="black"/>
<path d="M442.928 556.44H197.865V540.755H442.929L442.928 556.44ZM200.216 554.116H440.577V543.078H200.216V554.116Z" fill="black"/>
<path d="M406.502 495.64C401.155 495.64 396.804 491.342 396.804 486.058C396.804 480.775 401.155 476.477 406.502 476.477C411.85 476.477 416.201 480.775 416.201 486.058C416.201 491.342 411.85 495.64 406.502 495.64ZM406.502 478.801C402.451 478.801 399.155 482.056 399.155 486.058C399.155 490.06 402.451 493.316 406.502 493.316C410.554 493.316 413.849 490.06 413.849 486.058C413.849 482.056 410.554 478.801 406.502 478.801Z" fill="black"/>
<path d="M9.40723 509.019V459.75H66.2057V481.119C66.2057 487.077 71.0958 491.906 77.1274 491.904L170.543 491.877V542.437L43.2676 542.46C24.5687 542.464 9.40723 527.491 9.40723 509.019Z" fill="#C8BF95"/>
<path d="M226.732 507.601L232.286 513.528C235.092 516.522 235.373 521.055 232.959 524.365L227.505 531.845L214.285 517.275H131.241V500.108H209.376C215.965 500.108 222.256 502.824 226.732 507.601Z" fill="#C8BF95"/>
<path d="M224.173 496.894L227.315 500.247C230.12 503.241 230.402 507.773 227.987 511.083L222.533 518.563L209.314 503.993H131.241V492.05H144.493C149.974 492.05 159.752 486.826 172.123 486.826H200.854C209.707 486.827 218.159 490.475 224.173 496.894Z" fill="#C8BF95"/>
<path d="M228.674 519.141L235.337 526.252C238.143 529.246 238.424 533.778 236.01 537.088L230.556 544.568L217.336 529.998H165.886V512.829H214.053C219.604 512.829 224.903 515.117 228.674 519.141Z" fill="#C8BF95"/>
<path d="M226.236 531.642L233.187 539.06C235.764 541.81 236.023 545.973 233.805 549.014C230.83 553.094 224.796 553.412 221.398 549.667L217.626 545.509C215.824 543.522 213.25 542.388 210.549 542.388H167.347C156.052 542.388 148.101 541.749 137.218 525.206L211.356 525.219C217.005 525.218 222.399 527.546 226.236 531.642Z" fill="#C8BF95"/>
<path d="M233.349 524.941C233.11 524.941 232.871 524.87 232.663 524.722C232.136 524.346 232.016 523.62 232.396 523.1C234.355 520.414 233.983 517.048 231.423 514.317L225.869 508.391C221.63 503.866 215.618 501.27 209.376 501.27H194.089C193.44 501.27 192.913 500.75 192.913 500.108C192.913 499.466 193.44 498.946 194.089 498.946H209.376C216.27 498.946 222.911 501.813 227.595 506.812L233.149 512.739C236.464 516.276 236.916 520.876 234.304 524.459C234.074 524.774 233.714 524.941 233.349 524.941Z" fill="black"/>
<path d="M233.885 541.163C233.647 541.163 233.407 541.092 233.199 540.944C232.672 540.568 232.553 539.843 232.932 539.322L235.056 536.41C237.135 533.559 236.89 529.619 234.475 527.041L227.812 519.931C224.274 516.157 219.259 513.992 214.054 513.992H193.949C193.299 513.992 192.773 513.471 192.773 512.83C192.773 512.188 193.3 511.668 193.949 511.668H214.054C219.913 511.668 225.557 514.105 229.538 518.352L236.201 525.463C239.373 528.85 239.694 534.025 236.964 537.768L234.841 540.681C234.61 540.995 234.25 541.163 233.885 541.163Z" fill="black"/>
<path d="M227.328 553.448C224.729 553.448 222.272 552.369 220.524 550.442L216.752 546.285C215.174 544.546 212.914 543.548 210.55 543.548H162.768C154.062 543.548 145.944 539.294 141.051 532.168C140.687 531.638 140.827 530.915 141.364 530.554C141.902 530.194 142.633 530.332 142.998 530.864C147.452 537.351 154.843 541.225 162.768 541.225H210.55C213.581 541.225 216.479 542.504 218.502 544.734L222.275 548.892C223.656 550.413 225.639 551.218 227.698 551.115C229.764 551.006 231.643 549.993 232.852 548.335C234.734 545.753 234.513 542.184 232.325 539.85L225.374 532.431C221.771 528.586 216.661 526.38 211.356 526.38H194.626C193.977 526.38 193.451 525.86 193.451 525.219C193.451 524.577 193.977 524.057 194.626 524.057H211.356C217.314 524.057 223.052 526.534 227.099 530.853L234.05 538.272C236.995 541.415 237.294 546.218 234.76 549.694C233.133 551.925 230.604 553.29 227.824 553.436C227.658 553.444 227.493 553.448 227.328 553.448Z" fill="black"/>
<path d="M43.2598 543.622C33.9052 543.622 25.1102 540.024 18.4941 533.49C11.877 526.954 8.23193 518.263 8.23193 509.019V458.588H67.3818V481.119C67.3818 483.69 68.3954 486.107 70.2362 487.925C72.0761 489.741 74.5222 490.742 77.1238 490.742C77.1249 490.742 77.126 490.742 77.127 490.742H142.011C146.852 490.742 150.543 489.736 154.817 488.572C159.82 487.21 165.49 485.665 174.04 485.665H200.854C210.005 485.665 218.819 489.47 225.036 496.104L228.178 499.457C230.919 502.382 231.583 506.602 229.869 510.207C229.592 510.788 228.894 511.037 228.304 510.765C227.717 510.492 227.464 509.8 227.74 509.219C229.045 506.475 228.54 503.262 226.452 501.035L223.31 497.681C217.537 491.521 209.353 487.988 200.854 487.988H174.04C165.809 487.988 160.539 489.423 155.442 490.811C151.188 491.97 147.17 493.064 142.011 493.064H77.1276C77.126 493.064 77.1244 493.064 77.1228 493.064C73.8935 493.064 70.858 491.823 68.5737 489.567C66.2883 487.31 65.0298 484.31 65.0298 481.118V460.91H10.5833V509.018C10.5833 517.641 13.9829 525.748 20.1567 531.845C26.3277 537.941 34.5339 541.297 43.2603 541.297C43.263 541.297 43.2651 541.297 43.2677 541.297H179.26C179.91 541.297 180.436 541.818 180.436 542.459C180.436 543.1 179.91 543.621 179.26 543.621H43.2683C43.2656 543.622 43.2624 543.622 43.2598 543.622Z" fill="black"/>
<path d="M664.184 144.835C691.166 118.172 691.166 74.9419 664.184 48.2784C637.203 21.615 593.457 21.615 566.476 48.2784C539.494 74.9418 539.494 118.172 566.476 144.835C593.457 171.499 637.203 171.499 664.184 144.835Z" fill="black"/>
<path d="M654.748 151.032C681.73 124.368 681.73 81.1386 654.748 54.4751C627.767 27.8117 584.021 27.8117 557.04 54.4751C530.058 81.1385 530.058 124.368 557.04 151.032C584.021 177.695 627.767 177.695 654.748 151.032Z" fill="#221F1A"/>
<path d="M607.619 144.042L606.175 134.46C599.398 135.352 592.595 134.694 588.443 133.153L589.678 120.818C594.248 122.389 600.494 123.456 607.024 122.298C612.751 121.282 616.334 118.368 615.727 114.333C615.149 110.501 611.57 108.651 603.755 107.448C592.458 105.724 584.364 101.981 582.89 92.1982C581.553 83.3227 586.733 75.2585 597.164 71.234L595.721 61.6525L605.566 59.9064L606.903 68.7819C613.68 67.8902 618.414 68.5005 621.973 69.5263L620.776 81.4399C617.997 80.7939 613.026 79.294 605.793 80.5771C599.263 81.7355 597.578 84.9336 598.004 87.7576C598.505 91.0861 602.34 92.5801 611.366 94.293C623.96 96.4084 629.618 101.101 630.986 110.177C632.339 119.154 627.164 127.942 615.915 132.008L617.465 142.296L607.619 144.042Z" fill="#F2C66D"/>
<path d="M914.201 329.825C949.367 295.074 949.367 238.731 914.201 203.979C879.036 169.228 822.02 169.228 786.855 203.979C751.689 238.731 751.689 295.074 786.855 329.825C822.02 364.576 879.036 364.576 914.201 329.825Z" fill="black"/>
<path d="M900.199 334.454C935.365 299.703 935.365 243.36 900.199 208.609C865.033 173.857 808.018 173.857 772.852 208.609C737.686 243.36 737.686 299.703 772.852 334.455C808.018 369.206 865.033 369.206 900.199 334.454Z" fill="#4A402C"/>
<path d="M836.722 361.706C830.524 361.706 824.284 361.08 818.074 359.811C794.21 354.938 773.696 341.173 760.31 321.052C746.923 300.932 742.268 276.865 747.199 253.283C752.13 229.702 766.059 209.429 786.419 196.201C806.781 182.972 831.14 178.371 854.998 183.244C878.861 188.117 899.375 201.882 912.761 222.002C940.395 263.538 928.683 319.547 886.652 346.855C871.591 356.641 854.339 361.706 836.722 361.706ZM836.398 183.727C819.647 183.727 802.724 188.388 787.712 198.142C746.764 224.747 735.353 279.311 762.275 319.776C775.317 339.378 795.302 352.788 818.549 357.536C841.797 362.284 865.525 357.801 885.359 344.913C926.308 318.308 937.717 263.744 910.796 223.279C893.744 197.65 865.335 183.727 836.398 183.727Z" fill="black"/>
<path d="M804.088 314.193L810.527 303.288C802.901 298.733 796.527 292.582 793.578 287.668L805.013 276.123C808.361 281.403 813.833 287.521 821.427 291.605C828.087 295.188 834.136 295.113 836.847 290.521C839.423 286.16 837.31 281.393 830.358 273.873C820.295 263.017 815.154 252.689 821.728 241.555C827.693 231.454 839.614 227.429 853.54 231.743L859.979 220.838L871.43 226.996L865.466 237.097C873.092 241.652 877.401 246.088 880.172 249.998L869.125 261.147C866.833 258.25 863.016 252.719 854.603 248.195C847.008 244.11 842.656 246.004 840.759 249.218C838.522 253.007 841.188 257.617 848.952 266.631C860.01 278.931 861.891 288.261 855.791 298.592C849.759 308.808 837.247 313.573 822.454 308.642L815.54 320.35L804.088 314.193Z" fill="#C8BF95"/>
<path d="M861.77 458.435L662.15 629.881L774.721 757.879L974.341 586.434L861.77 458.435Z" fill="#F2C66D"/>
<path d="M747.707 700.133C747.679 700.133 747.651 700.132 747.624 700.13C747.314 700.108 747.024 699.965 746.819 699.733L737.342 688.957C736.916 688.473 736.968 687.739 737.458 687.318L770.041 659.333C770.277 659.13 770.588 659.035 770.895 659.051C771.205 659.072 771.495 659.215 771.7 659.448L781.177 670.224C781.603 670.708 781.551 671.442 781.061 671.863L748.478 699.848C748.263 700.032 747.989 700.133 747.707 700.133ZM739.888 688.309L747.822 697.332L778.629 670.871L770.696 661.848L739.888 688.309Z" fill="black"/>
<path d="M793.983 660.386C793.654 660.386 793.329 660.25 793.095 659.986L783.617 649.21C783.413 648.978 783.311 648.674 783.331 648.367C783.353 648.059 783.498 647.773 783.733 647.571L816.316 619.586C816.805 619.165 817.546 619.216 817.975 619.7L827.453 630.476C827.657 630.709 827.76 631.013 827.738 631.32C827.717 631.628 827.572 631.914 827.337 632.116L794.755 660.102C794.532 660.292 794.257 660.386 793.983 660.386ZM786.164 648.562L794.098 657.585L824.906 631.124L816.971 622.101L786.164 648.562Z" fill="black"/>
<path d="M840.258 620.638C839.93 620.638 839.604 620.503 839.371 620.239L829.893 609.463C829.688 609.23 829.586 608.927 829.607 608.619C829.629 608.312 829.774 608.026 830.009 607.823L862.591 579.838C863.08 579.417 863.823 579.468 864.25 579.952L873.728 590.729C873.933 590.961 874.035 591.265 874.013 591.572C873.992 591.88 873.848 592.166 873.612 592.368L841.03 620.354C840.807 620.545 840.532 620.638 840.258 620.638ZM832.439 608.815L840.374 617.838L871.181 591.377L863.246 582.354L832.439 608.815Z" fill="black"/>
<path d="M886.534 580.892C886.205 580.892 885.879 580.756 885.646 580.492L876.168 569.716C875.964 569.484 875.862 569.18 875.882 568.872C875.904 568.565 876.049 568.279 876.284 568.076L908.866 540.091C909.356 539.671 910.098 539.721 910.525 540.206L920.003 550.982C920.208 551.214 920.31 551.518 920.288 551.826C920.267 552.133 920.122 552.419 919.887 552.622L887.304 580.608C887.082 580.798 886.808 580.892 886.534 580.892ZM878.714 569.068L886.649 578.091L917.456 551.63L909.522 542.607L878.714 569.068Z" fill="black"/>
<path d="M767.431 721.881C767.102 721.881 766.776 721.745 766.543 721.481L758.507 712.345C758.303 712.112 758.201 711.809 758.221 711.501C758.243 711.194 758.388 710.908 758.623 710.705L837.142 643.263C837.378 643.061 837.689 642.964 837.997 642.981C838.307 643.003 838.597 643.146 838.802 643.379L846.838 652.515C847.263 652.999 847.212 653.733 846.721 654.154L768.203 721.595C767.979 721.787 767.705 721.881 767.431 721.881ZM761.053 711.697L767.547 719.08L844.291 653.163L837.798 645.78L761.053 711.697Z" fill="black"/>
<path d="M856.689 645.215C856.361 645.215 856.035 645.079 855.802 644.815L847.766 635.679C847.34 635.195 847.392 634.461 847.882 634.04L890.92 597.073C891.409 596.653 892.15 596.703 892.578 597.188L900.615 606.324C900.82 606.557 900.922 606.86 900.9 607.168C900.879 607.475 900.735 607.762 900.499 607.964L857.461 644.931C857.238 645.121 856.964 645.215 856.689 645.215ZM850.313 635.031L856.805 642.414L898.069 606.971L891.575 599.588L850.313 635.031Z" fill="black"/>
<path d="M739.18 624.245L706.935 651.939L726.377 674.045L758.622 646.352L739.18 624.245Z" fill="#F2C66D"/>
<path d="M772.679 628.153C814.178 628.153 847.82 594.908 847.82 553.897C847.82 512.887 814.178 479.641 772.679 479.641C731.179 479.641 697.537 512.887 697.537 553.897C697.537 594.908 731.179 628.153 772.679 628.153Z" fill="black"/>
<path d="M760.994 632.017C802.494 632.017 836.136 598.771 836.136 557.761C836.136 516.751 802.494 483.505 760.994 483.505C719.494 483.505 685.852 516.751 685.852 557.761C685.852 598.771 719.494 632.017 760.994 632.017Z" fill="#3E3E3E"/>
<path d="M761.112 633.157C736.258 633.157 711.87 621.206 697.224 599.194C686.025 582.361 682.129 562.227 686.255 542.498C690.38 522.77 702.033 505.81 719.066 494.744C754.232 471.898 801.643 481.581 824.764 516.329C847.882 551.076 838.082 597.933 802.921 620.779C790.033 629.153 775.493 633.157 761.112 633.157ZM760.879 484.688C746.938 484.688 732.854 488.567 720.359 496.685C703.85 507.411 692.557 523.848 688.558 542.968C684.56 562.088 688.335 581.603 699.189 597.917C721.595 631.595 767.55 640.978 801.628 618.837C835.708 596.695 845.204 551.283 822.798 517.605C808.607 496.275 784.963 484.688 760.879 484.688Z" fill="black"/>
<path d="M760.068 602.294L759.168 591.796C751.75 592.303 744.411 591.128 740.012 589.172L742.212 575.868C747.061 577.884 753.768 579.466 760.936 578.652C767.222 577.939 771.315 575.02 770.936 570.6C770.577 566.4 766.819 564.149 758.422 562.312C746.28 559.673 737.755 555.061 736.836 544.342C736.002 534.618 742.186 526.217 753.788 522.558L752.887 512.06L763.695 510.833L764.529 520.557C771.947 520.05 777.042 521.034 780.833 522.389L778.706 535.239C775.734 534.349 770.442 532.383 762.502 533.284C755.334 534.098 753.283 537.454 753.549 540.549C753.861 544.196 757.92 546.078 767.598 548.551C781.12 551.702 786.935 557.179 787.788 567.125C788.631 576.96 782.403 586.147 769.911 589.796L770.877 601.067L760.068 602.294Z" fill="#F2C66D"/>
<path d="M842.818 200.441C869.799 173.777 869.799 130.547 842.818 103.884C815.836 77.2204 772.091 77.2203 745.109 103.884C718.128 130.547 718.128 173.777 745.109 200.441C772.091 227.104 815.836 227.104 842.818 200.441Z" fill="black"/>
<path d="M784.537 226.631C822.695 226.631 853.628 196.062 853.628 158.354C853.628 120.646 822.695 90.0777 784.537 90.0777C746.379 90.0777 715.446 120.646 715.446 158.354C715.446 196.062 746.379 226.631 784.537 226.631Z" fill="#4A402C"/>
<path d="M784.497 227.761C767.911 227.763 751.267 222.009 737.912 210.304C708.925 184.897 706.259 140.924 731.967 112.279C744.421 98.4031 761.598 90.15 780.333 89.0399C799.067 87.9304 817.119 94.0977 831.16 106.405C845.202 118.711 853.553 135.686 854.676 154.2C855.799 172.715 849.559 190.553 837.105 204.43C823.243 219.877 803.909 227.76 784.497 227.761ZM784.628 91.2368C783.248 91.2368 781.863 91.2779 780.474 91.3599C762.366 92.4321 745.764 100.409 733.726 113.821C708.877 141.507 711.455 184.009 739.47 208.566C767.489 233.122 810.497 230.574 835.346 202.888C847.383 189.476 853.415 172.235 852.33 154.34C851.245 136.445 843.172 120.039 829.601 108.144C817.07 97.1605 801.236 91.2368 784.628 91.2368Z" fill="black"/>
<path d="M804.951 194.879L799.373 186.913C793.692 190.671 787.294 193.051 782.88 193.481L778.475 181.875C783.276 181.29 789.358 179.52 794.698 175.63C799.381 172.219 801.294 168.04 798.945 164.686C796.714 161.5 792.675 161.402 785.127 163.734C774.221 167.119 765.287 167.295 759.592 159.162C754.425 151.783 755.467 142.287 763.026 134.123L757.448 126.157L765.5 120.293L770.667 127.671C776.348 123.913 780.868 122.394 784.519 121.761L788.77 132.972C785.988 133.605 780.858 134.429 774.942 138.738C769.601 142.628 769.52 146.232 771.164 148.58C773.102 151.347 777.21 151.014 786.074 148.61C798.317 145.011 805.491 146.75 810.775 154.297C816.001 161.76 815.288 171.902 807.013 180.461L813.002 189.014L804.951 194.879Z" fill="#F2C66D"/>
<path d="M564.243 481.648L412.826 742.834L519.751 803.369L671.168 542.183L564.243 481.648Z" fill="#3E3E3E"/>
<path d="M519.745 804.522C519.546 804.522 519.347 804.472 519.161 804.368L412.235 743.837C411.964 743.684 411.766 743.43 411.685 743.133C411.603 742.836 411.644 742.518 411.799 742.251L563.213 481.066C563.537 480.509 564.253 480.316 564.818 480.636L671.743 541.167C672.014 541.32 672.212 541.573 672.293 541.87C672.375 542.167 672.335 542.485 672.179 542.752L520.766 803.938C520.549 804.312 520.152 804.522 519.745 804.522ZM414.424 742.398L519.31 801.774L669.554 542.605L564.67 483.229L414.424 742.398Z" fill="black"/>
<path d="M472.387 776.551C487.372 750.702 520.722 741.752 546.878 756.559L519.746 803.361L472.387 776.551Z" fill="#F2C66D"/>
<path d="M460.178 769.639L412.819 742.829L439.951 696.027C466.107 710.833 475.163 743.79 460.178 769.639Z" fill="#F2C66D"/>
<path d="M611.591 508.454C596.606 534.302 563.256 543.253 537.1 528.447L564.232 481.644L611.591 508.454Z" fill="#F2C66D"/>
<path d="M644.027 588.978C617.872 574.171 608.816 541.213 623.8 515.365L671.159 542.176L644.027 588.978Z" fill="#F2C66D"/>
<path d="M519.745 804.522C519.546 804.522 519.347 804.472 519.161 804.368L412.235 743.837C411.964 743.684 411.766 743.43 411.685 743.133C411.603 742.836 411.644 742.518 411.799 742.251L563.213 481.066C563.537 480.509 564.253 480.316 564.818 480.636L671.743 541.167C672.014 541.32 672.212 541.573 672.293 541.87C672.375 542.167 672.335 542.485 672.179 542.752L520.766 803.938C520.549 804.312 520.152 804.522 519.745 804.522ZM414.424 742.398L519.31 801.774L669.554 542.605L564.67 483.229L414.424 742.398Z" fill="black"/>
<path d="M516.376 788.661C516.178 788.661 515.976 788.612 515.793 788.508L427.785 738.686C427.221 738.367 427.026 737.657 427.349 737.1C427.671 736.544 428.389 736.351 428.954 736.67L515.941 785.914L553.746 720.701C554.07 720.144 554.79 719.951 555.351 720.271C555.915 720.589 556.111 721.3 555.788 721.856L517.398 788.077C517.18 788.451 516.784 788.661 516.376 788.661Z" fill="black"/>
<path d="M525.772 570.818C525.574 570.818 525.374 570.768 525.189 570.664C524.625 570.345 524.43 569.635 524.752 569.079L566.29 497.427C566.614 496.87 567.334 496.677 567.895 496.997L655.904 546.819C656.468 547.137 656.663 547.848 656.341 548.404C656.016 548.961 655.298 549.153 654.736 548.834L567.748 499.59L526.795 570.233C526.576 570.608 526.18 570.818 525.772 570.818Z" fill="black"/>
<path d="M558.571 686.426C546.904 686.426 534.117 682.923 522.402 676.29C506.935 667.534 495.417 654.662 490.8 640.974C490.594 640.365 490.927 639.707 491.542 639.504C492.162 639.3 492.825 639.631 493.029 640.239C497.467 653.393 508.598 665.798 523.57 674.274C539.442 683.259 557.273 686.326 571.271 682.48C571.889 682.31 572.544 682.669 572.719 683.288C572.892 683.906 572.526 684.547 571.9 684.719C567.731 685.864 563.239 686.426 558.571 686.426Z" fill="black"/>
<path d="M592.834 648.106C592.314 648.106 591.839 647.761 591.699 647.241C587.977 633.364 576.28 619.715 560.408 610.73C545.439 602.256 528.98 599.041 515.252 601.911C514.608 602.044 513.993 601.642 513.858 601.015C513.724 600.387 514.13 599.77 514.766 599.637C529.053 596.653 546.114 599.96 561.577 608.714C577.983 618.001 590.094 632.182 593.972 646.646C594.139 647.267 593.765 647.903 593.137 648.067C593.035 648.092 592.934 648.106 592.834 648.106Z" fill="black"/>
<path d="M520.034 628.59L525.208 630.891C526.893 627.342 529.35 624.263 531.411 622.742L537.102 627.198C534.896 628.911 532.412 631.593 530.936 635.108C529.642 638.189 529.954 640.831 532.133 641.8C534.202 642.721 536.236 641.572 539.278 638.177C543.669 633.264 548.05 630.527 553.333 632.877C558.125 635.009 560.476 640.033 559.19 646.328L564.364 648.629L562.139 653.928L557.346 651.796C555.661 655.346 553.877 657.44 552.256 658.836L546.76 654.531C547.949 653.391 550.247 651.461 551.881 647.569C553.357 644.055 552.309 642.241 550.784 641.562C548.987 640.762 547.048 642.146 543.375 645.967C538.385 651.383 534.3 652.646 529.398 650.466C524.55 648.309 521.842 643.062 523.364 636.36L517.808 633.888L520.034 628.59Z" fill="#F2C66D"/>
<path d="M863.643 696.69L759.544 735.53L856.694 989.812L960.793 950.972L863.643 696.69Z" fill="#3E3E3E"/>
<path d="M856.757 991C856.591 991 856.426 990.965 856.272 990.897C855.989 990.771 855.767 990.537 855.657 990.248L758.502 735.956C758.272 735.355 758.579 734.686 759.187 734.458L863.289 695.614C863.582 695.505 863.904 695.516 864.189 695.643C864.473 695.769 864.694 696.002 864.804 696.291L961.96 950.585C962.189 951.185 961.882 951.855 961.275 952.082L857.173 990.925C857.038 990.975 856.897 991 856.757 991ZM761.118 736.222L857.441 988.341L959.344 950.318L863.021 698.198L761.118 736.222Z" fill="black"/>
<path d="M914.751 968.199C905.136 943.033 917.985 914.929 943.45 905.428L960.86 950.995L914.751 968.199Z" fill="#F2C66D"/>
<path d="M902.865 972.634L856.757 989.838L839.348 944.271C864.813 934.77 893.25 947.468 902.865 972.634Z" fill="#F2C66D"/>
<path d="M805.709 718.341C815.324 743.507 802.476 771.611 777.011 781.112L759.601 735.545L805.709 718.341Z" fill="#F2C66D"/>
<path d="M881.114 742.269C855.65 751.771 827.212 739.072 817.596 713.906L863.705 696.702L881.114 742.269Z" fill="#F2C66D"/>
<path d="M856.757 991C856.591 991 856.426 990.965 856.272 990.897C855.989 990.771 855.767 990.537 855.657 990.248L758.502 735.956C758.272 735.355 758.579 734.686 759.187 734.458L863.289 695.614C863.582 695.505 863.904 695.516 864.189 695.643C864.473 695.769 864.694 696.002 864.804 696.291L961.96 950.585C962.189 951.185 961.882 951.855 961.275 952.082L857.173 990.925C857.038 990.975 856.897 991 856.757 991ZM761.118 736.222L857.441 988.341L959.344 950.318L863.021 698.198L761.118 736.222Z" fill="black"/>
<path d="M862.058 977.336C861.583 977.336 861.136 977.048 860.958 976.583C860.729 975.983 861.035 975.313 861.642 975.086L946.227 943.525L922.009 880.138C921.78 879.538 922.086 878.868 922.693 878.641C923.301 878.415 923.979 878.718 924.209 879.317L948.842 943.791C949.072 944.392 948.765 945.061 948.158 945.289L862.473 977.26C862.337 977.312 862.196 977.336 862.058 977.336Z" fill="black"/>
<path d="M799.558 813.748C799.082 813.748 798.636 813.46 798.458 812.995L771.805 743.235C771.575 742.635 771.882 741.965 772.489 741.738L858.174 709.766C858.781 709.537 859.46 709.843 859.689 710.443C859.919 711.043 859.612 711.713 859.005 711.94L774.421 743.502L800.658 812.176C800.888 812.776 800.581 813.446 799.974 813.673C799.837 813.724 799.696 813.748 799.558 813.748Z" fill="black"/>
<path d="M848.107 880.915C841.528 880.915 835.272 879.862 829.705 877.742C829.099 877.511 828.797 876.838 829.03 876.24C829.265 875.641 829.948 875.345 830.551 875.574C842.348 880.066 857.459 879.528 872.01 874.099C887.435 868.343 899.816 857.851 905.133 846.031C905.398 845.446 906.092 845.18 906.685 845.442C907.278 845.702 907.545 846.389 907.282 846.976C901.715 859.35 888.84 870.302 872.841 876.273C864.566 879.359 856.1 880.915 848.107 880.915Z" fill="black"/>
<path d="M815.311 839.036C815.127 839.036 814.943 838.994 814.768 838.904C814.193 838.607 813.97 837.905 814.27 837.336C820.384 825.761 832.541 815.896 847.622 810.268C863.624 804.297 880.61 804.108 893.062 809.759C893.653 810.027 893.912 810.717 893.641 811.3C893.369 811.884 892.67 812.138 892.082 811.871C880.187 806.473 863.876 806.687 848.453 812.442C833.904 817.871 822.205 827.337 816.355 838.412C816.144 838.809 815.735 839.036 815.311 839.036Z" fill="black"/>
<path d="M837.809 850.394L842.405 848.154C840.87 844.954 840.111 841.495 840.222 839.202L846.634 837.843C846.574 840.347 847.038 843.598 848.668 846.632C850.097 849.294 852.139 850.596 854.074 849.653C855.912 848.757 856.27 846.697 855.624 842.652C854.682 836.806 855.271 832.218 859.962 829.931C864.219 827.856 869.111 829.124 872.809 833.625L877.405 831.385L879.862 835.961L875.605 838.036C877.14 841.236 877.592 843.667 877.645 845.586L871.452 846.896C871.332 845.422 871.291 842.732 869.486 839.37C867.856 836.335 865.975 836.014 864.621 836.675C863.025 837.453 862.886 839.582 863.47 844.307C864.422 850.854 862.965 854.392 858.612 856.514C854.307 858.613 849.052 857.463 845.201 852.565L840.267 854.97L837.809 850.394Z" fill="#F2C66D"/>
<path d="M810.31 810.049C845.476 775.298 845.476 718.955 810.31 684.203C775.144 649.452 718.129 649.452 682.963 684.204C647.797 718.955 647.797 775.298 682.963 810.049C718.129 844.801 775.144 844.801 810.31 810.049Z" fill="black"/>
<path d="M732.646 840.744C782.379 840.744 822.695 800.903 822.695 751.757C822.695 702.61 782.379 662.769 732.646 662.769C682.914 662.769 642.597 702.61 642.597 751.757C642.597 800.903 682.914 840.744 732.646 840.744Z" fill="#3E3E3E"/>
<path d="M732.832 841.935C726.635 841.935 720.395 841.308 714.184 840.04C690.321 835.167 669.807 821.402 656.42 801.281C628.786 759.745 640.498 703.737 682.529 676.429C724.559 649.121 781.234 660.693 808.871 702.231C836.505 743.767 824.793 799.775 782.762 827.083C767.701 836.87 750.45 841.935 732.832 841.935ZM732.465 663.902C715.3 663.902 698.496 668.837 683.822 678.371C663.987 691.259 650.417 711.008 645.612 733.982C640.808 756.956 645.344 780.403 658.386 800.005C671.426 819.607 691.413 833.017 714.659 837.765C737.91 842.513 761.635 838.03 781.47 825.142C822.418 798.537 833.828 743.973 806.906 703.508C793.866 683.906 773.88 670.496 750.633 665.748C744.583 664.513 738.501 663.902 732.465 663.902Z" fill="black"/>
<path d="M700.2 794.421L706.638 783.516C699.012 778.961 692.638 772.811 689.689 767.897L701.124 756.352C704.472 761.631 709.944 767.75 717.538 771.834C724.199 775.416 730.247 775.342 732.958 770.75C735.534 766.388 733.421 761.622 726.469 754.102C716.406 743.245 711.265 732.917 717.839 721.783C723.804 711.681 735.725 707.657 749.651 711.971L756.09 701.066L767.541 707.224L761.576 717.326C769.202 721.88 773.512 726.316 776.283 730.226L765.236 741.375C762.943 738.478 759.126 732.947 750.713 728.423C743.119 724.338 738.767 726.232 736.869 729.446C734.632 733.235 737.299 737.845 745.062 746.86C756.12 759.159 758.001 768.489 751.901 778.82C745.869 789.036 733.357 793.802 718.564 788.87L711.65 800.579L700.2 794.421Z" fill="#F2C66D"/>
</svg>
