<svg width="798" height="817" viewBox="0 0 798 817" fill="none" xmlns="http://www.w3.org/2000/svg">
<path d="M605.023 111.112H280.207V604.322H605.023V111.112Z" fill="white" stroke="#263238" stroke-miterlimit="10" stroke-linecap="round" stroke-linejoin="round"/>
<path d="M605.023 111.112H594.75V604.322H605.023V111.112Z" fill="url(#paint0_linear_523_14828)" stroke="#263238" stroke-miterlimit="10" stroke-linecap="round" stroke-linejoin="round"/>
<path d="M605.023 314.591H594.75V411.28H605.023V314.591Z" fill="white" stroke="#263238" stroke-miterlimit="10" stroke-linecap="round" stroke-linejoin="round"/>
<path d="M605.023 111.112H280.207V149.156H605.023V111.112Z" fill="#263238" stroke="#263238" stroke-miterlimit="10" stroke-linecap="round" stroke-linejoin="round"/>
<path d="M580.823 138.696H312.096C309.345 138.696 307.115 136.41 307.115 133.589V127.383C307.115 124.563 309.345 122.277 312.096 122.277H580.821C583.572 122.277 585.802 124.563 585.802 127.383V133.589C585.804 136.41 583.572 138.696 580.823 138.696Z" fill="white" stroke="#263238" stroke-miterlimit="10" stroke-linecap="round" stroke-linejoin="round"/>
<path d="M555.341 281.695L555.712 281.416H554.981L437.484 190.866L319.985 281.416H319.254L319.628 281.692L319.254 281.981H320.019L438.53 369.364L554.96 281.981H555.712L555.341 281.695Z" fill="url(#paint1_linear_523_14828)" stroke="#263238" stroke-miterlimit="10" stroke-linecap="round" stroke-linejoin="round"/>
<path d="M514.89 199.923H356.287V401.722H514.89V199.923Z" fill="white" stroke="#263238" stroke-miterlimit="10" stroke-linecap="round" stroke-linejoin="round"/>
<path d="M469.41 254.852C469.41 278.233 459.043 291.694 448.329 291.694C442.8 291.694 439.575 288.86 439.229 283.664C436.926 288.86 433.009 291.811 427.365 291.694C418.726 291.576 415.73 284.136 416.768 273.626L418.035 261.817C419.071 251.072 423.795 244.342 432.319 244.577C437.503 244.577 440.844 247.41 442.226 252.371L443.032 245.049H450.865L447.41 278.939C447.064 281.654 447.87 284.015 450.751 284.015C459.621 284.015 462.615 266.657 462.5 255.085C462.5 238.672 455.013 228.044 437.734 228.044C414.696 228.044 403.983 247.646 403.983 274.097C403.983 294.525 413.083 306.806 433.126 306.806C441.19 306.806 448.562 305.153 455.818 299.367L455.126 307.514C448.1 312.473 440.728 313.89 432.663 313.89C407.322 313.89 396.263 297.948 396.263 273.623C396.263 245.52 409.394 220.84 437.962 220.84C461.116 220.845 469.41 235.368 469.41 254.852ZM425.752 262.646L424.716 273.273C424.024 279.414 425.868 283.783 431.282 283.901C436.58 284.019 439.46 279.769 440.151 273.391L441.303 262.054C441.878 256.505 439.69 252.608 434.623 252.608C429.322 252.491 426.444 256.268 425.752 262.646Z" fill="#263238"/>
<path d="M319.254 281.416V421.918H555.712V281.416L437.484 351.668L319.254 281.416Z" fill="url(#paint2_linear_523_14828)" stroke="#263238" stroke-miterlimit="10" stroke-linecap="round" stroke-linejoin="round"/>
<path d="M319.254 421.918L437.484 351.668L555.712 421.918" stroke="#263238" stroke-miterlimit="10" stroke-linecap="round" stroke-linejoin="round"/>
<path d="M500.748 483.625H369.096V512.172H500.748V483.625Z" fill="url(#paint3_linear_523_14828)" stroke="#263238" stroke-miterlimit="10" stroke-linecap="round" stroke-linejoin="round"/>
<path d="M500.748 523.852H369.096V552.4H500.748V523.852Z" fill="url(#paint4_linear_523_14828)" stroke="#263238" stroke-miterlimit="10" stroke-linecap="round" stroke-linejoin="round"/>
<path d="M321.044 241.188L332.894 250.42" stroke="#263238" stroke-miterlimit="10" stroke-linecap="round" stroke-linejoin="round"/>
<path d="M311.257 233.564L316.085 237.324" stroke="#263238" stroke-miterlimit="10" stroke-linecap="round" stroke-linejoin="round"/>
<path d="M326.835 174.122L346.741 193.641" stroke="#263238" stroke-miterlimit="10" stroke-linecap="round" stroke-linejoin="round"/>
<path d="M389.235 174.389L391.744 182.108" stroke="#263238" stroke-miterlimit="10" stroke-linecap="round" stroke-linejoin="round"/>
<path d="M386.552 166.139L388.024 170.663" stroke="#263238" stroke-miterlimit="10" stroke-linecap="round" stroke-linejoin="round"/>
<path d="M558.778 233.564L537.141 250.42" stroke="#263238" stroke-miterlimit="10" stroke-linecap="round" stroke-linejoin="round"/>
<path d="M536.557 180.635L523.294 193.641" stroke="#263238" stroke-miterlimit="10" stroke-linecap="round" stroke-linejoin="round"/>
<path d="M543.2 174.122L538.759 178.477" stroke="#263238" stroke-miterlimit="10" stroke-linecap="round" stroke-linejoin="round"/>
<path d="M483.484 166.139L478.29 182.108" stroke="#263238" stroke-miterlimit="10" stroke-linecap="round" stroke-linejoin="round"/>
<path d="M437.613 166.139V178.559" stroke="#263238" stroke-miterlimit="10" stroke-linecap="round" stroke-linejoin="round"/>
<path d="M630.248 701.881C654.673 701.881 674.473 696.469 674.473 689.791C674.473 683.114 654.673 677.702 630.248 677.702C605.823 677.702 586.022 683.114 586.022 689.791C586.022 696.469 605.823 701.881 630.248 701.881Z" fill="url(#paint5_linear_523_14828)"/>
<path opacity="0.5" d="M630.248 701.881C654.673 701.881 674.473 696.469 674.473 689.791C674.473 683.114 654.673 677.702 630.248 677.702C605.823 677.702 586.022 683.114 586.022 689.791C586.022 696.469 605.823 701.881 630.248 701.881Z" fill="white"/>
<path d="M564.1 428.948C563.22 425.185 565.388 421.186 569.287 420.646C574.698 419.896 581.349 427.342 583.453 431.851C583.634 432.242 585.794 438.672 585.694 438.673C585.687 438.673 576.101 438.896 572.183 437.141C568.845 435.646 564.999 432.791 564.1 428.948ZM703.148 411.851C702.351 415.717 698.581 418.678 695.285 420.265C691.905 421.891 684.179 422.131 682.262 422.165C681.219 423.43 680.118 424.793 678.933 426.327C676.871 429.043 674.567 432.128 672.283 435.654C671.673 436.592 671.053 437.626 670.434 438.618C671.815 437.169 673.737 435.208 673.944 435.038C677.757 431.923 686.911 428.199 691.461 431.298C694.738 433.528 694.985 438.097 692.591 441.088C690.146 444.142 685.469 444.989 681.83 444.84C678.033 444.685 670.908 441.138 669.357 440.345C668.019 442.562 666.696 444.873 665.454 447.363C663.303 451.659 661.227 456.353 659.727 461.401C659.88 461.482 659.852 461.466 660.005 461.548C661.119 460.051 663.532 456.964 663.758 456.732C667.214 453.206 675.914 448.476 680.768 451.043C684.265 452.891 685 457.404 682.939 460.647C680.835 463.96 676.278 465.327 672.645 465.589C668.459 465.889 659.799 462.54 659.472 462.412C658.127 467.139 657.096 472.099 656.324 477.197C655.76 480.889 655.337 484.654 654.948 488.435C655.704 487.363 658.868 483.308 659.128 483.041C662.584 479.515 671.285 474.785 676.137 477.352C679.635 479.2 680.37 483.713 678.31 486.955C676.206 490.267 671.649 491.635 668.016 491.896C663.929 492.19 655.616 489.019 654.918 488.749C654.741 490.466 654.559 492.18 654.397 493.904C653.861 499.528 653.35 505.167 652.679 510.718C652.446 512.641 652.148 514.527 651.858 516.418C653.039 514.847 655.24 512.03 655.457 511.811C658.914 508.285 667.614 503.555 672.468 506.12C675.965 507.97 676.699 512.481 674.639 515.725C672.535 519.037 667.978 520.404 664.345 520.666C660.695 520.929 653.649 518.416 651.676 517.679C651.169 520.821 650.6 523.927 649.897 526.957C649.567 528.256 649.31 529.606 648.923 530.834C648.56 532.081 648.199 533.316 647.842 534.539C647.018 537.04 646.26 539.37 645.434 541.677C645.024 542.847 644.611 543.942 644.2 545.073C645.164 543.298 646.736 540.511 646.908 540.274C649.803 536.253 657.704 530.225 662.882 532.007C666.612 533.292 668.005 537.638 666.448 541.163C664.857 544.762 660.555 546.823 657.001 547.647C653.085 548.553 644.68 546.803 643.652 546.583C642.63 549.348 641.61 552.029 640.609 554.519C637.462 562.41 634.548 568.857 632.448 573.344C632.33 573.598 632.221 573.823 632.108 574.065H647.42L642.136 679.762C641.734 687.795 635.264 694.097 627.417 694.097C619.57 694.097 613.1 687.795 612.698 679.762L607.414 574.065H623.848C623.771 573.335 623.688 572.558 623.591 571.691C623.041 566.805 622.158 559.826 620.728 551.514C620.322 549.115 619.85 546.581 619.342 543.98C618.282 544.125 609.792 545.223 605.957 544.021C602.474 542.929 598.333 540.545 597.01 536.834C595.714 533.2 597.419 528.973 601.231 527.976C606.523 526.594 613.963 533.208 616.558 537.441C616.724 537.712 618.337 541.14 619.123 542.908C618.811 541.338 618.505 539.777 618.152 538.148C617.665 535.8 617.072 533.336 616.512 530.944C616.178 529.715 615.84 528.473 615.499 527.22C615.18 525.947 614.725 524.775 614.34 523.529C613.736 521.718 613.025 519.882 612.32 518.047C610.018 518.702 603.231 520.501 599.742 519.98C596.138 519.442 591.692 517.73 589.835 514.266C588.016 510.873 589.078 506.43 592.698 504.854C597.724 502.666 606.057 508.048 609.247 511.828C609.35 511.95 609.943 512.821 610.638 513.86C609.896 512.091 609.162 510.321 608.351 508.555C606.054 503.54 603.559 498.506 601.082 493.45C600.566 492.396 600.065 491.336 599.554 490.28C597.619 490.841 590.285 492.858 586.626 492.313C583.022 491.775 578.577 490.063 576.72 486.599C574.901 483.208 575.963 478.764 579.584 477.187C584.61 474.999 592.943 480.38 596.135 484.161C596.248 484.296 596.954 485.337 597.735 486.509C596.428 483.742 595.157 480.968 593.981 478.175C591.917 473.293 590.143 468.368 588.793 463.46C588.112 463.665 579.559 466.208 575.494 465.6C571.89 465.061 567.444 463.348 565.587 459.886C563.768 456.494 564.83 452.051 568.452 450.474C573.477 448.286 581.811 453.669 585.002 457.448C585.228 457.716 587.757 461.502 588.616 462.886C588.6 462.827 588.577 462.768 588.561 462.711C587.191 457.544 586.504 452.438 586.081 447.564C585.654 442.701 585.654 438.085 585.762 433.838C585.86 429.588 586.204 425.708 586.536 422.276C586.73 420.42 586.94 418.724 587.154 417.145C587.135 417.159 587.058 417.212 587.058 417.212C586.975 417.27 585.142 410.734 585.074 410.307C584.272 405.376 585.547 395.366 590.399 392.796C593.893 390.944 597.909 392.943 599.295 396.542C600.711 400.217 599.16 404.819 597.265 408.006C595.322 411.273 589.006 415.843 587.425 416.958C587.235 418.601 587.052 420.361 586.889 422.311C586.631 425.742 586.37 429.618 586.362 433.85C586.357 434.977 586.397 436.191 586.414 437.368C586.786 435.379 587.334 432.655 587.415 432.397C588.919 427.642 594.552 419.361 600.013 419.371C603.947 419.378 606.612 423.049 606.225 426.899C605.828 430.83 602.383 434.18 599.268 436.115C596.018 438.133 588.166 439.204 586.446 439.419C586.524 442.023 586.665 444.7 586.969 447.479C587.486 452.281 588.283 457.37 589.747 462.428C589.918 462.409 589.886 462.414 590.057 462.394C590.181 460.517 590.532 456.574 590.597 456.252C591.582 451.357 596.294 442.49 601.723 441.886C605.635 441.45 608.676 444.799 608.703 448.669C608.73 452.62 605.667 456.339 602.777 458.611C599.447 461.231 590.42 463.334 590.081 463.412C591.502 468.116 593.31 472.835 595.411 477.523C596.928 480.924 598.602 484.301 600.312 487.675C600.365 486.354 600.821 481.182 600.896 480.813C601.881 475.917 606.593 467.051 612.022 466.447C615.934 466.01 618.975 469.36 619.002 473.229C619.029 477.18 615.966 480.899 613.076 483.172C609.825 485.729 601.186 487.785 600.456 487.955C601.234 489.488 602.004 491.02 602.794 492.55C605.375 497.543 607.983 502.535 610.409 507.545C611.249 509.28 612.016 511.022 612.792 512.764C612.931 510.785 613.253 507.192 613.315 506.886C614.3 501.991 619.012 493.125 624.441 492.52C628.353 492.086 631.394 495.434 631.421 499.303C631.448 503.254 628.384 506.973 625.494 509.246C622.592 511.529 615.363 513.417 613.321 513.921C614.59 516.828 615.785 519.739 616.829 522.664C617.254 523.936 617.765 525.205 618.103 526.449C618.471 527.694 618.836 528.927 619.197 530.15C619.855 532.704 620.477 535.075 621.03 537.467C621.318 538.674 621.562 539.82 621.828 540.996C621.677 538.97 621.489 535.758 621.503 535.462C621.753 530.47 625.101 520.975 630.377 519.535C634.179 518.498 637.681 521.334 638.278 525.154C638.355 525.64 638.382 526.13 638.368 526.62C640.657 530.414 641.807 535.813 641.733 539.133C641.726 539.454 641.224 543.225 640.929 545.145C641.513 543.658 642.098 542.184 642.681 540.625C643.537 538.391 644.369 536.001 645.19 533.689C645.572 532.475 645.958 531.248 646.349 530.009C646.768 528.767 647.02 527.532 647.369 526.275C647.841 524.424 648.234 522.491 648.635 520.561C646.363 519.806 639.732 517.47 637.102 515.061C634.386 512.574 631.599 508.631 631.913 504.694C632.221 500.836 635.498 497.729 639.367 498.463C644.737 499.481 648.791 508.68 649.417 513.638C649.438 513.8 649.463 514.86 649.484 516.12C649.817 514.225 650.157 512.333 650.433 510.401C651.215 504.919 651.845 499.31 652.5 493.692C652.636 492.522 652.79 491.354 652.93 490.184C651.016 489.558 643.811 487.092 641.055 484.569C638.339 482.082 635.553 478.139 635.868 474.201C636.176 470.345 639.453 467.237 643.322 467.971C648.692 468.989 652.745 478.188 653.372 483.146C653.394 483.324 653.423 484.592 653.444 486.01C653.842 482.965 654.276 479.93 654.797 476.937C655.704 471.698 656.874 466.587 658.39 461.729C657.712 461.515 649.208 458.799 646.146 455.994C643.43 453.507 640.644 449.564 640.959 445.626C641.269 441.77 644.544 438.662 648.413 439.396C653.783 440.414 657.837 449.615 658.463 454.572C658.508 454.924 658.578 459.512 658.551 461.151C658.57 461.093 658.581 461.031 658.6 460.973C660.237 455.888 662.412 451.241 664.683 446.937C666.943 442.639 669.428 438.788 671.803 435.307C674.17 431.817 676.547 428.776 678.67 426.101C679.832 424.662 680.919 423.368 681.948 422.172C681.925 422.172 681.831 422.173 681.831 422.173C681.731 422.173 683.72 415.686 683.892 415.291C685.877 410.724 692.328 403.096 697.757 403.696C701.656 404.127 703.929 408.065 703.148 411.851ZM640.526 546.163C639.598 545.7 632.436 542.07 629.642 538.967C626.433 540.805 622.812 542.307 622.174 542.566C622.809 545.449 623.402 548.264 623.908 550.906C625.53 559.266 626.57 566.292 627.232 571.222C627.372 572.273 627.492 573.209 627.599 574.065H627.962C628.327 573.344 628.719 572.562 629.158 571.678C631.327 567.292 634.348 560.972 637.628 553.23C638.58 551.001 639.55 548.62 640.526 546.163ZM669.135 439.303C669.219 439.356 670.879 432.773 670.936 432.345C671.609 427.394 670.069 417.422 665.152 414.987C661.61 413.232 657.649 415.343 656.358 418.979C655.039 422.693 656.711 427.248 658.69 430.384C661.015 434.062 669.129 439.298 669.135 439.303Z" fill="#263238"/>
<path d="M233.318 707.86C271.857 707.86 303.099 700.387 303.099 691.169C303.099 681.951 271.857 674.478 233.318 674.478C194.779 674.478 163.538 681.951 163.538 691.169C163.538 700.387 194.779 707.86 233.318 707.86Z" fill="url(#paint6_linear_523_14828)"/>
<path opacity="0.5" d="M233.318 707.86C271.857 707.86 303.099 700.387 303.099 691.169C303.099 681.951 271.857 674.478 233.318 674.478C194.779 674.478 163.538 681.951 163.538 691.169C163.538 700.387 194.779 707.86 233.318 707.86Z" fill="white"/>
<path d="M259.053 297.388C259.053 297.388 268.617 303.107 270.211 314.545C271.805 325.983 276.423 375.039 276.423 375.039C276.423 375.039 292.813 383.117 293.324 386.441C293.836 389.765 293.786 399.953 280.006 406.678C266.226 413.402 261.242 406.961 254.271 392.977C247.301 378.993 259.053 297.388 259.053 297.388Z" fill="#263238" stroke="#263238" stroke-miterlimit="10" stroke-linecap="round" stroke-linejoin="round"/>
<path d="M293.836 389.765C293.836 389.765 290.673 398.198 284.58 398.198C278.486 398.198 280.598 385.364 283.645 382.24C286.693 379.116 289.918 376.379 294.706 380.841C299.495 385.302 293.836 389.765 293.836 389.765Z" fill="white" stroke="#263238" stroke-miterlimit="10" stroke-linecap="round" stroke-linejoin="round"/>
<path d="M273.994 378.729C273.994 378.729 266.21 380.644 264.653 389.58" stroke="#263238" stroke-miterlimit="10" stroke-linecap="round" stroke-linejoin="round"/>
<path d="M300.365 375.485C300.365 375.485 300.365 368.344 300.365 365.222C300.365 362.098 302.541 357.635 299.93 357.635C297.319 357.635 295.576 361.205 295.576 363.436C295.576 365.666 295.576 369.237 295.576 369.237L300.365 375.485Z" fill="white" stroke="#263238" stroke-miterlimit="10" stroke-linecap="round" stroke-linejoin="round"/>
<path d="M230.889 667.131C230.889 667.131 256.876 675.875 260.247 676.486C263.62 677.095 262.627 680.755 258.66 683.399C254.692 686.043 248.742 686.857 234.657 684.823C220.572 682.79 217.993 680.146 217.002 680.553C216.01 680.96 213.629 682.992 210.258 681.367C206.885 679.739 205.299 673.233 208.67 670.182C212.041 667.131 230.889 667.131 230.889 667.131Z" fill="#263238" stroke="#263238" stroke-miterlimit="10" stroke-linecap="round" stroke-linejoin="round"/>
<path d="M262.28 678.53C254.632 684.79 234.531 682.667 224.492 679.827C216.924 677.687 210.518 678.097 207.631 678.468C208.241 679.762 209.15 680.829 210.259 681.363C213.632 682.991 216.012 680.956 217.004 680.55C217.995 680.143 220.574 682.786 234.659 684.819C248.743 686.854 254.694 686.04 258.661 683.396C260.982 681.85 262.275 679.958 262.28 678.53Z" fill="#263238" stroke="#263238" stroke-miterlimit="10" stroke-linecap="round" stroke-linejoin="round"/>
<path d="M212.837 673.435C212.837 673.435 221.963 681.976 229.301 686.246C236.642 690.515 239.219 693.363 235.649 697.633C232.078 701.903 229.301 700.886 214.622 697.633C199.943 694.38 191.214 688.076 191.214 688.076C191.214 688.076 190.62 690.108 185.858 688.685C181.097 687.262 181.494 683.398 182.685 680.144C183.875 676.891 199.149 666.724 212.837 673.435Z" fill="#263238" stroke="#263238" stroke-miterlimit="10" stroke-linecap="round" stroke-linejoin="round"/>
<path d="M235.648 697.633C236.198 696.975 236.586 696.354 236.849 695.752C235.094 696.72 232.663 697.672 229.83 697.71C224.012 697.787 205.624 691.872 198.15 687.492C192.006 683.894 184.432 683.992 181.924 684.141C182.009 686.095 183 687.832 185.86 688.687C190.621 690.11 191.216 688.077 191.216 688.077C191.216 688.077 199.944 694.381 214.624 697.635C229.301 700.886 232.078 701.903 235.648 697.633Z" fill="#263238" stroke="#263238" stroke-miterlimit="10" stroke-linecap="round" stroke-linejoin="round"/>
<path d="M257.072 458.906C257.072 458.906 255.486 483.308 249.931 520.316C244.376 557.325 230.094 584.98 229.3 599.011C228.506 613.042 228.903 640.698 228.903 646.391C228.903 652.084 230.688 650.254 230.887 655.339C231.085 660.422 230.887 667.133 230.887 667.133C230.887 667.133 224.738 670.183 220.77 671.2C216.803 672.216 214.82 672.42 214.82 672.42C214.82 672.42 215.614 674.048 211.447 663.677C207.282 653.306 205.497 635.209 205.497 617.518C205.497 599.827 213.035 568.308 215.811 550.415C218.588 532.521 226.523 486.767 227.317 477.21C228.111 467.652 231.087 458.298 231.087 458.298C231.087 458.298 238.228 459.518 246.163 458.298C254.098 457.076 257.072 458.906 257.072 458.906Z" fill="#263238" stroke="#263238" stroke-miterlimit="10" stroke-linecap="round" stroke-linejoin="round"/>
<path d="M175.941 456.058C175.941 456.058 180.503 543.699 177.527 557.934C174.551 572.168 172.765 574.609 172.965 586.606C173.162 598.603 175.147 645.577 177.527 659.404C179.906 673.231 182.288 673.842 181.891 677.502C181.494 681.162 182.685 683.806 183.477 684.416C184.271 685.025 184.072 687.466 194.982 683.399C205.893 679.332 215.414 674.451 215.414 674.451C215.414 674.451 216.009 671.198 216.009 661.641C216.009 652.084 211.248 644.966 211.248 637.646C211.248 630.325 209.662 597.384 215.612 574.405C221.562 551.428 229.3 502.014 231.283 487.576C233.266 473.138 234.059 465.004 234.059 465.004C234.059 465.004 219.777 465.206 202.916 460.327C186.054 455.446 175.54 452.803 175.144 454.227C174.75 455.652 175.941 456.058 175.941 456.058Z" fill="#263238" stroke="#263238" stroke-miterlimit="10" stroke-linecap="round" stroke-linejoin="round"/>
<path d="M218.554 665.687C218.405 668.069 218.405 669.747 218.405 669.747" stroke="white" stroke-width="0.75" stroke-miterlimit="10" stroke-linecap="round" stroke-linejoin="round"/>
<path d="M234.209 479.87C234.209 479.87 225.775 525.012 220.979 557.044C216.183 589.077 207.79 621.108 217.381 652.036C217.381 652.036 219.664 656.092 219.033 660.741" stroke="white" stroke-width="0.75" stroke-miterlimit="10" stroke-linecap="round" stroke-linejoin="round"/>
<path d="M196.741 273.546C196.741 273.546 164.057 286.782 157.512 290.239C150.966 293.697 149.898 300.025 149.698 304.498C149.499 308.971 167.398 390.526 167.398 390.526L162.847 458.499C162.847 458.499 207.876 474.969 217.2 475.376C226.523 475.783 233.466 475.783 233.466 475.783L238.228 463.786L240.807 475.174C240.807 475.174 248.939 472.123 256.28 468.667C263.62 465.21 272.546 456.059 273.141 456.263C273.736 456.466 262.826 401.971 262.826 401.971C262.826 401.971 264.455 307.073 261.876 299.346C259.297 291.618 227.581 279.112 227.581 279.112C227.581 279.112 216.012 278.131 209.465 277.115C202.919 276.097 198.526 272.53 196.741 273.546Z" fill="#263238" stroke="#263238" stroke-miterlimit="10" stroke-linecap="round" stroke-linejoin="round"/>
<path d="M177.57 464.182C177.57 464.182 196.227 471.069 206.713 473.223C217.2 475.376 232.022 475.581 232.022 475.581L238.228 463.785L240.807 475.172L254.265 469.685" stroke="white" stroke-width="0.75" stroke-miterlimit="10" stroke-linecap="round" stroke-linejoin="round"/>
<path d="M261.508 315.741C261.508 315.741 266.859 341.058 266.037 355.828" stroke="white" stroke-width="0.75" stroke-miterlimit="10" stroke-linecap="round" stroke-linejoin="round"/>
<path d="M209.464 277.115C202.917 276.099 198.156 275.488 196.372 276.505C196.372 276.505 195.995 276.749 195.328 277.174L217.995 356.013L226.128 368.621L232.674 349.709C232.674 349.709 234.856 320.021 234.856 307.006C234.856 298.21 234.042 289.244 233.513 284.345C230.398 282.891 228.31 281.994 228.31 281.994C228.31 281.994 216.011 278.131 209.464 277.115Z" fill="white" stroke="#263238" stroke-miterlimit="10" stroke-linecap="round" stroke-linejoin="round"/>
<path d="M211.448 299.685L221.962 313.107L217.995 356.013L226.128 368.621C226.128 368.621 231.88 349.506 231.88 350.116C231.88 350.725 225.136 310.87 225.136 310.87L231.88 298.466L224.542 284.435L211.448 299.685Z" fill="#263238" stroke="#263238" stroke-miterlimit="10" stroke-linecap="round" stroke-linejoin="round"/>
<path d="M225.334 291.349L234.855 307.006L234.458 280.775L227.516 273.862L225.334 291.349Z" fill="white" stroke="#263238" stroke-miterlimit="10" stroke-linecap="round" stroke-linejoin="round"/>
<path d="M203.117 243.156C203.117 243.156 203.314 275.283 203.314 276.708C203.314 278.131 223.944 301.313 223.944 301.313L232.076 265.523C232.076 265.523 216.604 260.44 212.239 253.933C207.878 247.425 204.108 241.732 203.117 243.156Z" fill="white" stroke="#263238" stroke-miterlimit="10" stroke-linecap="round" stroke-linejoin="round"/>
<path d="M201.926 266.744L220.572 288.502L209.861 309.852L194.785 275.285L201.926 266.744Z" fill="white" stroke="#263238" stroke-miterlimit="10" stroke-linecap="round" stroke-linejoin="round"/>
<path d="M220.572 288.502L223.945 301.313L216.605 296.636L220.572 288.502Z" fill="white" stroke="#263238" stroke-miterlimit="10" stroke-linecap="round" stroke-linejoin="round"/>
<path d="M225.299 395.276L225.429 394.426L226.743 385.877L219.552 387.453L225.299 395.276Z" fill="white" stroke="#263238" stroke-miterlimit="10" stroke-linecap="round" stroke-linejoin="round"/>
<path d="M220.904 398.518L222.678 395.098L218.5 395.449L220.904 398.518Z" fill="url(#paint7_linear_523_14828)" stroke="#263238" stroke-miterlimit="10" stroke-linecap="round" stroke-linejoin="round"/>
<path d="M218.231 375.724C219.018 374.99 228.157 373.907 232.057 372.817C235.958 371.727 245.528 371.362 245.528 371.362L263.963 380.085C263.963 380.085 266.445 381.539 263.253 382.629C260.062 383.719 247.301 378.995 247.301 378.995C247.301 378.995 252.972 385.173 252.972 386.627C252.972 388.082 244.109 395.35 241.274 396.439C238.438 397.529 232.056 396.439 230.992 396.077C229.929 395.714 228.157 393.533 230.639 393.533C233.12 393.533 233.12 393.533 233.12 393.533C233.12 393.533 228.512 391.353 226.03 390.626C223.548 389.899 221.067 386.992 221.067 386.992H216.458C216.458 386.988 214.33 379.358 218.231 375.724Z" fill="white" stroke="#263238" stroke-miterlimit="10" stroke-linecap="round" stroke-linejoin="round"/>
<path d="M240.92 380.448C240.92 380.448 248.01 385.899 248.01 387.353C248.01 388.807 247.656 391.714 247.656 391.714" stroke="#263238" stroke-miterlimit="10" stroke-linecap="round" stroke-linejoin="round"/>
<path d="M236.31 384.082C236.31 384.082 240.918 387.716 241.983 389.533C243.046 391.35 241.274 396.438 241.274 396.438" stroke="#263238" stroke-miterlimit="10" stroke-linecap="round" stroke-linejoin="round"/>
<path d="M247.301 378.993L244.109 376.449" stroke="#263238" stroke-miterlimit="10" stroke-linecap="round" stroke-linejoin="round"/>
<path d="M215.008 374.405L222.286 374.671C222.286 374.671 220.195 377.609 221.428 384.05C222.664 390.492 225.297 395.276 225.297 395.276L216.608 395.756C216.611 395.756 207.237 384.24 215.008 374.405Z" fill="white" stroke="#263238" stroke-miterlimit="10" stroke-linecap="round" stroke-linejoin="round"/>
<path d="M185.39 333.29L180.958 375.951L216.246 374.206C216.246 374.206 214.679 383.503 215.988 388.761C217.297 394.018 220.902 398.518 220.902 398.518C220.902 398.518 207.052 404.706 188.715 406.861C179.784 407.91 162.462 408.904 156.239 408.5C150.11 408.105 145.223 403.129 144.822 396.846C143.152 370.622 147.947 302.893 148.38 298.373C148.922 292.736 155.188 290.672 158.373 291.038C161.558 291.404 172.177 298.826 176.203 308.445" fill="#263238"/>
<path d="M185.39 333.29L180.958 375.951L216.246 374.206C216.246 374.206 214.679 383.503 215.988 388.761C217.297 394.018 220.902 398.518 220.902 398.518C220.902 398.518 207.052 404.706 188.715 406.861C179.784 407.91 162.462 408.904 156.239 408.5C150.11 408.105 145.223 403.129 144.822 396.846C143.152 370.622 147.947 302.893 148.38 298.373C148.922 292.736 155.188 290.672 158.373 291.038C161.558 291.404 172.177 298.826 176.203 308.445" stroke="#263238" stroke-miterlimit="10" stroke-linecap="round" stroke-linejoin="round"/>
<path d="M185.24 341.145L180.96 375.952L215.008 374.405" stroke="white" stroke-width="0.75" stroke-miterlimit="10" stroke-linecap="round" stroke-linejoin="round"/>
<path d="M180.96 375.952C180.96 375.952 170.285 377.31 165.683 382.814" stroke="white" stroke-width="0.75" stroke-miterlimit="10" stroke-linecap="round" stroke-linejoin="round"/>
<path d="M166.834 376.917C166.834 376.917 157.63 381.24 156.097 387.529" stroke="white" stroke-width="0.75" stroke-miterlimit="10" stroke-linecap="round" stroke-linejoin="round"/>
<path d="M220.136 399.716C220.136 399.716 185.624 407.577 170.285 407.971" stroke="white" stroke-width="0.75" stroke-miterlimit="10" stroke-linecap="round" stroke-linejoin="round"/>
<path d="M257.419 212.709C257.419 212.709 256.299 223.66 252.459 245.473C248.621 267.285 243.899 279.223 236.055 277.979C228.211 276.736 210.441 268.903 206.601 263.234C202.761 257.564 202.697 249.907 202.697 249.907C202.697 249.907 196.168 250.353 194.97 242.28C193.771 234.206 197.579 229.745 200.754 228.886C203.93 228.026 210.145 231.655 211.571 224.688C212.999 217.721 206.851 211.417 211.477 206.9C216.101 202.384 227.863 200.84 238.566 203.025C249.268 205.211 256.976 211.802 256.976 211.802L257.419 212.709Z" fill="white" stroke="#263238" stroke-miterlimit="10" stroke-linecap="round" stroke-linejoin="round"/>
<path d="M237.123 238.682V242.52C237.123 242.52 232.131 245.719 228.386 240.602" stroke="#263238" stroke-miterlimit="10" stroke-linecap="round" stroke-linejoin="round"/>
<path d="M252.097 240.592V244.43C252.097 244.43 249.288 246.229 246.304 244.969" stroke="#263238" stroke-miterlimit="10" stroke-linecap="round" stroke-linejoin="round"/>
<path d="M242.115 260.433C242.115 260.433 237.746 259.154 234.002 257.875" stroke="#263238" stroke-miterlimit="10" stroke-linecap="round" stroke-linejoin="round"/>
<path d="M245.217 240.616C245.217 240.616 247.274 252.981 246.566 254.71C245.858 256.438 240.242 254.036 240.242 254.036" stroke="#263238" stroke-miterlimit="10" stroke-linecap="round" stroke-linejoin="round"/>
<path d="M227 229.602C227 229.602 230.949 224.34 238.175 227.95" stroke="#263238" stroke-miterlimit="10" stroke-linecap="round" stroke-linejoin="round"/>
<path d="M246.588 230.538C246.588 230.538 251.161 227.458 253.315 232.402" stroke="#263238" stroke-miterlimit="10" stroke-linecap="round" stroke-linejoin="round"/>
<path d="M263.934 336.003L246.045 397.127C244.993 400.722 247.846 404.258 251.488 403.871L281.608 400.676C283.607 400.464 285.302 399.075 285.944 397.124L304.634 340.267C305.732 336.929 303.379 333.449 299.944 333.331L269.022 332.256C266.695 332.176 264.604 333.713 263.934 336.003Z" fill="url(#paint8_linear_523_14828)" stroke="#263238" stroke-miterlimit="10" stroke-linecap="round" stroke-linejoin="round"/>
<path d="M297.754 368.344C297.754 368.344 289.918 363.882 286.872 364.774C283.824 365.666 284.259 368.791 284.259 368.791L294.706 373.253C294.706 373.253 279.906 370.575 277.729 370.575C275.553 370.575 274.246 374.145 276.423 375.037C276.441 375.045 276.46 375.052 276.479 375.06C278.808 375.974 291.223 378.608 291.223 378.608C291.223 378.608 275.553 375.037 275.116 377.269C274.681 379.5 279.904 380.84 279.904 380.84C279.904 380.84 279.034 384.41 280.775 384.856C282.515 385.302 288.611 387.98 288.611 387.98C288.611 387.98 290.787 388.872 293.834 389.765C296.882 390.657 299.493 381.286 300.8 377.715C302.107 374.147 297.754 368.344 297.754 368.344Z" fill="white" stroke="#263238" stroke-miterlimit="10" stroke-linecap="round" stroke-linejoin="round"/>
<path d="M279.906 380.84L289.483 383.964" stroke="#263238" stroke-miterlimit="10" stroke-linecap="round" stroke-linejoin="round"/>
<path d="M202.852 228.466C202.852 228.466 207.588 232.35 208.061 234.293C208.535 236.236 209.957 238.662 212.324 236.236C214.692 233.807 213.744 230.409 218.481 225.069C223.217 219.727 217.061 216.33 217.061 211.959C217.061 207.59 225.112 204.676 233.164 205.647C241.215 206.618 241.688 210.987 245.479 211.472C249.268 211.958 256.975 211.799 256.975 211.799L256.372 216.812C256.372 216.812 259.688 217.783 266.319 210.985C272.95 204.188 262.056 196.905 262.056 196.905C262.056 196.905 262.056 195.935 254.005 187.194C245.954 178.456 236.954 177.483 220.378 181.854C203.8 186.224 193.382 197.39 190.54 202.247C187.698 207.101 198.118 228.464 198.118 228.464H202.852V228.466Z" fill="#263238" stroke="#263238" stroke-miterlimit="10" stroke-linecap="round" stroke-linejoin="round"/>
<path d="M245.479 211.472C245.479 211.472 253.53 210.016 255.425 201.761C257.32 193.508 253.057 186.225 243.112 183.312" stroke="white" stroke-miterlimit="10" stroke-linecap="round" stroke-linejoin="round"/>
<path d="M244.058 208.56C244.058 208.56 246.427 193.995 235.534 190.111C224.64 186.227 209.011 193.51 200.958 200.792" stroke="white" stroke-miterlimit="10" stroke-linecap="round" stroke-linejoin="round"/>
<path d="M200.502 219.177C199.046 220.963 198.116 222.154 198.116 222.154" stroke="white" stroke-miterlimit="10" stroke-linecap="round" stroke-linejoin="round"/>
<path d="M227.481 205.647C227.481 205.647 217.257 201.351 211.476 206.899C209.059 209.217 206.328 212.263 203.968 215.023" stroke="white" stroke-miterlimit="10" stroke-linecap="round" stroke-linejoin="round"/>
<defs>
<linearGradient id="paint0_linear_523_14828" x1="599.886" y1="111.112" x2="599.886" y2="604.322" gradientUnits="userSpaceOnUse">
<stop stop-color="#F2C66D"/>
<stop offset="1" stop-color="#8C733F"/>
</linearGradient>
<linearGradient id="paint1_linear_523_14828" x1="437.483" y1="190.866" x2="437.483" y2="369.364" gradientUnits="userSpaceOnUse">
<stop stop-color="#F2C66D"/>
<stop offset="1" stop-color="#8C733F"/>
</linearGradient>
<linearGradient id="paint2_linear_523_14828" x1="437.483" y1="281.416" x2="437.483" y2="421.918" gradientUnits="userSpaceOnUse">
<stop stop-color="#F2C66D"/>
<stop offset="1" stop-color="#8C733F"/>
</linearGradient>
<linearGradient id="paint3_linear_523_14828" x1="434.922" y1="483.625" x2="434.922" y2="512.172" gradientUnits="userSpaceOnUse">
<stop stop-color="#F2C66D"/>
<stop offset="1" stop-color="#8C733F"/>
</linearGradient>
<linearGradient id="paint4_linear_523_14828" x1="434.922" y1="523.852" x2="434.922" y2="552.4" gradientUnits="userSpaceOnUse">
<stop stop-color="#F2C66D"/>
<stop offset="1" stop-color="#8C733F"/>
</linearGradient>
<linearGradient id="paint5_linear_523_14828" x1="630.248" y1="677.702" x2="630.248" y2="701.881" gradientUnits="userSpaceOnUse">
<stop stop-color="#F2C66D"/>
<stop offset="1" stop-color="#8C733F"/>
</linearGradient>
<linearGradient id="paint6_linear_523_14828" x1="233.318" y1="674.478" x2="233.318" y2="707.86" gradientUnits="userSpaceOnUse">
<stop stop-color="#F2C66D"/>
<stop offset="1" stop-color="#8C733F"/>
</linearGradient>
<linearGradient id="paint7_linear_523_14828" x1="220.589" y1="395.098" x2="220.589" y2="398.518" gradientUnits="userSpaceOnUse">
<stop stop-color="#F2C66D"/>
<stop offset="1" stop-color="#8C733F"/>
</linearGradient>
<linearGradient id="paint8_linear_523_14828" x1="275.365" y1="332.253" x2="275.365" y2="403.9" gradientUnits="userSpaceOnUse">
<stop stop-color="#F2C66D"/>
<stop offset="1" stop-color="#8C733F"/>
</linearGradient>
</defs>
</svg>
