<svg width="274" height="57" viewBox="0 0 274 57" fill="none" xmlns="http://www.w3.org/2000/svg">
<g clip-path="url(#clip0_510_507)">
<path d="M0 41.5851L8.13158 45.9468V24.6835L0 29.5904V41.5851Z" fill="#000001"/>
<path d="M8.13158 20.3218L0 25.2287V15.4149L8.13158 11.0532V20.3218Z" fill="#000001"/>
<path d="M22.2263 2.875L12.4684 8.32713V34.4973L22.2263 39.9495L30.3579 35.0426L20.6 29.5904V12.6888L22.2263 12.1436L44.4526 24.6835V15.9601L22.2263 2.875Z" fill="#000001"/>
<path d="M12.4684 48.1277V38.859L22.2263 44.8564L38.4895 35.0426L24.3947 26.8644V18.141L44.4526 29.5904V41.0399L22.2263 54.125L12.4684 48.1277Z" fill="#000001"/>
<path d="M62.4183 19.5121V37.4367H59.4526V19.5121H62.4183Z" fill="#000001"/>
<path d="M74.137 30.1644C74.137 29.6694 74.0532 29.217 73.8857 28.8073C73.7349 28.3976 73.5171 28.0476 73.2322 27.7574C72.9642 27.4672 72.6458 27.2453 72.2772 27.0916C71.9086 26.938 71.5149 26.8612 71.096 26.8612C70.6436 26.8612 70.2247 26.9465 69.8394 27.1173C69.454 27.288 69.1189 27.527 68.8341 27.8342C68.5492 28.1244 68.3231 28.4744 68.1555 28.8841C67.988 29.2767 67.9042 29.7035 67.9042 30.1644V37.4367H65.0642V24.6334H67.9042V25.965C68.4068 25.4187 68.9681 24.9919 69.5881 24.6846C70.2247 24.3774 70.9201 24.2237 71.674 24.2237C72.3945 24.2237 73.0731 24.3603 73.7098 24.6334C74.3464 24.9066 74.9077 25.2907 75.3936 25.7857C75.8795 26.2808 76.2649 26.8697 76.5497 27.5526C76.8346 28.2354 76.977 28.9865 76.977 29.8059V37.4367H74.137V30.1644Z" fill="#000001"/>
<path d="M80.3211 27.0148H77.9084V24.6334H80.3211V21.0997H83.1862V24.6334H85.5989V27.0148H83.1862V37.4367H80.3211V27.0148Z" fill="#000001"/>
<path d="M96.6878 29.9084C96.5705 29.4645 96.3946 29.0463 96.16 28.6536C95.9422 28.261 95.6658 27.9281 95.3307 27.655C95.0123 27.3648 94.6437 27.1429 94.2248 26.9892C93.8227 26.8185 93.3955 26.7332 92.9431 26.7332C92.474 26.7332 92.03 26.8185 91.6111 26.9892C91.1922 27.1429 90.8152 27.3648 90.4801 27.655C90.145 27.9281 89.8518 28.261 89.6005 28.6536C89.3659 29.0463 89.19 29.4645 89.0727 29.9084H96.6878ZM89.0224 32.0849C89.123 32.5629 89.2905 33.0067 89.5251 33.4164C89.7764 33.8261 90.078 34.1846 90.4299 34.4919C90.7817 34.7821 91.1755 35.0126 91.6111 35.1833C92.0467 35.354 92.5075 35.4394 92.9934 35.4394C93.6636 35.4394 94.2751 35.2772 94.828 34.9528C95.3977 34.6114 95.8752 34.159 96.2606 33.5957L98.6984 34.7992C98.0617 35.7722 97.2407 36.549 96.2354 37.1294C95.2469 37.7098 94.1495 38 92.9431 38C92.0048 38 91.1168 37.8208 90.2791 37.4623C89.4581 37.1038 88.7376 36.6087 88.1177 35.9771C87.5145 35.3455 87.0286 34.6114 86.66 33.7749C86.3081 32.9385 86.1322 32.0422 86.1322 31.0863C86.1322 30.1303 86.3081 29.2341 86.66 28.3976C87.0286 27.5611 87.5145 26.827 88.1177 26.1954C88.7376 25.5638 89.4581 25.0687 90.2791 24.7102C91.1168 24.3518 91.9964 24.1725 92.918 24.1725C93.8395 24.1725 94.7024 24.3518 95.5066 24.7102C96.3108 25.0517 97.0145 25.5211 97.6177 26.1186C98.2377 26.699 98.7235 27.3904 99.0754 28.1927C99.444 28.978 99.6451 29.8145 99.6786 30.7022C99.7121 31.1119 99.5864 31.4447 99.3016 31.7008C99.0335 31.9569 98.6817 32.0849 98.246 32.0849H89.0224Z" fill="#000001"/>
<path d="M107.874 26.8612C107.338 26.8612 106.843 26.9551 106.391 27.1429C105.938 27.3136 105.545 27.5611 105.21 27.8854C104.891 28.1927 104.64 28.5683 104.456 29.0121C104.271 29.4389 104.179 29.8998 104.179 30.3949V37.4367H101.339V24.6334H104.179V26.1186C104.632 25.5211 105.176 25.0602 105.813 24.7358C106.45 24.3944 107.136 24.2237 107.874 24.2237V26.8612Z" fill="#000001"/>
<path d="M108.485 24.6334H111.451L115.171 33.5701L118.865 24.6334H121.856L116.628 36.4636C116.477 36.805 116.276 37.0867 116.025 37.3086C115.79 37.5305 115.506 37.6415 115.171 37.6415C114.819 37.6415 114.517 37.5305 114.266 37.3086C114.031 37.0867 113.839 36.805 113.688 36.4636L108.485 24.6334Z" fill="#000001"/>
<path d="M132.276 29.9084C132.158 29.4645 131.982 29.0463 131.748 28.6536C131.53 28.261 131.254 27.9281 130.919 27.655C130.6 27.3648 130.232 27.1429 129.813 26.9892C129.411 26.8185 128.983 26.7332 128.531 26.7332C128.062 26.7332 127.618 26.8185 127.199 26.9892C126.78 27.1429 126.403 27.3648 126.068 27.655C125.733 27.9281 125.44 28.261 125.188 28.6536C124.954 29.0463 124.778 29.4645 124.661 29.9084H132.276ZM124.61 32.0849C124.711 32.5629 124.878 33.0067 125.113 33.4164C125.364 33.8261 125.666 34.1846 126.018 34.4919C126.37 34.7821 126.763 35.0126 127.199 35.1833C127.635 35.354 128.095 35.4394 128.581 35.4394C129.251 35.4394 129.863 35.2772 130.416 34.9528C130.986 34.6114 131.463 34.159 131.848 33.5957L134.286 34.7992C133.65 35.7722 132.829 36.549 131.823 37.1294C130.835 37.7098 129.737 38 128.531 38C127.593 38 126.705 37.8208 125.867 37.4623C125.046 37.1038 124.325 36.6087 123.706 35.9771C123.102 35.3455 122.616 34.6114 122.248 33.7749C121.896 32.9385 121.72 32.0422 121.72 31.0863C121.72 30.1303 121.896 29.2341 122.248 28.3976C122.616 27.5611 123.102 26.827 123.706 26.1954C124.325 25.5638 125.046 25.0687 125.867 24.7102C126.705 24.3518 127.584 24.1725 128.506 24.1725C129.427 24.1725 130.29 24.3518 131.094 24.7102C131.899 25.0517 132.602 25.5211 133.206 26.1186C133.825 26.699 134.311 27.3904 134.663 28.1927C135.032 28.978 135.233 29.8145 135.266 30.7022C135.3 31.1119 135.174 31.4447 134.889 31.7008C134.621 31.9569 134.269 32.0849 133.834 32.0849H124.61Z" fill="#000001"/>
<path d="M143.462 26.8612C142.925 26.8612 142.431 26.9551 141.979 27.1429C141.526 27.3136 141.133 27.5611 140.797 27.8854C140.479 28.1927 140.228 28.5683 140.044 29.0121C139.859 29.4389 139.767 29.8998 139.767 30.3949V37.4367H136.927V24.6334H139.767V26.1186C140.219 25.5211 140.764 25.0602 141.401 24.7358C142.037 24.3944 142.724 24.2237 143.462 24.2237V26.8612Z" fill="#000001"/>
<path d="M144.425 27.9367C144.425 27.2367 144.567 26.6478 144.852 26.1698C145.154 25.6748 145.531 25.2821 145.983 24.9919C146.436 24.7017 146.93 24.4969 147.466 24.3774C148.019 24.2408 148.547 24.1725 149.049 24.1725C150.071 24.1725 150.959 24.3944 151.713 24.8383C152.467 25.265 153.104 25.8028 153.623 26.4515L151.487 27.9111C151.202 27.5696 150.867 27.2794 150.482 27.0404C150.113 26.8014 149.661 26.6819 149.125 26.6819C148.907 26.6819 148.689 26.7075 148.471 26.7588C148.254 26.7929 148.052 26.8612 147.868 26.9636C147.701 27.066 147.558 27.2026 147.441 27.3733C147.324 27.527 147.265 27.7233 147.265 27.9623C147.265 28.389 147.483 28.739 147.918 29.0121C148.354 29.2682 148.999 29.5499 149.854 29.8571C150.222 29.9937 150.633 30.1559 151.085 30.3437C151.537 30.5314 151.956 30.779 152.342 31.0863C152.727 31.3935 153.054 31.7862 153.322 32.2642C153.59 32.7251 153.724 33.3055 153.724 34.0054C153.724 34.7394 153.573 35.3625 153.272 35.8747C152.987 36.3697 152.61 36.7709 152.141 37.0782C151.688 37.3854 151.186 37.6074 150.633 37.7439C150.08 37.8805 149.544 37.9488 149.024 37.9488C147.918 37.9488 146.963 37.7098 146.159 37.2318C145.372 36.7538 144.676 36.1563 144.073 35.4394L146.26 33.8005C146.377 33.9712 146.519 34.1505 146.687 34.3383C146.871 34.5261 147.081 34.7053 147.315 34.876C147.55 35.0296 147.809 35.1662 148.094 35.2857C148.379 35.3881 148.689 35.4394 149.024 35.4394C149.209 35.4394 149.41 35.4223 149.627 35.3881C149.845 35.3369 150.046 35.2601 150.231 35.1577C150.415 35.0382 150.566 34.8931 150.683 34.7224C150.817 34.5346 150.884 34.3041 150.884 34.031C150.884 33.553 150.658 33.1604 150.205 32.8531C149.753 32.5458 148.991 32.1959 147.918 31.8032C147.583 31.6837 147.215 31.5386 146.813 31.3679C146.41 31.1801 146.033 30.9411 145.682 30.6509C145.33 30.3607 145.028 29.9937 144.777 29.5499C144.542 29.106 144.425 28.5683 144.425 27.9367Z" fill="#000001"/>
<path d="M165.483 29.9084C165.366 29.4645 165.19 29.0463 164.955 28.6536C164.737 28.261 164.461 27.9281 164.126 27.655C163.807 27.3648 163.439 27.1429 163.02 26.9892C162.618 26.8185 162.19 26.7332 161.738 26.7332C161.269 26.7332 160.825 26.8185 160.406 26.9892C159.987 27.1429 159.61 27.3648 159.275 27.655C158.94 27.9281 158.647 28.261 158.395 28.6536C158.161 29.0463 157.985 29.4645 157.868 29.9084H165.483ZM157.817 32.0849C157.918 32.5629 158.085 33.0067 158.32 33.4164C158.571 33.8261 158.873 34.1846 159.225 34.4919C159.577 34.7821 159.97 35.0126 160.406 35.1833C160.842 35.354 161.302 35.4394 161.788 35.4394C162.459 35.4394 163.07 35.2772 163.623 34.9528C164.193 34.6114 164.67 34.159 165.056 33.5957L167.493 34.7992C166.857 35.7722 166.036 36.549 165.03 37.1294C164.042 37.7098 162.944 38 161.738 38C160.8 38 159.912 37.8208 159.074 37.4623C158.253 37.1038 157.533 36.6087 156.913 35.9771C156.309 35.3455 155.824 34.6114 155.455 33.7749C155.103 32.9385 154.927 32.0422 154.927 31.0863C154.927 30.1303 155.103 29.2341 155.455 28.3976C155.824 27.5611 156.309 26.827 156.913 26.1954C157.533 25.5638 158.253 25.0687 159.074 24.7102C159.912 24.3518 160.791 24.1725 161.713 24.1725C162.634 24.1725 163.497 24.3518 164.302 24.7102C165.106 25.0517 165.81 25.5211 166.413 26.1186C167.033 26.699 167.519 27.3904 167.87 28.1927C168.239 28.978 168.44 29.8145 168.474 30.7022C168.507 31.1119 168.381 31.4447 168.097 31.7008C167.828 31.9569 167.477 32.0849 167.041 32.0849H157.817Z" fill="#000001"/>
<path d="M175.141 24.1213C175.141 23.1653 175.325 22.363 175.693 21.7143C176.062 21.0485 176.531 20.5193 177.101 20.1267C177.687 19.717 178.324 19.4268 179.011 19.2561C179.698 19.0854 180.36 19 180.996 19C182.236 19 183.317 19.2731 184.238 19.8194C185.16 20.3486 185.931 21.0229 186.551 21.8423L184.238 23.4555C183.853 23.0117 183.384 22.619 182.831 22.2776C182.278 21.9362 181.625 21.7655 180.871 21.7655C180.569 21.7655 180.251 21.8082 179.916 21.8935C179.597 21.9618 179.304 22.0813 179.036 22.252C178.768 22.4057 178.542 22.6276 178.357 22.9178C178.19 23.1909 178.106 23.5323 178.106 23.942C178.106 24.3347 178.19 24.6761 178.357 24.9663C178.525 25.2565 178.768 25.5211 179.086 25.7601C179.421 25.9991 179.824 26.2296 180.293 26.4515C180.762 26.6563 181.298 26.8783 181.901 27.1173C182.37 27.288 182.89 27.5013 183.459 27.7574C184.029 28.0135 184.557 28.3549 185.043 28.7817C185.545 29.1914 185.964 29.712 186.299 30.3437C186.634 30.9582 186.802 31.735 186.802 32.6739C186.802 33.664 186.609 34.5004 186.224 35.1833C185.855 35.8491 185.378 36.3868 184.791 36.7965C184.205 37.2062 183.551 37.4964 182.831 37.6671C182.127 37.8549 181.449 37.9488 180.795 37.9488C180.125 37.9488 179.505 37.8634 178.935 37.6927C178.366 37.5391 177.83 37.3257 177.327 37.0526C176.841 36.7624 176.389 36.4295 175.97 36.0539C175.551 35.6613 175.157 35.2345 174.789 34.7736L177 33.1604C177.201 33.3994 177.436 33.6384 177.704 33.8774C177.989 34.1164 178.29 34.3383 178.609 34.5431C178.944 34.7309 179.296 34.8845 179.664 35.004C180.033 35.1235 180.427 35.1833 180.846 35.1833C181.147 35.1833 181.465 35.1491 181.801 35.0809C182.152 34.9955 182.479 34.8589 182.781 34.6712C183.082 34.4834 183.325 34.2444 183.51 33.9542C183.711 33.6469 183.811 33.2628 183.811 32.8019C183.811 32.3751 183.719 32.0081 183.535 31.7008C183.35 31.3935 183.099 31.1204 182.781 30.8814C182.462 30.6253 182.085 30.3949 181.65 30.19C181.214 29.9852 180.737 29.7803 180.217 29.5755C179.681 29.3706 179.111 29.1402 178.508 28.8841C177.922 28.611 177.377 28.2695 176.875 27.8598C176.372 27.4501 175.953 26.9465 175.618 26.3491C175.3 25.7516 175.141 25.009 175.141 24.1213Z" fill="#000001"/>
<path d="M188.134 31.0863C188.134 30.1303 188.31 29.2341 188.662 28.3976C189.031 27.5611 189.525 26.827 190.145 26.1954C190.782 25.5638 191.519 25.0687 192.357 24.7102C193.194 24.3518 194.091 24.1725 195.046 24.1725C196.001 24.1725 196.897 24.3518 197.735 24.7102C198.573 25.0687 199.301 25.5638 199.921 26.1954C200.558 26.827 201.052 27.5611 201.404 28.3976C201.773 29.2341 201.957 30.1303 201.957 31.0863C201.957 32.0422 201.773 32.9385 201.404 33.7749C201.052 34.6114 200.558 35.3455 199.921 35.9771C199.301 36.6087 198.573 37.1038 197.735 37.4623C196.897 37.8208 196.001 38 195.046 38C194.091 38 193.194 37.8208 192.357 37.4623C191.519 37.1038 190.782 36.6087 190.145 35.9771C189.525 35.3455 189.031 34.6114 188.662 33.7749C188.31 32.9385 188.134 32.0422 188.134 31.0863ZM190.924 31.0606C190.924 31.6411 191.033 32.1959 191.251 32.7251C191.469 33.2543 191.762 33.7237 192.13 34.1334C192.499 34.5261 192.935 34.8419 193.437 35.0809C193.957 35.3028 194.501 35.4137 195.071 35.4137C195.641 35.4137 196.168 35.3028 196.654 35.0809C197.157 34.8419 197.592 34.5261 197.961 34.1334C198.33 33.7237 198.623 33.2543 198.841 32.7251C199.059 32.1959 199.167 31.6411 199.167 31.0606C199.167 30.4802 199.059 29.934 198.841 29.4218C198.623 28.8926 198.33 28.4317 197.961 28.0391C197.592 27.6465 197.157 27.3392 196.654 27.1173C196.168 26.8783 195.641 26.7588 195.071 26.7588C194.501 26.7588 193.957 26.8783 193.437 27.1173C192.935 27.3392 192.499 27.6465 192.13 28.0391C191.762 28.4317 191.469 28.8926 191.251 29.4218C191.033 29.934 190.924 30.4802 190.924 31.0606Z" fill="#000001"/>
<path d="M206.427 37.4367H203.587V19.5121H206.427V37.4367Z" fill="#000001"/>
<path d="M211.532 31.9057C211.532 32.4007 211.607 32.8531 211.758 33.2628C211.926 33.6725 212.143 34.0225 212.411 34.3127C212.696 34.6029 213.023 34.8248 213.392 34.9784C213.76 35.1321 214.154 35.2089 214.573 35.2089C215.025 35.2089 215.444 35.1235 215.829 34.9528C216.215 34.7821 216.55 34.5517 216.835 34.2615C217.12 33.9542 217.346 33.6042 217.513 33.2116C217.681 32.8019 217.765 32.3666 217.765 31.9057V24.6334H220.605V37.4367H217.765V36.1051C217.262 36.6514 216.692 37.0782 216.056 37.3854C215.436 37.6927 214.749 37.8464 213.995 37.8464C213.274 37.8464 212.596 37.7098 211.959 37.4367C211.322 37.1635 210.761 36.7794 210.275 36.2844C209.789 35.7893 209.404 35.2004 209.119 34.5175C208.834 33.8347 208.692 33.0836 208.692 32.2642V24.6334H211.532V31.9057Z" fill="#000001"/>
<path d="M224.587 27.0148H222.174V24.6334H224.587V21.0997H227.452V24.6334H229.865V27.0148H227.452V37.4367H224.587V27.0148Z" fill="#000001"/>
<path d="M231.143 20.8437C231.143 20.3486 231.311 19.9304 231.646 19.5889C231.998 19.2305 232.416 19.0512 232.902 19.0512C233.388 19.0512 233.799 19.2305 234.134 19.5889C234.486 19.9304 234.662 20.3486 234.662 20.8437C234.662 21.3387 234.486 21.7655 234.134 22.124C233.799 22.4654 233.388 22.6361 232.902 22.6361C232.416 22.6361 231.998 22.4654 231.646 22.124C231.311 21.7655 231.143 21.3387 231.143 20.8437ZM231.495 24.6334H234.335V37.4367H231.495V24.6334Z" fill="#000001"/>
<path d="M236.043 31.0863C236.043 30.1303 236.219 29.2341 236.571 28.3976C236.939 27.5611 237.434 26.827 238.054 26.1954C238.69 25.5638 239.427 25.0687 240.265 24.7102C241.103 24.3518 241.999 24.1725 242.954 24.1725C243.909 24.1725 244.806 24.3518 245.643 24.7102C246.481 25.0687 247.21 25.5638 247.83 26.1954C248.467 26.827 248.961 27.5611 249.313 28.3976C249.681 29.2341 249.866 30.1303 249.866 31.0863C249.866 32.0422 249.681 32.9385 249.313 33.7749C248.961 34.6114 248.467 35.3455 247.83 35.9771C247.21 36.6087 246.481 37.1038 245.643 37.4623C244.806 37.8208 243.909 38 242.954 38C241.999 38 241.103 37.8208 240.265 37.4623C239.427 37.1038 238.69 36.6087 238.054 35.9771C237.434 35.3455 236.939 34.6114 236.571 33.7749C236.219 32.9385 236.043 32.0422 236.043 31.0863ZM238.833 31.0606C238.833 31.6411 238.942 32.1959 239.159 32.7251C239.377 33.2543 239.67 33.7237 240.039 34.1334C240.408 34.5261 240.843 34.8419 241.346 35.0809C241.865 35.3028 242.41 35.4137 242.979 35.4137C243.549 35.4137 244.077 35.3028 244.563 35.0809C245.065 34.8419 245.501 34.5261 245.87 34.1334C246.238 33.7237 246.531 33.2543 246.749 32.7251C246.967 32.1959 247.076 31.6411 247.076 31.0606C247.076 30.4802 246.967 29.934 246.749 29.4218C246.531 28.8926 246.238 28.4317 245.87 28.0391C245.501 27.6465 245.065 27.3392 244.563 27.1173C244.077 26.8783 243.549 26.7588 242.979 26.7588C242.41 26.7588 241.865 26.8783 241.346 27.1173C240.843 27.3392 240.408 27.6465 240.039 28.0391C239.67 28.4317 239.377 28.8926 239.159 29.4218C238.942 29.934 238.833 30.4802 238.833 31.0606Z" fill="#000001"/>
<path d="M260.568 30.1644C260.568 29.6694 260.484 29.217 260.317 28.8073C260.166 28.3976 259.948 28.0476 259.663 27.7574C259.395 27.4672 259.077 27.2453 258.708 27.0916C258.34 26.938 257.946 26.8612 257.527 26.8612C257.075 26.8612 256.656 26.9465 256.271 27.1173C255.885 27.288 255.55 27.527 255.265 27.8342C254.98 28.1244 254.754 28.4744 254.587 28.8841C254.419 29.2767 254.335 29.7035 254.335 30.1644V37.4367H251.495V24.6334H254.335V25.965C254.838 25.4187 255.399 24.9919 256.019 24.6846C256.656 24.3774 257.351 24.2237 258.105 24.2237C258.826 24.2237 259.504 24.3603 260.141 24.6334C260.778 24.9066 261.339 25.2907 261.825 25.7857C262.311 26.2808 262.696 26.8697 262.981 27.5526C263.266 28.2354 263.408 28.9865 263.408 29.8059V37.4367H260.568V30.1644Z" fill="#000001"/>
<path d="M265.154 27.9367C265.154 27.2367 265.296 26.6478 265.581 26.1698C265.883 25.6748 266.259 25.2821 266.712 24.9919C267.164 24.7017 267.659 24.4969 268.195 24.3774C268.748 24.2408 269.275 24.1725 269.778 24.1725C270.8 24.1725 271.688 24.3944 272.442 24.8383C273.196 25.265 273.833 25.8028 274.352 26.4515L272.216 27.9111C271.931 27.5696 271.596 27.2794 271.211 27.0404C270.842 26.8014 270.39 26.6819 269.853 26.6819C269.636 26.6819 269.418 26.7075 269.2 26.7588C268.982 26.7929 268.781 26.8612 268.597 26.9636C268.429 27.066 268.287 27.2026 268.17 27.3733C268.052 27.527 267.994 27.7233 267.994 27.9623C267.994 28.389 268.211 28.739 268.647 29.0121C269.083 29.2682 269.728 29.5499 270.582 29.8571C270.951 29.9937 271.361 30.1559 271.814 30.3437C272.266 30.5314 272.685 30.779 273.07 31.0863C273.456 31.3935 273.782 31.7862 274.051 32.2642C274.319 32.7251 274.453 33.3055 274.453 34.0054C274.453 34.7394 274.302 35.3625 274 35.8747C273.715 36.3697 273.338 36.7709 272.869 37.0782C272.417 37.3854 271.914 37.6074 271.361 37.7439C270.808 37.8805 270.272 37.9488 269.753 37.9488C268.647 37.9488 267.692 37.7098 266.888 37.2318C266.1 36.7538 265.405 36.1563 264.802 35.4394L266.988 33.8005C267.106 33.9712 267.248 34.1505 267.416 34.3383C267.6 34.5261 267.809 34.7053 268.044 34.876C268.278 35.0296 268.538 35.1662 268.823 35.2857C269.108 35.3881 269.418 35.4394 269.753 35.4394C269.937 35.4394 270.138 35.4223 270.356 35.3881C270.574 35.3369 270.775 35.2601 270.959 35.1577C271.144 35.0382 271.294 34.8931 271.412 34.7224C271.546 34.5346 271.613 34.3041 271.613 34.031C271.613 33.553 271.387 33.1604 270.934 32.8531C270.482 32.5458 269.719 32.1959 268.647 31.8032C268.312 31.6837 267.943 31.5386 267.541 31.3679C267.139 31.1801 266.762 30.9411 266.41 30.6509C266.058 30.3607 265.757 29.9937 265.506 29.5499C265.271 29.106 265.154 28.5683 265.154 27.9367Z" fill="#000001"/>
</g>
<defs>
<clipPath id="clip0_510_507">
<rect width="274" height="57" fill="white"/>
</clipPath>
</defs>
</svg>
