<svg width="36" height="37" viewBox="0 0 36 37" fill="none" xmlns="http://www.w3.org/2000/svg">
<path fill-rule="evenodd" clip-rule="evenodd" d="M28.6501 29.24C29.5351 27.89 29.8651 27.2 30.5401 25.685C25.5601 23.795 24.7651 16.7 29.6851 13.985C28.1851 12.095 26.0701 11 24.0751 11C22.6351 11 21.6451 11.375 20.7601 11.72C20.0101 12.005 19.3351 12.26 18.4951 12.26C17.5951 12.26 16.8001 11.975 15.9601 11.675C15.0451 11.345 14.0851 11 12.8851 11C10.6501 11 8.2651 12.365 6.7501 14.705C4.6201 18.005 4.9951 24.185 8.4301 29.465C9.6601 31.355 11.3101 33.47 13.4551 33.5C14.3551 33.515 14.9401 33.245 15.5851 32.96C16.3201 32.63 17.1151 32.27 18.5101 32.27C19.9051 32.255 20.6851 32.63 21.4201 32.96C22.0501 33.245 22.6201 33.515 23.5051 33.5C25.6801 33.47 27.4201 31.13 28.6501 29.24Z" fill="white"/>
<path fill-rule="evenodd" clip-rule="evenodd" d="M23.7597 3.5C23.9997 5.15 23.3247 6.78502 22.4397 7.92502C21.4947 9.15502 19.8447 10.115 18.2547 10.055C17.9697 8.46499 18.7047 6.82999 19.6047 5.73499C20.6097 4.53499 22.3047 3.605 23.7597 3.5Z" fill="white"/>
</svg>
