<svg width="40" height="40" viewBox="0 0 40 40" fill="none" xmlns="http://www.w3.org/2000/svg">
<path d="M11.8301 17.2931L3.09473 33.7508L11.0272 33.018L14.8665 39.9987L23.6018 23.541L11.8301 17.2931Z" fill="white"/>
<path d="M12.8303 35.2064C13.0754 34.68 12.8191 34.0509 12.3063 33.7783L11.8036 33.5107C11.3009 33.2243 11.1095 32.5877 11.3834 32.0725C11.661 31.5485 12.3138 31.3484 12.8378 31.626L14.2585 32.3801C14.6974 32.6127 15.2477 32.4439 15.4741 32.0024L15.5091 31.9349C15.7692 31.5185 15.6154 30.9682 15.1827 30.7394L10.9332 28.4845C10.4154 28.2094 10.1616 27.5829 10.4029 27.0551C10.6693 26.4936 11.3421 26.2723 11.8836 26.5599L15.8255 28.6521C16.2644 28.8847 16.8147 28.7159 17.0473 28.277L17.0698 28.2194L17.0761 28.2069C17.3274 27.7467 17.1511 27.1689 16.6871 26.9226L14.4761 25.7495C13.9583 25.4744 13.7045 24.8478 13.9496 24.3138C14.2135 23.7586 14.8888 23.531 15.4303 23.8186L17.8727 25.1155C18.3291 25.3581 18.8744 25.1555 19.1108 24.6953C19.1145 24.689 19.1145 24.689 19.117 24.6828C19.1208 24.6765 19.1208 24.6765 19.1233 24.6703C19.3721 24.2163 19.2346 23.651 18.7769 23.4097L16.1419 22.0115C15.6304 21.7401 15.3765 21.1136 15.6179 20.5858C15.8843 20.0243 16.5571 19.803 17.0986 20.0906L23.5991 23.541L14.8638 39.9987L12.4564 35.6229C12.6115 35.5178 12.7465 35.3878 12.8303 35.2064Z" fill="white"/>
<path d="M28.1702 17.2931L36.9055 33.7508L28.9731 33.018L25.1338 39.9987L16.3984 23.541L28.1702 17.2931Z" fill="white"/>
<path d="M27.1695 35.2065C26.9243 34.68 27.1807 34.051 27.6935 33.7784L28.1962 33.5107C28.6989 33.2244 28.8903 32.5878 28.6164 32.0726C28.3388 31.5486 27.686 31.3485 27.162 31.6261L25.7413 32.3802C25.3023 32.6128 24.7521 32.444 24.5257 32.0025L24.4907 31.935C24.2306 31.5186 24.3844 30.9683 24.8171 30.7394L29.0679 28.4834C29.5856 28.2083 29.8395 27.5817 29.5981 27.054C29.3317 26.4925 28.6589 26.2711 28.1174 26.5587L24.1756 28.651C23.7366 28.8836 23.1863 28.7147 22.9537 28.2758L22.9312 28.2183L22.925 28.2058C22.6736 27.7455 22.8499 27.1678 23.3139 26.9214L25.5249 25.7484C26.0427 25.4732 26.2966 24.8467 26.0514 24.3127C25.7876 23.7574 25.1122 23.5298 24.5707 23.8175L22.1258 25.1168C21.6694 25.3594 21.1241 25.1568 20.8878 24.6966C20.884 24.6904 20.884 24.6904 20.8815 24.6841C20.8778 24.6779 20.8778 24.6779 20.8753 24.6716C20.6264 24.2176 20.764 23.6524 21.2217 23.411L23.8567 22.0129C24.3681 21.7415 24.622 21.1149 24.3807 20.5872C24.1143 20.0257 23.4415 19.8043 22.9 20.092L16.3994 23.5423L25.1348 40L27.5421 35.6242C27.3883 35.5179 27.2533 35.3879 27.1695 35.2065Z" fill="white"/>
<path d="M19.9999 29.1912C28.0608 29.1912 34.5955 22.6565 34.5955 14.5956C34.5955 6.53467 28.0608 0 19.9999 0C11.939 0 5.4043 6.53467 5.4043 14.5956C5.4043 22.6565 11.939 29.1912 19.9999 29.1912Z" fill="#A7A7A7"/>
<path d="M21.9795 12.921H12.7302C12.0111 12.921 11.4208 12.3307 11.4208 11.6116L11.4308 11.5216V11.5016C11.4208 10.7425 12.0399 10.1222 12.8002 10.1222H19.2107C20.0599 10.1222 20.8102 9.49315 20.8603 8.64275C20.9003 7.75358 20.1912 7.00323 19.3008 7.00323H12.5101C11.761 7.00323 11.2007 6.37418 11.2107 5.62383C11.2107 5.61383 11.2107 5.61383 11.2107 5.60382C11.2107 5.59382 11.2107 5.59382 11.2107 5.58381C11.2007 4.83471 11.7597 4.20442 12.5101 4.20442H19.6159C20.4551 4.20442 21.2054 3.57537 21.2554 2.73498C21.2955 1.83581 20.5864 1.09546 19.696 1.09546H14.4923C9.18603 3.28273 5.44678 8.50018 5.44678 14.5955C5.44678 20.6909 9.18603 25.9071 14.4935 28.0919H21.1004C21.9395 28.0919 22.6899 27.4628 22.7399 26.6224C22.7799 25.7233 22.0708 24.9842 21.1804 24.9842L13.6644 24.9829C12.7777 24.9829 12.0636 24.2413 12.1112 23.3434C12.1549 22.503 12.9103 21.8715 13.7519 21.8715H16.6658C17.5037 21.8477 18.1802 21.1611 18.1802 20.317C18.1802 19.4578 17.4812 18.7575 16.6208 18.7575H12.2037C11.4846 18.7575 10.8943 18.1685 10.9043 17.4481V17.3381C10.8543 16.629 11.4246 16.0287 12.1337 16.0287H21.8895C22.7386 16.0287 23.489 15.3997 23.539 14.5593C23.579 13.6613 22.8687 12.921 21.9795 12.921Z" fill="#A7A7A7"/>
<path d="M20.0002 25.013C14.255 25.013 9.58154 20.3383 9.58154 14.5944C9.58154 8.85044 14.255 4.177 20.0002 4.177C25.7454 4.177 30.4188 8.85169 30.4188 14.5956C30.4188 20.3396 25.7454 25.013 20.0002 25.013Z" fill="url(#paint0_linear_388_10196)"/>
<path d="M14.9801 18.7201C14.8163 18.8689 14.72 19.0465 14.6437 19.2341C14.5712 19.4229 14.5186 19.6217 14.5324 19.8444C14.5474 20.0682 14.6387 20.3146 14.6512 20.5359C14.6537 20.5647 14.6462 20.5922 14.6475 20.6197C14.2273 20.0645 13.8683 19.4754 13.5719 18.8626C13.5795 18.7388 13.5982 18.6213 13.6432 18.5175C13.7158 18.3374 13.8696 18.2023 13.9671 18.0385C14.0634 17.8747 14.1109 17.6871 14.1522 17.4958C14.1897 17.3019 14.2198 17.1056 14.201 16.8755C14.1835 16.8642 14.1647 16.853 14.1472 16.8404C13.9609 16.9392 13.8321 17.0781 13.7195 17.2306C13.612 17.3857 13.5194 17.5533 13.4844 17.7584C13.4519 17.9647 13.4844 18.2086 13.4481 18.4099C13.4419 18.4487 13.4244 18.4825 13.4144 18.52C13.1442 17.9072 12.9341 17.2731 12.7853 16.6266C12.8191 16.4865 12.8654 16.3565 12.9417 16.2539C13.0467 16.1076 13.2218 16.0213 13.3468 15.8963C13.4706 15.7687 13.5519 15.6086 13.627 15.441C13.6995 15.2697 13.7645 15.0946 13.787 14.8745C13.772 14.8595 13.757 14.8445 13.742 14.8295C13.5469 14.8758 13.3981 14.9746 13.2631 15.0884C13.1305 15.2047 13.0117 15.3397 12.9379 15.5186C12.8666 15.6999 12.8504 15.9325 12.7753 16.1076C12.7566 16.1551 12.7266 16.1914 12.7015 16.2339C12.579 15.5936 12.5152 14.9433 12.5115 14.2918C12.5777 14.1379 12.6553 13.9979 12.7678 13.9053C12.8954 13.7953 13.0755 13.7603 13.2168 13.674C13.3568 13.5864 13.4631 13.4539 13.5644 13.315C13.6632 13.1712 13.7558 13.0199 13.8171 12.8148C13.8058 12.7961 13.7946 12.7785 13.7833 12.7598C13.5907 12.7548 13.4344 12.8136 13.2868 12.8873C13.1417 12.9661 13.0042 13.0612 12.9029 13.2137C12.8016 13.3676 12.7441 13.5814 12.6403 13.7265C12.6052 13.7778 12.5615 13.8153 12.519 13.8553C12.5415 13.2188 12.6203 12.5835 12.7553 11.9557C12.7616 11.9457 12.7678 11.9369 12.7741 11.9269C12.8754 11.7731 12.9879 11.6368 13.1292 11.568C13.2681 11.4954 13.4406 11.5092 13.5882 11.4617C13.7345 11.4129 13.8571 11.3129 13.9771 11.2016C14.0947 11.0865 14.2085 10.9627 14.3048 10.7764C14.2973 10.7563 14.291 10.7351 14.2835 10.7138C14.1072 10.6626 13.9521 10.6813 13.8021 10.7163C13.6532 10.7563 13.5082 10.8151 13.3856 10.9364C13.2631 11.0602 13.168 11.2516 13.0442 11.3616C12.9904 11.4129 12.9316 11.4467 12.8704 11.4792C13.0354 10.8564 13.2593 10.2436 13.5394 9.64958C13.5444 9.65708 13.5507 9.66333 13.5557 9.67084C13.5795 9.64582 13.6045 9.62206 13.6282 9.59705C13.7533 9.47324 13.8833 9.36945 14.0247 9.33818C14.166 9.30191 14.3198 9.35819 14.4624 9.34693C14.6049 9.33443 14.7375 9.26565 14.8701 9.18436C15.0014 9.09807 15.1314 9.00177 15.259 8.8392C15.2577 8.81669 15.2552 8.79418 15.254 8.77292C15.1052 8.68162 14.9613 8.66286 14.8163 8.66286C14.6725 8.66662 14.5286 8.69038 14.3911 8.78042C14.2535 8.87296 14.126 9.03679 13.9909 9.11433C13.9246 9.1556 13.8546 9.17936 13.7845 9.19436C13.787 9.18061 13.787 9.1681 13.7895 9.15434C14.2448 8.30895 14.8238 7.50982 15.5279 6.78198C14.8613 7.42603 14.2948 8.13637 13.8271 8.89297C13.8283 8.87046 13.8383 8.8442 13.8383 8.82169C13.8496 8.65911 13.8571 8.49779 13.8421 8.34522C13.7933 8.04633 13.712 7.75744 13.4907 7.51358C13.4669 7.52233 13.4431 7.53108 13.4194 7.53984C13.1843 7.95378 13.123 8.3152 13.1217 8.64536C13.1317 8.80668 13.168 8.95425 13.2168 9.09557C13.2568 9.24189 13.3293 9.3707 13.4194 9.4895C13.4319 9.50701 13.4444 9.52327 13.4581 9.54078C13.1905 10.0498 12.9654 10.5775 12.7841 11.1165C12.7828 11.1115 12.7841 11.1053 12.7828 11.099C12.7466 10.9327 12.7115 10.7638 12.6578 10.6075C12.5327 10.3061 12.3801 10.0198 12.1025 9.8059C12.0812 9.81966 12.0612 9.83341 12.04 9.84717C11.9137 10.3224 11.9437 10.7113 12.0287 11.054C12.0787 11.2191 12.155 11.3654 12.2401 11.5029C12.3176 11.6468 12.4239 11.7668 12.544 11.8731C12.5477 11.8756 12.5515 11.8794 12.554 11.8819C12.4164 12.4171 12.3189 12.9611 12.2638 13.5101C12.19 13.3488 12.115 13.1887 12.025 13.0449C11.8224 12.7573 11.5985 12.4884 11.2684 12.3158C11.2509 12.3333 11.2334 12.3508 11.2158 12.3696C11.2083 12.8848 11.3371 13.28 11.5097 13.6177C11.6035 13.779 11.7173 13.9153 11.8386 14.0404C11.9449 14.1629 12.0737 14.2555 12.2101 14.338C12.1963 14.8795 12.2213 15.4235 12.2876 15.9638C12.1775 15.8237 12.0687 15.6824 11.9487 15.5611C11.6698 15.306 11.3747 15.0709 10.9995 14.9496C10.9857 14.9708 10.9732 14.9921 10.9595 15.0133C11.0795 15.5423 11.3121 15.9238 11.5748 16.2352C11.7111 16.3827 11.8624 16.5003 12.0187 16.6041C12.1438 16.6979 12.2838 16.7579 12.4264 16.8117C12.5327 17.3394 12.679 17.8609 12.8641 18.3737C12.7228 18.2611 12.584 18.1461 12.4377 18.0498C12.085 17.8434 11.7236 17.6583 11.3084 17.6033C11.2996 17.6271 11.2921 17.6508 11.2834 17.6746C11.5397 18.1911 11.8749 18.535 12.2263 18.8001C12.4051 18.9239 12.5915 19.0127 12.7803 19.0878C12.9179 19.1503 13.0617 19.1778 13.2043 19.2041C13.4294 19.6968 13.6945 20.177 13.9971 20.6397C13.8296 20.5597 13.6632 20.4747 13.4957 20.4121C13.0755 20.2746 12.6528 20.1558 12.2088 20.1745C12.2063 20.2008 12.2038 20.2258 12.2013 20.252C12.5977 20.7273 13.0367 21.0087 13.4719 21.2062C13.6908 21.295 13.9096 21.3476 14.1272 21.3851C14.2698 21.4163 14.4098 21.4113 14.5512 21.4126C14.7863 21.7127 15.0401 22.0029 15.3103 22.283C15.4528 22.1404 15.5966 21.9966 15.7392 21.854C15.4278 21.5539 15.1389 21.2375 14.8713 20.9099C14.8575 20.8023 14.8525 20.6985 14.8676 20.5997C14.8938 20.3909 15.0126 20.2108 15.0701 20.0157C15.1252 19.8193 15.1289 19.6117 15.1264 19.4016C15.1202 19.1903 15.1064 18.9789 15.0389 18.7451C15.0201 18.7351 15.0001 18.7276 14.9801 18.7201Z" fill="white"/>
<path d="M25.0198 18.72C25.1836 18.8688 25.2799 19.0464 25.3562 19.234C25.4287 19.4228 25.4813 19.6217 25.4675 19.8443C25.4525 20.0682 25.3612 20.3145 25.3487 20.5359C25.3462 20.5646 25.3537 20.5921 25.3524 20.6197C25.7726 20.0644 26.1316 19.4754 26.4279 18.8626C26.4204 18.7388 26.4017 18.6212 26.3567 18.5174C26.2841 18.3373 26.1303 18.2023 26.0328 18.0384C25.9365 17.8746 25.8889 17.687 25.8477 17.4957C25.8102 17.3019 25.7801 17.1055 25.7989 16.8754C25.8164 16.8641 25.8352 16.8529 25.8527 16.8404C26.039 16.9392 26.1678 17.078 26.2804 17.2306C26.3879 17.3856 26.4805 17.5532 26.5155 17.7583C26.548 17.9647 26.5155 18.2085 26.5518 18.4099C26.558 18.4486 26.5755 18.4824 26.5855 18.5199C26.8556 17.9071 27.0657 17.2731 27.2146 16.6265C27.1808 16.4865 27.1345 16.3564 27.0582 16.2539C26.9532 16.1075 26.7781 16.0213 26.6531 15.8962C26.5292 15.7686 26.448 15.6086 26.3729 15.441C26.3004 15.2697 26.2354 15.0946 26.2128 14.8745C26.2279 14.8595 26.2429 14.8445 26.2579 14.8294C26.453 14.8757 26.6018 14.9745 26.7368 15.0883C26.8694 15.2046 26.9882 15.3397 27.062 15.5185C27.1333 15.6999 27.1495 15.9325 27.2246 16.1075C27.2433 16.1551 27.2733 16.1913 27.2984 16.2339C27.4209 15.5936 27.4847 14.9432 27.4884 14.2917C27.4222 14.1379 27.3446 13.9978 27.2321 13.9053C27.1045 13.7952 26.9244 13.7602 26.7831 13.6739C26.643 13.5864 26.5367 13.4538 26.4355 13.315C26.3367 13.1712 26.2441 13.0198 26.1828 12.8148C26.1941 12.796 26.2053 12.7785 26.2166 12.7597C26.4092 12.7547 26.5655 12.8135 26.7131 12.8873C26.8581 12.9661 26.9957 13.0611 27.097 13.2137C27.1983 13.3675 27.2558 13.5814 27.3596 13.7264C27.3947 13.7777 27.4384 13.8152 27.4809 13.8552C27.4584 13.2187 27.3796 12.5834 27.2446 11.9556C27.2383 11.9456 27.2321 11.9368 27.2258 11.9268C27.1245 11.773 27.012 11.6367 26.8707 11.5679C26.7318 11.4954 26.5593 11.5091 26.4117 11.4616C26.2654 11.4128 26.1428 11.3128 26.0228 11.2015C25.9052 11.0864 25.7914 10.9626 25.6951 10.7763C25.7026 10.7563 25.7089 10.735 25.7164 10.7138C25.8927 10.6625 26.0478 10.6813 26.1978 10.7163C26.3467 10.7563 26.4917 10.8151 26.6143 10.9364C26.7368 11.0602 26.8319 11.2515 26.9557 11.3616C27.0095 11.4128 27.0682 11.4466 27.1295 11.4791C26.967 10.8576 26.7443 10.2448 26.463 9.65077C26.458 9.65827 26.4517 9.66452 26.4467 9.67203C26.4229 9.64702 26.3979 9.62325 26.3742 9.59824C26.2491 9.47443 26.1191 9.37064 25.9777 9.33937C25.8364 9.3031 25.6826 9.35938 25.54 9.34813C25.3975 9.33562 25.2649 9.26684 25.1323 9.18555C25.001 9.09926 24.871 9.00296 24.7434 8.84039C24.7447 8.81788 24.7472 8.79537 24.7484 8.77411C24.8972 8.68281 25.041 8.66405 25.1861 8.66405C25.3299 8.66781 25.4737 8.69157 25.6113 8.78161C25.7489 8.87415 25.8764 9.03798 26.0115 9.11552C26.0778 9.15679 26.1478 9.18055 26.2178 9.19555C26.2153 9.18305 26.2141 9.16929 26.2128 9.15679C25.7576 8.31139 25.1786 7.51227 24.4745 6.78442C25.1411 7.42848 25.7076 8.13881 26.1753 8.89541C26.1741 8.8729 26.1641 8.84664 26.1641 8.82413C26.1528 8.66155 26.1453 8.50023 26.1603 8.34766C26.2091 8.04877 26.2904 7.75988 26.5117 7.51602C26.5355 7.52477 26.5593 7.53352 26.583 7.54228C26.8181 7.95622 26.8794 8.31764 26.8807 8.6478C26.8707 8.80912 26.8344 8.95669 26.7856 9.09801C26.7456 9.24433 26.6731 9.37314 26.583 9.49194C26.5705 9.50945 26.558 9.52571 26.5443 9.54322C26.8119 10.0522 27.037 10.58 27.2183 11.119C27.2196 11.114 27.2183 11.1077 27.2196 11.1014C27.2533 10.9326 27.2884 10.7638 27.3421 10.6075C27.4672 10.3061 27.6198 10.0197 27.8974 9.80584C27.9186 9.8196 27.9399 9.8321 27.9612 9.84586C28.0875 10.3211 28.0575 10.71 27.9737 11.0527C27.9236 11.2178 27.8474 11.3641 27.7623 11.5016C27.6848 11.6455 27.5785 11.7655 27.4584 11.8718C27.4547 11.8743 27.4509 11.8781 27.4484 11.8806C27.586 12.4158 27.6835 12.9598 27.7386 13.5088C27.8123 13.3475 27.8874 13.1874 27.9774 13.0436C28.18 12.756 28.4039 12.4871 28.734 12.3145C28.7515 12.332 28.769 12.3495 28.7866 12.367C28.7941 12.8823 28.6652 13.2775 28.4927 13.6151C28.3989 13.7765 28.2851 13.9128 28.1638 14.0378C28.0575 14.1604 27.9286 14.2529 27.7923 14.3355C27.8061 14.877 27.7811 15.421 27.7148 15.9612C27.8249 15.8212 27.9337 15.6798 28.0537 15.5585C28.3326 15.3034 28.6277 15.0683 29.0029 14.947C29.0167 14.9683 29.0292 14.9895 29.0429 15.0108C28.9229 15.5398 28.6903 15.9212 28.4276 16.2326C28.2913 16.3802 28.14 16.4977 27.9837 16.6015C27.8586 16.6953 27.7186 16.7553 27.576 16.8091C27.4697 17.3369 27.3234 17.8584 27.1383 18.3711C27.2796 18.2586 27.4184 18.1435 27.5647 18.0472C27.9174 17.8409 28.2788 17.6558 28.694 17.6007C28.7028 17.6245 28.7103 17.6483 28.719 17.672C28.4627 18.1885 28.1275 18.5324 27.7761 18.7976C27.5972 18.9214 27.4109 19.0102 27.2221 19.0852C27.0845 19.1477 26.9407 19.1752 26.7981 19.2015C26.573 19.6942 26.3079 20.1745 26.0052 20.6372C26.1728 20.5571 26.3392 20.4721 26.5067 20.4096C26.9269 20.272 27.3496 20.1532 27.7936 20.1719C27.7961 20.1982 27.7986 20.2232 27.8011 20.2495C27.4047 20.7247 26.9657 21.0061 26.5305 21.2037C26.3116 21.2925 26.0928 21.345 25.8752 21.3825C25.7326 21.4138 25.5926 21.4088 25.4512 21.41C25.2161 21.7102 24.9623 22.0003 24.6921 22.2804C24.5496 22.1379 24.4058 21.9941 24.2632 21.8515C24.5746 21.5513 24.8635 21.2349 25.1311 20.9073C25.1448 20.7997 25.1498 20.6959 25.1348 20.5971C25.1086 20.3883 24.9898 20.2082 24.9322 20.0131C24.8772 19.8168 24.8735 19.6092 24.876 19.3991C24.8822 19.1877 24.896 18.9764 24.9635 18.7425C24.9798 18.735 24.9998 18.7275 25.0198 18.72Z" fill="white"/>
<path d="M16.1081 19V17.3468L20.0486 13.7702C20.3838 13.4523 20.6649 13.1662 20.8919 12.9118C21.1225 12.6575 21.2973 12.4085 21.4162 12.1647C21.5351 11.9175 21.5946 11.6508 21.5946 11.3646C21.5946 11.0467 21.5207 10.773 21.373 10.5434C21.2252 10.3102 21.0234 10.1318 20.7676 10.0082C20.5117 9.88102 20.2216 9.81744 19.8973 9.81744C19.5586 9.81744 19.2631 9.88455 19.0108 10.0188C18.7586 10.153 18.564 10.3455 18.427 10.5963C18.2901 10.8471 18.2216 11.1456 18.2216 11.4918H16C16 10.7818 16.164 10.1654 16.4919 9.64258C16.8198 9.11978 17.2793 8.71532 17.8703 8.42919C18.4613 8.14306 19.1423 8 19.9135 8C20.7063 8 21.3964 8.13776 21.9838 8.41329C22.5748 8.68529 23.0342 9.06326 23.3622 9.54721C23.6901 10.0311 23.8541 10.5857 23.8541 11.211C23.8541 11.6207 23.7712 12.0252 23.6054 12.4244C23.4432 12.8235 23.1532 13.2669 22.7351 13.7543C22.3171 14.2383 21.7279 14.8194 20.9676 15.4976L19.3514 17.0501V17.1243H24V19H16.1081Z" fill="white"/>
<defs>
<linearGradient id="paint0_linear_388_10196" x1="20.0002" y1="4.177" x2="20.0002" y2="25.013" gradientUnits="userSpaceOnUse">
<stop stop-color="#D3D3D3"/>
<stop offset="1" stop-color="#5B5B5B"/>
</linearGradient>
</defs>
</svg>
