<svg width="22" height="22" viewBox="0 0 22 22" fill="none" xmlns="http://www.w3.org/2000/svg">
<path d="M10.6 5.60938C7.6 5.60938 5.20937 8.04688 5.20937 11C5.20937 14 7.6 16.3906 10.6 16.3906C13.5531 16.3906 15.9906 14 15.9906 11C15.9906 8.04688 13.5531 5.60938 10.6 5.60938ZM10.6 14.5156C8.67812 14.5156 7.08437 12.9688 7.08437 11C7.08437 9.07812 8.63125 7.53125 10.6 7.53125C12.5219 7.53125 14.0687 9.07812 14.0687 11C14.0687 12.9688 12.5219 14.5156 10.6 14.5156ZM17.4437 5.42188C17.4437 4.71875 16.8812 4.15625 16.1781 4.15625C15.475 4.15625 14.9125 4.71875 14.9125 5.42188C14.9125 6.125 15.475 6.6875 16.1781 6.6875C16.8812 6.6875 17.4437 6.125 17.4437 5.42188ZM21.0062 6.6875C20.9125 5 20.5375 3.5 19.3187 2.28125C18.1 1.0625 16.6 0.6875 14.9125 0.59375C13.1781 0.5 7.975 0.5 6.24062 0.59375C4.55312 0.6875 3.1 1.0625 1.83437 2.28125C0.615625 3.5 0.240625 5 0.146875 6.6875C0.0531249 8.42188 0.0531249 13.625 0.146875 15.3594C0.240625 17.0469 0.615625 18.5 1.83437 19.7656C3.1 20.9844 4.55312 21.3594 6.24062 21.4531C7.975 21.5469 13.1781 21.5469 14.9125 21.4531C16.6 21.3594 18.1 20.9844 19.3187 19.7656C20.5375 18.5 20.9125 17.0469 21.0062 15.3594C21.1 13.625 21.1 8.42188 21.0062 6.6875ZM18.7562 17.1875C18.4281 18.125 17.6781 18.8281 16.7875 19.2031C15.3812 19.7656 12.1 19.625 10.6 19.625C9.05312 19.625 5.77187 19.7656 4.4125 19.2031C3.475 18.8281 2.77187 18.125 2.39687 17.1875C1.83437 15.8281 1.975 12.5469 1.975 11C1.975 9.5 1.83437 6.21875 2.39687 4.8125C2.77187 3.92188 3.475 3.21875 4.4125 2.84375C5.77187 2.28125 9.05312 2.42188 10.6 2.42188C12.1 2.42188 15.3812 2.28125 16.7875 2.84375C17.6781 3.17188 18.3812 3.92188 18.7562 4.8125C19.3187 6.21875 19.1781 9.5 19.1781 11C19.1781 12.5469 19.3187 15.8281 18.7562 17.1875Z" fill="white"/>
</svg>
