<svg width="274" height="58" viewBox="0 0 274 58" fill="none" xmlns="http://www.w3.org/2000/svg">
<g clip-path="url(#clip0_510_4)">
<path d="M0 42.0851L8.13158 46.4468V25.1835L0 30.0904V42.0851Z" fill="#F2C66D"/>
<path d="M8.13158 20.8218L0 25.7287V15.9149L8.13158 11.5532V20.8218Z" fill="#F2C66D"/>
<path d="M22.2263 3.375L12.4684 8.82713V34.9973L22.2263 40.4495L30.3579 35.5426L20.6 30.0904V13.1888L22.2263 12.6436L44.4526 25.1835V16.4601L22.2263 3.375Z" fill="#F2C66D"/>
<path d="M12.4684 48.6277V39.359L22.2263 45.3564L38.4895 35.5426L24.3947 27.3644V18.641L44.4526 30.0904V41.5399L22.2263 54.625L12.4684 48.6277Z" fill="#F2C66D"/>
<path d="M62.4183 20.0121V37.9367H59.4526V20.0121H62.4183Z" fill="white"/>
<path d="M74.137 30.6644C74.137 30.1694 74.0532 29.717 73.8857 29.3073C73.7349 28.8976 73.5171 28.5476 73.2322 28.2574C72.9642 27.9672 72.6458 27.7453 72.2772 27.5916C71.9086 27.438 71.5149 27.3612 71.096 27.3612C70.6436 27.3612 70.2247 27.4465 69.8394 27.6173C69.454 27.788 69.1189 28.027 68.8341 28.3342C68.5492 28.6244 68.3231 28.9744 68.1555 29.3841C67.988 29.7767 67.9042 30.2035 67.9042 30.6644V37.9367H65.0642V25.1334H67.9042V26.465C68.4068 25.9187 68.9681 25.4919 69.5881 25.1846C70.2247 24.8774 70.9201 24.7237 71.674 24.7237C72.3945 24.7237 73.0731 24.8603 73.7098 25.1334C74.3464 25.4066 74.9077 25.7907 75.3936 26.2857C75.8795 26.7808 76.2649 27.3697 76.5497 28.0526C76.8346 28.7354 76.977 29.4865 76.977 30.3059V37.9367H74.137V30.6644Z" fill="white"/>
<path d="M80.3211 27.5148H77.9084V25.1334H80.3211V21.5997H83.1862V25.1334H85.5989V27.5148H83.1862V37.9367H80.3211V27.5148Z" fill="white"/>
<path d="M96.6878 30.4084C96.5705 29.9645 96.3946 29.5463 96.16 29.1536C95.9422 28.761 95.6658 28.4281 95.3307 28.155C95.0123 27.8648 94.6437 27.6429 94.2248 27.4892C93.8227 27.3185 93.3955 27.2332 92.9431 27.2332C92.474 27.2332 92.03 27.3185 91.6111 27.4892C91.1922 27.6429 90.8152 27.8648 90.4801 28.155C90.145 28.4281 89.8518 28.761 89.6005 29.1536C89.3659 29.5463 89.19 29.9645 89.0727 30.4084H96.6878ZM89.0224 32.5849C89.123 33.0629 89.2905 33.5067 89.5251 33.9164C89.7764 34.3261 90.078 34.6846 90.4299 34.9919C90.7817 35.2821 91.1755 35.5126 91.6111 35.6833C92.0467 35.854 92.5075 35.9394 92.9934 35.9394C93.6636 35.9394 94.2751 35.7772 94.828 35.4528C95.3977 35.1114 95.8752 34.659 96.2606 34.0957L98.6984 35.2992C98.0617 36.2722 97.2407 37.049 96.2354 37.6294C95.2469 38.2098 94.1495 38.5 92.9431 38.5C92.0048 38.5 91.1168 38.3208 90.2791 37.9623C89.4581 37.6038 88.7376 37.1087 88.1177 36.4771C87.5145 35.8455 87.0286 35.1114 86.66 34.2749C86.3081 33.4385 86.1322 32.5422 86.1322 31.5863C86.1322 30.6303 86.3081 29.7341 86.66 28.8976C87.0286 28.0611 87.5145 27.327 88.1177 26.6954C88.7376 26.0638 89.4581 25.5687 90.2791 25.2102C91.1168 24.8518 91.9964 24.6725 92.918 24.6725C93.8395 24.6725 94.7024 24.8518 95.5066 25.2102C96.3108 25.5517 97.0145 26.0211 97.6177 26.6186C98.2377 27.199 98.7235 27.8904 99.0754 28.6927C99.444 29.478 99.6451 30.3145 99.6786 31.2022C99.7121 31.6119 99.5864 31.9447 99.3016 32.2008C99.0335 32.4569 98.6817 32.5849 98.246 32.5849H89.0224Z" fill="white"/>
<path d="M107.874 27.3612C107.338 27.3612 106.843 27.4551 106.391 27.6429C105.938 27.8136 105.545 28.0611 105.21 28.3854C104.891 28.6927 104.64 29.0683 104.456 29.5121C104.271 29.9389 104.179 30.3998 104.179 30.8949V37.9367H101.339V25.1334H104.179V26.6186C104.632 26.0211 105.176 25.5602 105.813 25.2358C106.45 24.8944 107.136 24.7237 107.874 24.7237V27.3612Z" fill="white"/>
<path d="M108.485 25.1334H111.451L115.171 34.0701L118.865 25.1334H121.856L116.628 36.9636C116.477 37.305 116.276 37.5867 116.025 37.8086C115.79 38.0305 115.506 38.1415 115.171 38.1415C114.819 38.1415 114.517 38.0305 114.266 37.8086C114.031 37.5867 113.839 37.305 113.688 36.9636L108.485 25.1334Z" fill="white"/>
<path d="M132.276 30.4084C132.158 29.9645 131.982 29.5463 131.748 29.1536C131.53 28.761 131.254 28.4281 130.919 28.155C130.6 27.8648 130.232 27.6429 129.813 27.4892C129.411 27.3185 128.983 27.2332 128.531 27.2332C128.062 27.2332 127.618 27.3185 127.199 27.4892C126.78 27.6429 126.403 27.8648 126.068 28.155C125.733 28.4281 125.44 28.761 125.188 29.1536C124.954 29.5463 124.778 29.9645 124.661 30.4084H132.276ZM124.61 32.5849C124.711 33.0629 124.878 33.5067 125.113 33.9164C125.364 34.3261 125.666 34.6846 126.018 34.9919C126.37 35.2821 126.763 35.5126 127.199 35.6833C127.635 35.854 128.095 35.9394 128.581 35.9394C129.251 35.9394 129.863 35.7772 130.416 35.4528C130.986 35.1114 131.463 34.659 131.848 34.0957L134.286 35.2992C133.65 36.2722 132.829 37.049 131.823 37.6294C130.835 38.2098 129.737 38.5 128.531 38.5C127.593 38.5 126.705 38.3208 125.867 37.9623C125.046 37.6038 124.325 37.1087 123.706 36.4771C123.102 35.8455 122.616 35.1114 122.248 34.2749C121.896 33.4385 121.72 32.5422 121.72 31.5863C121.72 30.6303 121.896 29.7341 122.248 28.8976C122.616 28.0611 123.102 27.327 123.706 26.6954C124.325 26.0638 125.046 25.5687 125.867 25.2102C126.705 24.8518 127.584 24.6725 128.506 24.6725C129.427 24.6725 130.29 24.8518 131.094 25.2102C131.899 25.5517 132.602 26.0211 133.206 26.6186C133.825 27.199 134.311 27.8904 134.663 28.6927C135.032 29.478 135.233 30.3145 135.266 31.2022C135.3 31.6119 135.174 31.9447 134.889 32.2008C134.621 32.4569 134.269 32.5849 133.834 32.5849H124.61Z" fill="white"/>
<path d="M143.462 27.3612C142.925 27.3612 142.431 27.4551 141.979 27.6429C141.526 27.8136 141.133 28.0611 140.797 28.3854C140.479 28.6927 140.228 29.0683 140.044 29.5121C139.859 29.9389 139.767 30.3998 139.767 30.8949V37.9367H136.927V25.1334H139.767V26.6186C140.219 26.0211 140.764 25.5602 141.401 25.2358C142.037 24.8944 142.724 24.7237 143.462 24.7237V27.3612Z" fill="white"/>
<path d="M144.425 28.4367C144.425 27.7367 144.567 27.1478 144.852 26.6698C145.154 26.1748 145.531 25.7821 145.983 25.4919C146.436 25.2017 146.93 24.9969 147.466 24.8774C148.019 24.7408 148.547 24.6725 149.049 24.6725C150.071 24.6725 150.959 24.8944 151.713 25.3383C152.467 25.765 153.104 26.3028 153.623 26.9515L151.487 28.4111C151.202 28.0696 150.867 27.7794 150.482 27.5404C150.113 27.3014 149.661 27.1819 149.125 27.1819C148.907 27.1819 148.689 27.2075 148.471 27.2588C148.254 27.2929 148.052 27.3612 147.868 27.4636C147.701 27.566 147.558 27.7026 147.441 27.8733C147.324 28.027 147.265 28.2233 147.265 28.4623C147.265 28.889 147.483 29.239 147.918 29.5121C148.354 29.7682 148.999 30.0499 149.854 30.3571C150.222 30.4937 150.633 30.6559 151.085 30.8437C151.537 31.0314 151.956 31.279 152.342 31.5863C152.727 31.8935 153.054 32.2862 153.322 32.7642C153.59 33.2251 153.724 33.8055 153.724 34.5054C153.724 35.2394 153.573 35.8625 153.272 36.3747C152.987 36.8697 152.61 37.2709 152.141 37.5782C151.688 37.8854 151.186 38.1074 150.633 38.2439C150.08 38.3805 149.544 38.4488 149.024 38.4488C147.918 38.4488 146.963 38.2098 146.159 37.7318C145.372 37.2538 144.676 36.6563 144.073 35.9394L146.26 34.3005C146.377 34.4712 146.519 34.6505 146.687 34.8383C146.871 35.0261 147.081 35.2053 147.315 35.376C147.55 35.5296 147.809 35.6662 148.094 35.7857C148.379 35.8881 148.689 35.9394 149.024 35.9394C149.209 35.9394 149.41 35.9223 149.627 35.8881C149.845 35.8369 150.046 35.7601 150.231 35.6577C150.415 35.5382 150.566 35.3931 150.683 35.2224C150.817 35.0346 150.884 34.8041 150.884 34.531C150.884 34.053 150.658 33.6604 150.205 33.3531C149.753 33.0458 148.991 32.6959 147.918 32.3032C147.583 32.1837 147.215 32.0386 146.813 31.8679C146.41 31.6801 146.033 31.4411 145.682 31.1509C145.33 30.8607 145.028 30.4937 144.777 30.0499C144.542 29.606 144.425 29.0683 144.425 28.4367Z" fill="white"/>
<path d="M165.483 30.4084C165.366 29.9645 165.19 29.5463 164.955 29.1536C164.737 28.761 164.461 28.4281 164.126 28.155C163.807 27.8648 163.439 27.6429 163.02 27.4892C162.618 27.3185 162.19 27.2332 161.738 27.2332C161.269 27.2332 160.825 27.3185 160.406 27.4892C159.987 27.6429 159.61 27.8648 159.275 28.155C158.94 28.4281 158.647 28.761 158.395 29.1536C158.161 29.5463 157.985 29.9645 157.868 30.4084H165.483ZM157.817 32.5849C157.918 33.0629 158.085 33.5067 158.32 33.9164C158.571 34.3261 158.873 34.6846 159.225 34.9919C159.577 35.2821 159.97 35.5126 160.406 35.6833C160.842 35.854 161.302 35.9394 161.788 35.9394C162.459 35.9394 163.07 35.7772 163.623 35.4528C164.193 35.1114 164.67 34.659 165.056 34.0957L167.493 35.2992C166.857 36.2722 166.036 37.049 165.03 37.6294C164.042 38.2098 162.944 38.5 161.738 38.5C160.8 38.5 159.912 38.3208 159.074 37.9623C158.253 37.6038 157.533 37.1087 156.913 36.4771C156.309 35.8455 155.824 35.1114 155.455 34.2749C155.103 33.4385 154.927 32.5422 154.927 31.5863C154.927 30.6303 155.103 29.7341 155.455 28.8976C155.824 28.0611 156.309 27.327 156.913 26.6954C157.533 26.0638 158.253 25.5687 159.074 25.2102C159.912 24.8518 160.791 24.6725 161.713 24.6725C162.634 24.6725 163.497 24.8518 164.302 25.2102C165.106 25.5517 165.81 26.0211 166.413 26.6186C167.033 27.199 167.519 27.8904 167.87 28.6927C168.239 29.478 168.44 30.3145 168.474 31.2022C168.507 31.6119 168.381 31.9447 168.097 32.2008C167.828 32.4569 167.477 32.5849 167.041 32.5849H157.817Z" fill="white"/>
<path d="M175.141 24.6213C175.141 23.6653 175.325 22.863 175.693 22.2143C176.062 21.5485 176.531 21.0193 177.101 20.6267C177.687 20.217 178.324 19.9268 179.011 19.7561C179.698 19.5854 180.36 19.5 180.996 19.5C182.236 19.5 183.317 19.7731 184.238 20.3194C185.16 20.8486 185.931 21.5229 186.551 22.3423L184.238 23.9555C183.853 23.5117 183.384 23.119 182.831 22.7776C182.278 22.4362 181.625 22.2655 180.871 22.2655C180.569 22.2655 180.251 22.3082 179.916 22.3935C179.597 22.4618 179.304 22.5813 179.036 22.752C178.768 22.9057 178.542 23.1276 178.357 23.4178C178.19 23.6909 178.106 24.0323 178.106 24.442C178.106 24.8347 178.19 25.1761 178.357 25.4663C178.525 25.7565 178.768 26.0211 179.086 26.2601C179.421 26.4991 179.824 26.7296 180.293 26.9515C180.762 27.1563 181.298 27.3783 181.901 27.6173C182.37 27.788 182.89 28.0013 183.459 28.2574C184.029 28.5135 184.557 28.8549 185.043 29.2817C185.545 29.6914 185.964 30.212 186.299 30.8437C186.634 31.4582 186.802 32.235 186.802 33.1739C186.802 34.164 186.609 35.0004 186.224 35.6833C185.855 36.3491 185.378 36.8868 184.791 37.2965C184.205 37.7062 183.551 37.9964 182.831 38.1671C182.127 38.3549 181.449 38.4488 180.795 38.4488C180.125 38.4488 179.505 38.3634 178.935 38.1927C178.366 38.0391 177.83 37.8257 177.327 37.5526C176.841 37.2624 176.389 36.9295 175.97 36.5539C175.551 36.1613 175.157 35.7345 174.789 35.2736L177 33.6604C177.201 33.8994 177.436 34.1384 177.704 34.3774C177.989 34.6164 178.29 34.8383 178.609 35.0431C178.944 35.2309 179.296 35.3845 179.664 35.504C180.033 35.6235 180.427 35.6833 180.846 35.6833C181.147 35.6833 181.465 35.6491 181.801 35.5809C182.152 35.4955 182.479 35.3589 182.781 35.1712C183.082 34.9834 183.325 34.7444 183.51 34.4542C183.711 34.1469 183.811 33.7628 183.811 33.3019C183.811 32.8751 183.719 32.5081 183.535 32.2008C183.35 31.8935 183.099 31.6204 182.781 31.3814C182.462 31.1253 182.085 30.8949 181.65 30.69C181.214 30.4852 180.737 30.2803 180.217 30.0755C179.681 29.8706 179.111 29.6402 178.508 29.3841C177.922 29.111 177.377 28.7695 176.875 28.3598C176.372 27.9501 175.953 27.4465 175.618 26.8491C175.3 26.2516 175.141 25.509 175.141 24.6213Z" fill="white"/>
<path d="M188.134 31.5863C188.134 30.6303 188.31 29.7341 188.662 28.8976C189.031 28.0611 189.525 27.327 190.145 26.6954C190.782 26.0638 191.519 25.5687 192.357 25.2102C193.194 24.8518 194.091 24.6725 195.046 24.6725C196.001 24.6725 196.897 24.8518 197.735 25.2102C198.573 25.5687 199.301 26.0638 199.921 26.6954C200.558 27.327 201.052 28.0611 201.404 28.8976C201.773 29.7341 201.957 30.6303 201.957 31.5863C201.957 32.5422 201.773 33.4385 201.404 34.2749C201.052 35.1114 200.558 35.8455 199.921 36.4771C199.301 37.1087 198.573 37.6038 197.735 37.9623C196.897 38.3208 196.001 38.5 195.046 38.5C194.091 38.5 193.194 38.3208 192.357 37.9623C191.519 37.6038 190.782 37.1087 190.145 36.4771C189.525 35.8455 189.031 35.1114 188.662 34.2749C188.31 33.4385 188.134 32.5422 188.134 31.5863ZM190.924 31.5606C190.924 32.1411 191.033 32.6959 191.251 33.2251C191.469 33.7543 191.762 34.2237 192.13 34.6334C192.499 35.0261 192.935 35.3419 193.437 35.5809C193.957 35.8028 194.501 35.9137 195.071 35.9137C195.641 35.9137 196.168 35.8028 196.654 35.5809C197.157 35.3419 197.592 35.0261 197.961 34.6334C198.33 34.2237 198.623 33.7543 198.841 33.2251C199.059 32.6959 199.167 32.1411 199.167 31.5606C199.167 30.9802 199.059 30.434 198.841 29.9218C198.623 29.3926 198.33 28.9317 197.961 28.5391C197.592 28.1465 197.157 27.8392 196.654 27.6173C196.168 27.3783 195.641 27.2588 195.071 27.2588C194.501 27.2588 193.957 27.3783 193.437 27.6173C192.935 27.8392 192.499 28.1465 192.13 28.5391C191.762 28.9317 191.469 29.3926 191.251 29.9218C191.033 30.434 190.924 30.9802 190.924 31.5606Z" fill="white"/>
<path d="M206.427 37.9367H203.587V20.0121H206.427V37.9367Z" fill="white"/>
<path d="M211.532 32.4057C211.532 32.9007 211.607 33.3531 211.758 33.7628C211.926 34.1725 212.143 34.5225 212.411 34.8127C212.696 35.1029 213.023 35.3248 213.392 35.4784C213.76 35.6321 214.154 35.7089 214.573 35.7089C215.025 35.7089 215.444 35.6235 215.829 35.4528C216.215 35.2821 216.55 35.0517 216.835 34.7615C217.12 34.4542 217.346 34.1042 217.513 33.7116C217.681 33.3019 217.765 32.8666 217.765 32.4057V25.1334H220.605V37.9367H217.765V36.6051C217.262 37.1514 216.692 37.5782 216.056 37.8854C215.436 38.1927 214.749 38.3464 213.995 38.3464C213.274 38.3464 212.596 38.2098 211.959 37.9367C211.322 37.6635 210.761 37.2794 210.275 36.7844C209.789 36.2893 209.404 35.7004 209.119 35.0175C208.834 34.3347 208.692 33.5836 208.692 32.7642V25.1334H211.532V32.4057Z" fill="white"/>
<path d="M224.587 27.5148H222.174V25.1334H224.587V21.5997H227.452V25.1334H229.865V27.5148H227.452V37.9367H224.587V27.5148Z" fill="white"/>
<path d="M231.143 21.3437C231.143 20.8486 231.311 20.4304 231.646 20.0889C231.998 19.7305 232.416 19.5512 232.902 19.5512C233.388 19.5512 233.799 19.7305 234.134 20.0889C234.486 20.4304 234.662 20.8486 234.662 21.3437C234.662 21.8387 234.486 22.2655 234.134 22.624C233.799 22.9654 233.388 23.1361 232.902 23.1361C232.416 23.1361 231.998 22.9654 231.646 22.624C231.311 22.2655 231.143 21.8387 231.143 21.3437ZM231.495 25.1334H234.335V37.9367H231.495V25.1334Z" fill="white"/>
<path d="M236.043 31.5863C236.043 30.6303 236.219 29.7341 236.571 28.8976C236.939 28.0611 237.434 27.327 238.054 26.6954C238.69 26.0638 239.427 25.5687 240.265 25.2102C241.103 24.8518 241.999 24.6725 242.954 24.6725C243.909 24.6725 244.806 24.8518 245.643 25.2102C246.481 25.5687 247.21 26.0638 247.83 26.6954C248.467 27.327 248.961 28.0611 249.313 28.8976C249.681 29.7341 249.866 30.6303 249.866 31.5863C249.866 32.5422 249.681 33.4385 249.313 34.2749C248.961 35.1114 248.467 35.8455 247.83 36.4771C247.21 37.1087 246.481 37.6038 245.643 37.9623C244.806 38.3208 243.909 38.5 242.954 38.5C241.999 38.5 241.103 38.3208 240.265 37.9623C239.427 37.6038 238.69 37.1087 238.054 36.4771C237.434 35.8455 236.939 35.1114 236.571 34.2749C236.219 33.4385 236.043 32.5422 236.043 31.5863ZM238.833 31.5606C238.833 32.1411 238.942 32.6959 239.159 33.2251C239.377 33.7543 239.67 34.2237 240.039 34.6334C240.408 35.0261 240.843 35.3419 241.346 35.5809C241.865 35.8028 242.41 35.9137 242.979 35.9137C243.549 35.9137 244.077 35.8028 244.563 35.5809C245.065 35.3419 245.501 35.0261 245.87 34.6334C246.238 34.2237 246.531 33.7543 246.749 33.2251C246.967 32.6959 247.076 32.1411 247.076 31.5606C247.076 30.9802 246.967 30.434 246.749 29.9218C246.531 29.3926 246.238 28.9317 245.87 28.5391C245.501 28.1465 245.065 27.8392 244.563 27.6173C244.077 27.3783 243.549 27.2588 242.979 27.2588C242.41 27.2588 241.865 27.3783 241.346 27.6173C240.843 27.8392 240.408 28.1465 240.039 28.5391C239.67 28.9317 239.377 29.3926 239.159 29.9218C238.942 30.434 238.833 30.9802 238.833 31.5606Z" fill="white"/>
<path d="M260.568 30.6644C260.568 30.1694 260.484 29.717 260.317 29.3073C260.166 28.8976 259.948 28.5476 259.663 28.2574C259.395 27.9672 259.077 27.7453 258.708 27.5916C258.34 27.438 257.946 27.3612 257.527 27.3612C257.075 27.3612 256.656 27.4465 256.271 27.6173C255.885 27.788 255.55 28.027 255.265 28.3342C254.98 28.6244 254.754 28.9744 254.587 29.3841C254.419 29.7767 254.335 30.2035 254.335 30.6644V37.9367H251.495V25.1334H254.335V26.465C254.838 25.9187 255.399 25.4919 256.019 25.1846C256.656 24.8774 257.351 24.7237 258.105 24.7237C258.826 24.7237 259.504 24.8603 260.141 25.1334C260.778 25.4066 261.339 25.7907 261.825 26.2857C262.311 26.7808 262.696 27.3697 262.981 28.0526C263.266 28.7354 263.408 29.4865 263.408 30.3059V37.9367H260.568V30.6644Z" fill="white"/>
<path d="M265.154 28.4367C265.154 27.7367 265.296 27.1478 265.581 26.6698C265.883 26.1748 266.259 25.7821 266.712 25.4919C267.164 25.2017 267.659 24.9969 268.195 24.8774C268.748 24.7408 269.275 24.6725 269.778 24.6725C270.8 24.6725 271.688 24.8944 272.442 25.3383C273.196 25.765 273.833 26.3028 274.352 26.9515L272.216 28.4111C271.931 28.0696 271.596 27.7794 271.211 27.5404C270.842 27.3014 270.39 27.1819 269.853 27.1819C269.636 27.1819 269.418 27.2075 269.2 27.2588C268.982 27.2929 268.781 27.3612 268.597 27.4636C268.429 27.566 268.287 27.7026 268.17 27.8733C268.052 28.027 267.994 28.2233 267.994 28.4623C267.994 28.889 268.211 29.239 268.647 29.5121C269.083 29.7682 269.728 30.0499 270.582 30.3571C270.951 30.4937 271.361 30.6559 271.814 30.8437C272.266 31.0314 272.685 31.279 273.07 31.5863C273.456 31.8935 273.782 32.2862 274.051 32.7642C274.319 33.2251 274.453 33.8055 274.453 34.5054C274.453 35.2394 274.302 35.8625 274 36.3747C273.715 36.8697 273.338 37.2709 272.869 37.5782C272.417 37.8854 271.914 38.1074 271.361 38.2439C270.808 38.3805 270.272 38.4488 269.753 38.4488C268.647 38.4488 267.692 38.2098 266.888 37.7318C266.1 37.2538 265.405 36.6563 264.802 35.9394L266.988 34.3005C267.106 34.4712 267.248 34.6505 267.416 34.8383C267.6 35.0261 267.809 35.2053 268.044 35.376C268.278 35.5296 268.538 35.6662 268.823 35.7857C269.108 35.8881 269.418 35.9394 269.753 35.9394C269.937 35.9394 270.138 35.9223 270.356 35.8881C270.574 35.8369 270.775 35.7601 270.959 35.6577C271.144 35.5382 271.294 35.3931 271.412 35.2224C271.546 35.0346 271.613 34.8041 271.613 34.531C271.613 34.053 271.387 33.6604 270.934 33.3531C270.482 33.0458 269.719 32.6959 268.647 32.3032C268.312 32.1837 267.943 32.0386 267.541 31.8679C267.139 31.6801 266.762 31.4411 266.41 31.1509C266.058 30.8607 265.757 30.4937 265.506 30.0499C265.271 29.606 265.154 29.0683 265.154 28.4367Z" fill="white"/>
</g>
<defs>
<clipPath id="clip0_510_4">
<rect width="274" height="57" fill="white" transform="translate(0 0.5)"/>
</clipPath>
</defs>
</svg>
