<svg xmlns="http://www.w3.org/2000/svg" width="38" height="38" viewBox="0 0 38 38" fill="none">
  <g clip-path="url(#clip0_388_16543)">
    <path fill-rule="evenodd" clip-rule="evenodd" d="M37.9998 1.34104L37.6722 5.59739C37.6463 5.9559 37.4154 6.26621 37.0813 6.39146C36.7472 6.51671 36.3713 6.43387 36.1195 6.17949L35.1695 5.22079L28.8523 11.6C27.8278 12.6309 26.1692 12.6309 25.1447 11.6L22.2206 8.64992C21.9648 8.39198 21.5501 8.39198 21.2942 8.64992L11.6822 18.3473C11.1906 18.8436 10.5236 19.1224 9.82805 19.1224C9.1325 19.1224 8.46547 18.8436 7.97392 18.3473L6.36023 16.7193C6.10446 16.4618 5.69024 16.4618 5.43447 16.7193L2.23526 19.9403C1.72257 20.4487 0.900362 20.4487 0.387674 19.9403C0.139693 19.6947 0 19.3589 0 19.0083C0 18.6578 0.139693 18.322 0.387674 18.0764L4.04354 14.3817C4.53507 13.8856 5.20195 13.6069 5.89735 13.6069C6.59274 13.6069 7.25962 13.8856 7.75116 14.3817L9.8274 16.4768L19.9039 6.31428C20.3955 5.81821 21.0624 5.53949 21.7578 5.53949C22.4532 5.53949 23.12 5.81821 23.6116 6.31428L26.5343 9.26108C26.6572 9.38515 26.8239 9.45486 26.9978 9.45486C27.1717 9.45486 27.3385 9.38515 27.4614 9.26108L33.3199 3.35029L32.3699 2.39225C32.1187 2.13898 32.0371 1.76114 32.1611 1.42544C32.2852 1.08974 32.5921 0.857933 32.9465 0.83229L37.1723 0.499949C37.3971 0.485208 37.6172 0.569318 37.7759 0.730583C37.9345 0.891848 38.0162 1.11448 37.9998 1.34104Z" fill="#4FBA6F"/>
    <path d="M9.8272 36.1789H1.96513C1.24145 36.1789 0.654785 36.7705 0.654785 37.5003C0.654785 38.2301 1.24145 38.8218 1.96513 38.8218H9.8272C10.5509 38.8218 11.1375 38.2301 11.1375 37.5003C11.1375 36.7705 10.5509 36.1789 9.8272 36.1789Z" fill="#F0C419"/>
    <path d="M22.9307 36.1789H15.0686C14.345 36.1789 13.7583 36.7705 13.7583 37.5003C13.7583 38.2301 14.345 38.8218 15.0686 38.8218H22.9307C23.6544 38.8218 24.2411 38.2301 24.2411 37.5003C24.2411 36.7705 23.6544 36.1789 22.9307 36.1789Z" fill="#F0C419"/>
    <path d="M22.9307 33.5361H15.0686C14.345 33.5361 13.7583 34.1277 13.7583 34.8575C13.7583 35.5873 14.345 36.1789 15.0686 36.1789H22.9307C23.6544 36.1789 24.2411 35.5873 24.2411 34.8575C24.2411 34.1277 23.6544 33.5361 22.9307 33.5361Z" fill="#F3D55B"/>
    <path d="M22.9307 30.8932H15.0686C14.345 30.8932 13.7583 31.4848 13.7583 32.2146C13.7583 32.9444 14.345 33.5361 15.0686 33.5361H22.9307C23.6544 33.5361 24.2411 32.9444 24.2411 32.2146C24.2411 31.4848 23.6544 30.8932 22.9307 30.8932Z" fill="#F0C419"/>
    <path d="M36.0342 36.1789H28.1722C27.4485 36.1789 26.8618 36.7705 26.8618 37.5003C26.8618 38.2301 27.4485 38.8218 28.1722 38.8218H36.0342C36.7579 38.8218 37.3446 38.2301 37.3446 37.5003C37.3446 36.7705 36.7579 36.1789 36.0342 36.1789Z" fill="#F0C419"/>
    <path d="M19.0001 30.8931C22.2566 30.8931 24.8966 28.2308 24.8966 24.9467C24.8966 21.6625 22.2566 19.0002 19.0001 19.0002C15.7435 19.0002 13.1035 21.6625 13.1035 24.9467C13.1035 28.2308 15.7435 30.8931 19.0001 30.8931Z" fill="#F3D55B"/>
    <path d="M36.0342 33.5361H28.1722C27.4485 33.5361 26.8618 34.1277 26.8618 34.8575C26.8618 35.5873 27.4485 36.1789 28.1722 36.1789H36.0342C36.7579 36.1789 37.3446 35.5873 37.3446 34.8575C37.3446 34.1277 36.7579 33.5361 36.0342 33.5361Z" fill="#F3D55B"/>
    <path d="M36.0342 30.8932H28.1722C27.4485 30.8932 26.8618 31.4848 26.8618 32.2146C26.8618 32.9444 27.4485 33.5361 28.1722 33.5361H36.0342C36.7579 33.5361 37.3446 32.9444 37.3446 32.2146C37.3446 31.4848 36.7579 30.8932 36.0342 30.8932Z" fill="#F0C419"/>
    <path d="M36.0342 28.2503H28.1722C27.4485 28.2503 26.8618 28.8419 26.8618 29.5717C26.8618 30.3016 27.4485 30.8932 28.1722 30.8932H36.0342C36.7579 30.8932 37.3446 30.3016 37.3446 29.5717C37.3446 28.8419 36.7579 28.2503 36.0342 28.2503Z" fill="#F3D55B"/>
    <path d="M36.0342 25.6074H28.1722C27.4485 25.6074 26.8618 26.199 26.8618 26.9289C26.8618 27.6587 27.4485 28.2503 28.1722 28.2503H36.0342C36.7579 28.2503 37.3446 27.6587 37.3446 26.9289C37.3446 26.199 36.7579 25.6074 36.0342 25.6074Z" fill="#F0C419"/>
    <path d="M32.1038 25.6074C35.3604 25.6074 38.0004 22.945 38.0004 19.6609C38.0004 16.3767 35.3604 13.7144 32.1038 13.7144C28.8473 13.7144 26.2073 16.3767 26.2073 19.6609C26.2073 22.945 28.8473 25.6074 32.1038 25.6074Z" fill="#F3D55B"/>
    <path d="M5.89655 36.1788C9.15313 36.1788 11.7931 33.5165 11.7931 30.2324C11.7931 26.9482 9.15313 24.2859 5.89655 24.2859C2.63998 24.2859 0 26.9482 0 30.2324C0 33.5165 2.63998 36.1788 5.89655 36.1788Z" fill="#F3D55B"/>
    <path fill-rule="evenodd" clip-rule="evenodd" d="M19.0007 24.2858C18.6829 24.2855 18.4111 24.0552 18.3561 23.7394C18.3011 23.4237 18.4787 23.1137 18.7775 23.0042C19.0762 22.8946 19.4098 23.0171 19.5688 23.2948C19.6819 23.5068 19.9005 23.64 20.1393 23.6423C20.378 23.6447 20.5992 23.5159 20.7164 23.3061C20.8337 23.0963 20.8285 22.8388 20.7029 22.634C20.4653 22.2321 20.0945 21.9278 19.6559 21.7751V21.643C19.6559 21.2781 19.3626 20.9822 19.0007 20.9822C18.6389 20.9822 18.3455 21.2781 18.3455 21.643V21.7645C17.4437 22.0849 16.9024 23.0145 17.0644 23.9648C17.2265 24.9152 18.0445 25.6091 19.0007 25.6073C19.3186 25.6076 19.5904 25.838 19.6454 26.1537C19.7004 26.4694 19.5227 26.7794 19.224 26.8889C18.9252 26.9985 18.5916 26.876 18.4327 26.5984C18.2464 26.2946 17.8544 26.1952 17.5478 26.3739C17.2411 26.5525 17.1308 26.9446 17.2986 27.2591C17.5364 27.6613 17.9078 27.9656 18.3469 28.118V28.2501C18.3469 28.6151 18.6402 28.9109 19.002 28.9109C19.3639 28.9109 19.6572 28.6151 19.6572 28.2501V28.1286C20.5593 27.8081 21.1006 26.8781 20.9382 25.9276C20.7758 24.9771 19.9572 24.2834 19.0007 24.2858Z" fill="#B19046"/>
    <path fill-rule="evenodd" clip-rule="evenodd" d="M34.0695 20.9823C34.0695 19.8876 33.1895 19.0001 32.104 19.0001C31.7861 18.9998 31.5143 18.7694 31.4593 18.4537C31.4043 18.138 31.582 17.828 31.8807 17.7185C32.1795 17.6089 32.5131 17.7314 32.672 18.009C32.8583 18.3128 33.2503 18.4122 33.5569 18.2335C33.8636 18.0549 33.974 17.6628 33.8061 17.3483C33.5689 16.9461 33.1979 16.6418 32.7592 16.4894V16.3573C32.7592 15.9923 32.4658 15.6965 32.104 15.6965C31.7422 15.6965 31.4488 15.9923 31.4488 16.3573V16.4788C30.5469 16.7992 30.0057 17.7288 30.1677 18.6791C30.3297 19.6295 31.1478 20.3234 32.104 20.3216C32.4219 20.3219 32.6937 20.5522 32.7486 20.868C32.8036 21.1837 32.626 21.4937 32.3272 21.6032C32.0285 21.7128 31.6949 21.5903 31.536 21.3126C31.3496 21.0089 30.9577 20.9095 30.6511 21.0881C30.3444 21.2668 30.234 21.6589 30.4019 21.9734C30.6394 22.3758 31.0109 22.6802 31.4501 22.8323V22.9644C31.4501 23.3293 31.7435 23.6252 32.1053 23.6252C32.4671 23.6252 32.7605 23.3293 32.7605 22.9644V22.8429C33.5425 22.5634 34.0663 21.8189 34.0695 20.9823Z" fill="#B19046"/>
    <path fill-rule="evenodd" clip-rule="evenodd" d="M5.8972 29.5715C5.57933 29.5712 5.30754 29.3409 5.25255 29.0251C5.19756 28.7094 5.37523 28.3994 5.67396 28.2899C5.9727 28.1803 6.3063 28.3028 6.46524 28.5805C6.57839 28.7925 6.79699 28.9257 7.03576 28.928C7.27453 28.9304 7.49567 28.8016 7.61292 28.5918C7.73017 28.382 7.72497 28.1245 7.59934 27.9197C7.36182 27.5178 6.99096 27.2135 6.55238 27.0608V26.9287C6.55238 26.5638 6.25905 26.2679 5.8972 26.2679C5.53536 26.2679 5.24203 26.5638 5.24203 26.9287V27.0502C4.34016 27.3706 3.79889 28.3002 3.96092 29.2505C4.12295 30.2009 4.94102 30.8948 5.8972 30.893C6.21508 30.8933 6.48686 31.1237 6.54186 31.4394C6.59685 31.7551 6.41918 32.0651 6.12045 32.1746C5.82171 32.2842 5.48811 32.1617 5.32917 31.8841C5.21601 31.672 4.99742 31.5388 4.75865 31.5365C4.51988 31.5341 4.29874 31.6629 4.18149 31.8727C4.06424 32.0825 4.06944 32.34 4.19507 32.5448C4.43291 32.947 4.80428 33.2513 5.24334 33.4037V33.5359C5.24334 33.9008 5.53667 34.1966 5.89852 34.1966C6.26036 34.1966 6.55369 33.9008 6.55369 33.5359V33.4143C7.4558 33.0939 7.99709 32.1638 7.8347 31.2133C7.67232 30.2628 6.85364 29.5691 5.8972 29.5715Z" fill="#B19046"/>
  </g>
  <defs>
    <clipPath id="clip0_388_16543">
      <rect width="38" height="37" fill="white" transform="translate(0 0.5)"/>
    </clipPath>
  </defs>
</svg>