<svg xmlns="http://www.w3.org/2000/svg" width="33" height="33" viewBox="0 0 33 33" fill="none">
  <path fill-rule="evenodd" clip-rule="evenodd" d="M16.478 2.61705C13.4845 1.12132 10.1718 1.87799 8.05727 3.92265C4.68334 4.45709 1.8335 7.34441 1.8335 11.1924V21.8076C1.8335 25.6556 4.68334 28.543 8.05728 29.0774C10.1718 31.122 13.4845 31.8787 16.478 30.383L27.1006 25.0754C30.5215 23.366 31.7715 19.6602 30.8946 16.5C31.7715 13.3399 30.5215 9.63397 27.1006 7.92467L16.478 2.61705ZM8.50016 12.129C8.50016 9.43738 11.3358 7.6837 13.7481 8.88903L22.496 13.26C25.1682 14.5951 25.1682 18.4048 22.496 19.74L13.7481 24.111C11.3358 25.3163 8.50016 23.5627 8.50016 20.871V12.129Z" fill="black"/>
  <path fill-rule="evenodd" clip-rule="evenodd" d="M15.5052 11.5342C13.2069 10.3858 10.5 12.0553 10.5 14.6267V18.3733C10.5 20.9447 13.2069 22.6141 15.5052 21.4657L19.2544 19.5925C21.8041 18.3185 21.8041 14.6815 19.2544 13.4075L15.5052 11.5342Z" fill="black"/>
</svg>