<svg width="25" height="24" viewBox="0 0 25 24" fill="none" xmlns="http://www.w3.org/2000/svg">
<g id="search 1" clip-path="url(#clip0_388_18091)">
<path id="Vector" d="M6.04676 14.4183L5.23983 17.4306L2.29054 17.493C1.40913 15.8582 0.90918 13.9878 0.90918 12.0001C0.90918 10.0781 1.37662 8.26552 2.20519 6.66956H2.20582L4.83152 7.15094L5.98174 9.76089C5.741 10.4627 5.60979 11.2161 5.60979 12.0001C5.60988 12.851 5.764 13.6662 6.04676 14.4183Z" fill="#FBBB00"/>
<path id="Vector_2" d="M23.8884 9.83447C24.0216 10.5356 24.091 11.2597 24.091 11.9998C24.091 12.8296 24.0037 13.6391 23.8375 14.4199C23.2733 17.0769 21.7989 19.397 19.7565 21.0388L19.7559 21.0382L16.4487 20.8694L15.9806 17.9475C17.3358 17.1527 18.3949 15.9089 18.9528 14.4199H12.7549V9.83447H19.0433H23.8884Z" fill="#518EF8"/>
<path id="Vector_3" d="M19.7554 21.0385L19.756 21.0391C17.7697 22.6357 15.2464 23.591 12.4996 23.591C8.0855 23.591 4.24777 21.1238 2.29004 17.493L6.04626 14.4183C7.02511 17.0307 9.54518 18.8903 12.4996 18.8903C13.7695 18.8903 14.9592 18.547 15.98 17.9478L19.7554 21.0385Z" fill="#28B446"/>
<path id="Vector_4" d="M19.8984 3.07756L16.1435 6.15169C15.0869 5.49128 13.838 5.10978 12.5 5.10978C9.47869 5.10978 6.91148 7.05474 5.98168 9.76081L2.20571 6.66948H2.20508C4.13415 2.9502 8.02027 0.409119 12.5 0.409119C15.3124 0.409119 17.891 1.41092 19.8984 3.07756Z" fill="#F14336"/>
</g>
<defs>
<clipPath id="clip0_388_18091">
<rect width="23.1818" height="23.1818" fill="white" transform="translate(0.90918 0.409119)"/>
</clipPath>
</defs>
</svg>
