<svg width="32" height="33" viewBox="0 0 32 33" fill="none" xmlns="http://www.w3.org/2000/svg">
<g clip-path="url(#clip0_1357_1054)">
<path d="M16 0.5C7.2 0.5 0 7.7 0 16.5C0 25.3 7.2 32.5 16 32.5C24.8 32.5 32 25.3 32 16.5C32 7.7 24.88 0.5 16 0.5ZM23.3613 23.62C23.0413 24.0987 22.4813 24.26 22 23.94C18.24 21.62 13.52 21.1387 7.91867 22.4187C7.36133 22.5813 6.88 22.18 6.72 21.7C6.56 21.1387 6.96 20.66 7.44 20.5C13.52 19.1387 18.8 19.7 22.96 22.26C23.52 22.5 23.5987 23.1387 23.3613 23.62ZM25.2813 19.22C24.88 19.78 24.16 20.02 23.5987 19.62C19.28 16.98 12.72 16.18 7.68 17.78C7.04133 17.94 6.32 17.62 6.16 16.98C6 16.34 6.32 15.6187 6.96 15.4587C12.8 13.7 20 14.5813 24.96 17.62C25.4413 17.8613 25.68 18.66 25.2813 19.22ZM25.4413 14.74C20.32 11.7 11.76 11.38 6.88 12.9013C6.08 13.14 5.28 12.66 5.04 11.94C4.8 11.1387 5.28 10.34 6 10.0987C11.68 8.41867 21.04 8.73867 26.9613 12.26C27.68 12.66 27.92 13.62 27.52 14.34C27.1213 14.9013 26.16 15.1387 25.4413 14.74Z" fill="white"/>
</g>
<defs>
<clipPath id="clip0_1357_1054">
<rect width="32" height="32" fill="white" transform="translate(0 0.5)"/>
</clipPath>
</defs>
</svg>
