<svg xmlns="http://www.w3.org/2000/svg" width="33" height="33" viewBox="0 0 33 33" fill="none">
  <g clip-path="url(#clip0_1306_1496)">
    <path d="M16.5 0.5C7.7 0.5 0.5 7.7 0.5 16.5C0.5 25.3 7.7 32.5 16.5 32.5C25.3 32.5 32.5 25.3 32.5 16.5C32.5 7.7 25.38 0.5 16.5 0.5ZM23.8613 23.62C23.5413 24.0987 22.9813 24.26 22.5 23.94C18.74 21.62 14.02 21.1387 8.41867 22.4187C7.86133 22.5813 7.38 22.18 7.22 21.7C7.06 21.1387 7.46 20.66 7.94 20.5C14.02 19.1387 19.3 19.7 23.46 22.26C24.02 22.5 24.0987 23.1387 23.8613 23.62ZM25.7813 19.22C25.38 19.78 24.66 20.02 24.0987 19.62C19.78 16.98 13.22 16.18 8.18 17.78C7.54133 17.94 6.82 17.62 6.66 16.98C6.5 16.34 6.82 15.6187 7.46 15.4587C13.3 13.7 20.5 14.5813 25.46 17.62C25.9413 17.8613 26.18 18.66 25.7813 19.22ZM25.9413 14.74C20.82 11.7 12.26 11.38 7.38 12.9013C6.58 13.14 5.78 12.66 5.54 11.94C5.3 11.1387 5.78 10.34 6.5 10.0987C12.18 8.41867 21.54 8.73867 27.4613 12.26C28.18 12.66 28.42 13.62 28.02 14.34C27.6213 14.9013 26.66 15.1387 25.9413 14.74Z" fill="black"/>
  </g>
  <defs>
    <clipPath id="clip0_1306_1496">
      <rect width="32" height="32" fill="white" transform="translate(0.5 0.5)"/>
    </clipPath>
  </defs>
</svg>