<svg width="25" height="20" viewBox="0 0 25 20" fill="none" xmlns="http://www.w3.org/2000/svg">
<path d="M22.1156 5.125C23.0531 4.42188 23.8969 3.57812 24.5531 2.59375C23.7094 2.96875 22.725 3.25 21.7406 3.34375C22.7719 2.73438 23.5219 1.79688 23.8969 0.625C22.9594 1.1875 21.8813 1.60938 20.8031 1.84375C19.8656 0.859375 18.6 0.296875 17.1938 0.296875C14.475 0.296875 12.2719 2.5 12.2719 5.21875C12.2719 5.59375 12.3188 5.96875 12.4125 6.34375C8.33438 6.10938 4.67813 4.14062 2.24063 1.1875C1.81875 1.89062 1.58438 2.73438 1.58438 3.67188C1.58438 5.35938 2.42813 6.85938 3.7875 7.75C2.99063 7.70312 2.19375 7.51562 1.5375 7.14062V7.1875C1.5375 9.57812 3.225 11.5469 5.475 12.0156C5.1 12.1094 4.63125 12.2031 4.20938 12.2031C3.88125 12.2031 3.6 12.1562 3.27188 12.1094C3.88125 14.0781 5.70938 15.4844 7.86563 15.5312C6.17813 16.8438 4.06875 17.6406 1.77188 17.6406C1.35 17.6406 0.975 17.5938 0.6 17.5469C2.75625 18.9531 5.33438 19.75 8.14688 19.75C17.1938 19.75 22.1156 12.2969 22.1156 5.78125C22.1156 5.54688 22.1156 5.35938 22.1156 5.125Z" fill="white"/>
</svg>
