<svg width="18" height="16" viewBox="0 0 18 16" fill="none" xmlns="http://www.w3.org/2000/svg">
<g id="Social / twitter">
<path id="Vector" d="M15.6051 1.66414L15.235 1.33121C15.5039 1.03233 15.9256 0.92353 16.3055 1.05502C16.6854 1.18651 16.9496 1.53272 16.9762 1.93386L16.4773 1.96694L16.9762 1.93387C17.0328 2.78716 16.9982 3.49968 16.771 4.14006C16.5904 4.64915 16.3111 5.04883 15.98 5.40909V5.68751C15.98 10.8292 11.8178 15 6.68032 15C6.68031 15 6.6803 15 6.6803 15L6.63188 15H6.63186L6.59073 15C5.02906 15.0002 3.19523 15.0005 1.44475 13.8317M15.6051 1.66414L1.44475 13.8317C1.44475 13.8317 1.44475 13.8317 1.44475 13.8317M15.6051 1.66414L15.235 1.33121C15.0178 1.57263 14.7583 1.75157 14.4912 1.86365M15.6051 1.66414L14.4912 1.86365M1.44475 13.8317C1.07837 13.587 0.91524 13.1315 1.04305 12.7099C1.17086 12.2883 1.5595 12 2.00004 12C3.14214 12 4.17476 11.64 4.96407 11.2213C3.41213 10.3961 2.26718 9.25341 1.64613 7.83974C0.810983 5.93875 1.00889 3.74654 2.10379 1.55336C2.28154 1.19732 2.65346 0.980556 3.05086 1.00139C3.44825 1.02223 3.79547 1.2767 3.935 1.64937C4.29742 2.61731 5.59965 4.49451 7.99117 4.91491C8.05775 2.74286 9.83714 1.00002 12.0256 1.00002C12.9579 1.00002 13.8157 1.32394 14.4912 1.86365M1.44475 13.8317L14.4912 1.86365" stroke="white"/>
</g>
</svg>
