<svg xmlns="http://www.w3.org/2000/svg" width="33" height="33" viewBox="0 0 33 33" fill="none">
  <g clip-path="url(#clip0_1306_1499)">
    <path d="M32.484 8.90802C32.342 12.02 30.168 16.282 25.96 21.694C21.61 27.352 17.928 30.18 14.916 30.18C13.05 30.18 11.472 28.458 10.182 25.014L7.6 15.546C6.64 12.1 5.612 10.38 4.514 10.38C4.278 10.38 3.44 10.886 2.006 11.888L0.5 9.94802C2.06633 8.57231 3.62237 7.18494 5.168 5.78602C7.276 3.96602 8.858 3.01002 9.914 2.91202C12.4 2.66602 13.934 4.36802 14.51 8.01802C15.13 11.954 15.562 14.398 15.802 15.35C16.522 18.612 17.314 20.242 18.174 20.24C18.842 20.24 19.846 19.18 21.19 17.066C22.532 14.95 23.25 13.34 23.344 12.236C23.536 10.41 22.818 9.49602 21.19 9.49602C20.3728 9.50799 19.5666 9.68557 18.82 10.018C20.398 4.87202 23.402 2.36802 27.836 2.50602C31.124 2.60602 32.674 4.74002 32.484 8.90602V8.90802Z" fill="black"/>
  </g>
  <defs>
    <clipPath id="clip0_1306_1499">
      <rect width="32" height="32" fill="white" transform="translate(0.5 0.5)"/>
    </clipPath>
  </defs>
</svg>