<svg xmlns="http://www.w3.org/2000/svg" width="33" height="33" viewBox="0 0 33 33" fill="none">
  <g clip-path="url(#clip0_1306_1494)">
    <path d="M16.602 4.49799H16.78C18.424 4.50399 26.754 4.56399 29 5.16799C29.679 5.35232 30.2977 5.71163 30.7943 6.21C31.2909 6.70837 31.6481 7.32835 31.83 8.00799C32.032 8.76799 32.174 9.77399 32.27 10.812L32.29 11.02L32.334 11.54L32.35 11.748C32.48 13.576 32.496 15.288 32.498 15.662V15.812C32.496 16.2 32.478 18.028 32.334 19.932L32.318 20.142L32.3 20.35C32.2 21.494 32.052 22.63 31.83 23.466C31.6486 24.1459 31.2917 24.7662 30.795 25.2646C30.2983 25.7631 29.6793 26.1222 29 26.306C26.68 26.93 17.862 26.974 16.64 26.976H16.356C15.738 26.976 13.182 26.964 10.502 26.872L10.162 26.86L9.988 26.852L9.646 26.838L9.304 26.824C7.084 26.726 4.97 26.568 3.996 26.304C3.31698 26.1204 2.69813 25.7616 2.20145 25.2635C1.70477 24.7654 1.34769 24.1455 1.166 23.466C0.944 22.632 0.796 21.494 0.696 20.35L0.68 20.14L0.664 19.932C0.565295 18.5768 0.5106 17.2187 0.5 15.86L0.5 15.614C0.504 15.184 0.52 13.698 0.628 12.058L0.642 11.852L0.648 11.748L0.664 11.54L0.708 11.02L0.728 10.812C0.824 9.77399 0.966 8.76599 1.168 8.00799C1.34939 7.32808 1.70632 6.70781 2.20303 6.20935C2.69973 5.71089 3.31874 5.35177 3.998 5.16799C4.972 4.90799 7.086 4.74799 9.306 4.64799L9.646 4.63399L9.99 4.62199L10.162 4.61599L10.504 4.60199C12.4074 4.54074 14.3116 4.50673 16.216 4.49999H16.602V4.49799ZM13.3 10.918V20.554L21.614 15.738L13.3 10.918Z" fill="black"/>
  </g>
  <defs>
    <clipPath id="clip0_1306_1494">
      <rect width="32" height="32" fill="white" transform="translate(0.5 0.5)"/>
    </clipPath>
  </defs>
</svg>