<svg width="27" height="18" viewBox="0 0 27 18" fill="none" xmlns="http://www.w3.org/2000/svg">
<path id="Vector" d="M13.5869 0H13.7371C15.1243 0.0048047 22.1532 0.0528519 24.0484 0.536525C24.6213 0.684139 25.1434 0.971866 25.5624 1.37095C25.9815 1.77004 26.2828 2.26651 26.4363 2.81075C26.6068 3.41934 26.7266 4.22493 26.8076 5.05614L26.8245 5.22271L26.8616 5.63911L26.8751 5.80568C26.9848 7.26951 26.9983 8.64045 27 8.93994V9.06006C26.9983 9.37076 26.9831 10.8346 26.8616 12.3593L26.8481 12.5274L26.8329 12.694C26.7485 13.6101 26.6237 14.5198 26.4363 15.1893C26.2833 15.7337 25.9821 16.2304 25.563 16.6296C25.1439 17.0287 24.6215 17.3163 24.0484 17.4635C22.0908 17.9632 14.6501 17.9984 13.619 18H13.3793C12.8579 18 10.7011 17.9904 8.43972 17.9167L8.15282 17.9071L8.006 17.9007L7.71742 17.8895L7.42884 17.8783C5.5556 17.7998 3.7718 17.6733 2.94993 17.4619C2.37698 17.3148 1.85479 17.0275 1.43569 16.6286C1.01659 16.2298 0.715286 15.7334 0.561973 15.1893C0.374648 14.5214 0.249766 13.6101 0.165385 12.694L0.151884 12.5258L0.138384 12.3593C0.0550963 11.2741 0.00894408 10.1866 0 9.0985L0 8.9015C0.00337521 8.55717 0.0168761 7.3672 0.108007 6.05392L0.11982 5.88896L0.124883 5.80568L0.138384 5.63911L0.175511 5.22271L0.192387 5.05614C0.273392 4.22493 0.393212 3.41774 0.56366 2.81075C0.716715 2.26629 1.0179 1.76959 1.43702 1.37043C1.85614 0.971276 2.37846 0.683696 2.95162 0.536525C3.77349 0.328321 5.55728 0.200196 7.43053 0.120117L7.71742 0.108906L8.00769 0.0992973L8.15282 0.0944926L8.4414 0.0832817C10.0475 0.034233 11.6543 0.00700343 13.2612 0.00160164H13.5869V0ZM10.8007 5.14103V12.8574L17.8161 9.0008L10.8007 5.14103Z" fill="white"/>
</svg>
